solid hollow_pipe
  facet normal -0.9848077530122081 -0.17364817766693053 0.0
    outer loop
      vertex 1.0 0.0 0.0
      vertex 1.0 0.0 1.2
      vertex 0.9396926207859083 0.34202014332566877 0.0
    endloop
  endfacet
  facet normal -0.9848077530122081 -0.17364817766693053 0.0
    outer loop
      vertex 1.0 0.0 1.2
      vertex 0.9396926207859083 0.34202014332566877 1.2
      vertex 0.9396926207859083 0.34202014332566877 0.0
    endloop
  endfacet
  facet normal -0.8660254037844389 -0.4999999999999996 0.0
    outer loop
      vertex 0.9396926207859083 0.34202014332566877 0.0
      vertex 0.9396926207859083 0.34202014332566877 1.2
      vertex 0.7660444431189782 0.6427876096865393 0.0
    endloop
  endfacet
  facet normal -0.8660254037844389 -0.4999999999999996 0.0
    outer loop
      vertex 0.9396926207859083 0.34202014332566877 1.2
      vertex 0.7660444431189782 0.6427876096865393 1.2
      vertex 0.7660444431189782 0.6427876096865393 0.0
    endloop
  endfacet
  facet normal -0.642787609686539 -0.7660444431189783 0.0
    outer loop
      vertex 0.7660444431189782 0.6427876096865393 0.0
      vertex 0.7660444431189782 0.6427876096865393 1.2
      vertex 0.5000000000000001 0.8660254037844385 0.0
    endloop
  endfacet
  facet normal -0.642787609686539 -0.7660444431189783 0.0
    outer loop
      vertex 0.7660444431189782 0.6427876096865393 1.2
      vertex 0.5000000000000001 0.8660254037844385 1.2
      vertex 0.5000000000000001 0.8660254037844385 0.0
    endloop
  endfacet
  facet normal -0.342020143325669 -0.9396926207859082 0.0
    outer loop
      vertex 0.5000000000000001 0.8660254037844385 0.0
      vertex 0.5000000000000001 0.8660254037844385 1.2
      vertex 0.17364817766693044 0.984807753012208 0.0
    endloop
  endfacet
  facet normal -0.342020143325669 -0.9396926207859082 0.0
    outer loop
      vertex 0.5000000000000001 0.8660254037844385 1.2
      vertex 0.17364817766693044 0.984807753012208 1.2
      vertex 0.17364817766693044 0.984807753012208 0.0
    endloop
  endfacet
  facet normal -3.1967597919588986e-16 -1.0 0.0
    outer loop
      vertex 0.17364817766693044 0.984807753012208 0.0
      vertex 0.17364817766693044 0.984807753012208 1.2
      vertex -0.17364817766693033 0.9848077530122081 0.0
    endloop
  endfacet
  facet normal -3.1967597919588986e-16 -1.0 0.0
    outer loop
      vertex 0.17364817766693044 0.984807753012208 1.2
      vertex -0.17364817766693033 0.9848077530122081 1.2
      vertex -0.17364817766693033 0.9848077530122081 0.0
    endloop
  endfacet
  facet normal 0.342020143325669 -0.9396926207859083 0.0
    outer loop
      vertex -0.17364817766693033 0.9848077530122081 0.0
      vertex -0.17364817766693033 0.9848077530122081 1.2
      vertex -0.4999999999999997 0.8660254037844387 0.0
    endloop
  endfacet
  facet normal 0.342020143325669 -0.9396926207859083 0.0
    outer loop
      vertex -0.17364817766693033 0.9848077530122081 1.2
      vertex -0.4999999999999997 0.8660254037844387 1.2
      vertex -0.4999999999999997 0.8660254037844387 0.0
    endloop
  endfacet
  facet normal 0.6427876096865388 -0.7660444431189785 0.0
    outer loop
      vertex -0.4999999999999997 0.8660254037844387 0.0
      vertex -0.4999999999999997 0.8660254037844387 1.2
      vertex -0.766044443118978 0.6427876096865395 0.0
    endloop
  endfacet
  facet normal 0.6427876096865388 -0.7660444431189785 0.0
    outer loop
      vertex -0.4999999999999997 0.8660254037844387 1.2
      vertex -0.766044443118978 0.6427876096865395 1.2
      vertex -0.766044443118978 0.6427876096865395 0.0
    endloop
  endfacet
  facet normal 0.8660254037844386 -0.49999999999999994 0.0
    outer loop
      vertex -0.766044443118978 0.6427876096865395 0.0
      vertex -0.766044443118978 0.6427876096865395 1.2
      vertex -0.9396926207859083 0.34202014332566893 0.0
    endloop
  endfacet
  facet normal 0.8660254037844386 -0.49999999999999994 0.0
    outer loop
      vertex -0.766044443118978 0.6427876096865395 1.2
      vertex -0.9396926207859083 0.34202014332566893 1.2
      vertex -0.9396926207859083 0.34202014332566893 0.0
    endloop
  endfacet
  facet normal 0.9848077530122081 -0.1736481776669305 0.0
    outer loop
      vertex -0.9396926207859083 0.34202014332566893 0.0
      vertex -0.9396926207859083 0.34202014332566893 1.2
      vertex -1.0 1.2246467991473532e-16 0.0
    endloop
  endfacet
  facet normal 0.9848077530122081 -0.1736481776669305 0.0
    outer loop
      vertex -0.9396926207859083 0.34202014332566893 1.2
      vertex -1.0 1.2246467991473532e-16 1.2
      vertex -1.0 1.2246467991473532e-16 0.0
    endloop
  endfacet
  facet normal 0.9848077530122081 0.1736481776669302 -0.0
    outer loop
      vertex -1.0 1.2246467991473532e-16 0.0
      vertex -1.0 1.2246467991473532e-16 1.2
      vertex -0.9396926207859084 -0.3420201433256687 0.0
    endloop
  endfacet
  facet normal 0.9848077530122081 0.1736481776669302 0.0
    outer loop
      vertex -1.0 1.2246467991473532e-16 1.2
      vertex -0.9396926207859084 -0.3420201433256687 1.2
      vertex -0.9396926207859084 -0.3420201433256687 0.0
    endloop
  endfacet
  facet normal 0.8660254037844389 0.4999999999999997 -0.0
    outer loop
      vertex -0.9396926207859084 -0.3420201433256687 0.0
      vertex -0.9396926207859084 -0.3420201433256687 1.2
      vertex -0.7660444431189785 -0.6427876096865389 0.0
    endloop
  endfacet
  facet normal 0.8660254037844389 0.4999999999999997 0.0
    outer loop
      vertex -0.9396926207859084 -0.3420201433256687 1.2
      vertex -0.7660444431189785 -0.6427876096865389 1.2
      vertex -0.7660444431189785 -0.6427876096865389 0.0
    endloop
  endfacet
  facet normal 0.6427876096865393 0.7660444431189781 -0.0
    outer loop
      vertex -0.7660444431189785 -0.6427876096865389 0.0
      vertex -0.7660444431189785 -0.6427876096865389 1.2
      vertex -0.5000000000000003 -0.8660254037844383 0.0
    endloop
  endfacet
  facet normal 0.6427876096865393 0.7660444431189781 0.0
    outer loop
      vertex -0.7660444431189785 -0.6427876096865389 1.2
      vertex -0.5000000000000003 -0.8660254037844383 1.2
      vertex -0.5000000000000003 -0.8660254037844383 0.0
    endloop
  endfacet
  facet normal 0.34202014332566927 0.9396926207859082 -0.0
    outer loop
      vertex -0.5000000000000003 -0.8660254037844383 0.0
      vertex -0.5000000000000003 -0.8660254037844383 1.2
      vertex -0.17364817766693036 -0.984807753012208 0.0
    endloop
  endfacet
  facet normal 0.34202014332566927 0.9396926207859082 0.0
    outer loop
      vertex -0.5000000000000003 -0.8660254037844383 1.2
      vertex -0.17364817766693036 -0.984807753012208 1.2
      vertex -0.17364817766693036 -0.984807753012208 0.0
    endloop
  endfacet
  facet normal 3.1967597919589025e-16 1.0 -0.0
    outer loop
      vertex -0.17364817766693036 -0.984807753012208 0.0
      vertex -0.17364817766693036 -0.984807753012208 1.2
      vertex 0.17364817766692997 -0.9848077530122081 0.0
    endloop
  endfacet
  facet normal 3.1967597919589025e-16 1.0 0.0
    outer loop
      vertex -0.17364817766693036 -0.984807753012208 1.2
      vertex 0.17364817766692997 -0.9848077530122081 1.2
      vertex 0.17364817766692997 -0.9848077530122081 0.0
    endloop
  endfacet
  facet normal -0.3420201433256683 0.9396926207859085 0.0
    outer loop
      vertex 0.17364817766692997 -0.9848077530122081 0.0
      vertex 0.17364817766692997 -0.9848077530122081 1.2
      vertex 0.4999999999999992 -0.866025403784439 0.0
    endloop
  endfacet
  facet normal -0.3420201433256683 0.9396926207859085 0.0
    outer loop
      vertex 0.17364817766692997 -0.9848077530122081 1.2
      vertex 0.4999999999999992 -0.866025403784439 1.2
      vertex 0.4999999999999992 -0.866025403784439 0.0
    endloop
  endfacet
  facet normal -0.6427876096865387 0.7660444431189785 0.0
    outer loop
      vertex 0.4999999999999992 -0.866025403784439 0.0
      vertex 0.4999999999999992 -0.866025403784439 1.2
      vertex 0.7660444431189779 -0.6427876096865395 0.0
    endloop
  endfacet
  facet normal -0.6427876096865387 0.7660444431189785 0.0
    outer loop
      vertex 0.4999999999999992 -0.866025403784439 1.2
      vertex 0.7660444431189779 -0.6427876096865395 1.2
      vertex 0.7660444431189779 -0.6427876096865395 0.0
    endloop
  endfacet
  facet normal -0.8660254037844386 0.5 0.0
    outer loop
      vertex 0.7660444431189779 -0.6427876096865395 0.0
      vertex 0.7660444431189779 -0.6427876096865395 1.2
      vertex 0.9396926207859084 -0.3420201433256686 0.0
    endloop
  endfacet
  facet normal -0.8660254037844386 0.5 0.0
    outer loop
      vertex 0.7660444431189779 -0.6427876096865395 1.2
      vertex 0.9396926207859084 -0.3420201433256686 1.2
      vertex 0.9396926207859084 -0.3420201433256686 0.0
    endloop
  endfacet
  facet normal -0.984807753012208 0.1736481776669303 0.0
    outer loop
      vertex 0.9396926207859084 -0.3420201433256686 0.0
      vertex 0.9396926207859084 -0.3420201433256686 1.2
      vertex 1.0 0.0 0.0
    endloop
  endfacet
  facet normal -0.984807753012208 0.1736481776669303 0.0
    outer loop
      vertex 0.9396926207859084 -0.3420201433256686 1.2
      vertex 1.0 0.0 1.2
      vertex 1.0 0.0 0.0
    endloop
  endfacet
  facet normal -0.9848077530122081 -0.17364817766693053 0.0
    outer loop
      vertex 1.0 0.0 1.2
      vertex 1.0 0.0 2.4
      vertex 0.9396926207859083 0.34202014332566877 1.2
    endloop
  endfacet
  facet normal -0.9848077530122081 -0.17364817766693053 0.0
    outer loop
      vertex 1.0 0.0 2.4
      vertex 0.9396926207859083 0.34202014332566877 2.4
      vertex 0.9396926207859083 0.34202014332566877 1.2
    endloop
  endfacet
  facet normal -0.8660254037844389 -0.4999999999999996 0.0
    outer loop
      vertex 0.9396926207859083 0.34202014332566877 1.2
      vertex 0.9396926207859083 0.34202014332566877 2.4
      vertex 0.7660444431189782 0.6427876096865393 1.2
    endloop
  endfacet
  facet normal -0.8660254037844389 -0.4999999999999996 0.0
    outer loop
      vertex 0.9396926207859083 0.34202014332566877 2.4
      vertex 0.7660444431189782 0.6427876096865393 2.4
      vertex 0.7660444431189782 0.6427876096865393 1.2
    endloop
  endfacet
  facet normal -0.642787609686539 -0.7660444431189783 0.0
    outer loop
      vertex 0.7660444431189782 0.6427876096865393 1.2
      vertex 0.7660444431189782 0.6427876096865393 2.4
      vertex 0.5000000000000001 0.8660254037844385 1.2
    endloop
  endfacet
  facet normal -0.642787609686539 -0.7660444431189783 0.0
    outer loop
      vertex 0.7660444431189782 0.6427876096865393 2.4
      vertex 0.5000000000000001 0.8660254037844385 2.4
      vertex 0.5000000000000001 0.8660254037844385 1.2
    endloop
  endfacet
  facet normal -0.342020143325669 -0.9396926207859082 0.0
    outer loop
      vertex 0.5000000000000001 0.8660254037844385 1.2
      vertex 0.5000000000000001 0.8660254037844385 2.4
      vertex 0.17364817766693044 0.984807753012208 1.2
    endloop
  endfacet
  facet normal -0.342020143325669 -0.9396926207859082 0.0
    outer loop
      vertex 0.5000000000000001 0.8660254037844385 2.4
      vertex 0.17364817766693044 0.984807753012208 2.4
      vertex 0.17364817766693044 0.984807753012208 1.2
    endloop
  endfacet
  facet normal -3.1967597919588986e-16 -1.0 0.0
    outer loop
      vertex 0.17364817766693044 0.984807753012208 1.2
      vertex 0.17364817766693044 0.984807753012208 2.4
      vertex -0.17364817766693033 0.9848077530122081 1.2
    endloop
  endfacet
  facet normal -3.1967597919588986e-16 -1.0 0.0
    outer loop
      vertex 0.17364817766693044 0.984807753012208 2.4
      vertex -0.17364817766693033 0.9848077530122081 2.4
      vertex -0.17364817766693033 0.9848077530122081 1.2
    endloop
  endfacet
  facet normal 0.342020143325669 -0.9396926207859083 0.0
    outer loop
      vertex -0.17364817766693033 0.9848077530122081 1.2
      vertex -0.17364817766693033 0.9848077530122081 2.4
      vertex -0.4999999999999997 0.8660254037844387 1.2
    endloop
  endfacet
  facet normal 0.342020143325669 -0.9396926207859083 0.0
    outer loop
      vertex -0.17364817766693033 0.9848077530122081 2.4
      vertex -0.4999999999999997 0.8660254037844387 2.4
      vertex -0.4999999999999997 0.8660254037844387 1.2
    endloop
  endfacet
  facet normal 0.6427876096865388 -0.7660444431189785 0.0
    outer loop
      vertex -0.4999999999999997 0.8660254037844387 1.2
      vertex -0.4999999999999997 0.8660254037844387 2.4
      vertex -0.766044443118978 0.6427876096865395 1.2
    endloop
  endfacet
  facet normal 0.6427876096865388 -0.7660444431189785 0.0
    outer loop
      vertex -0.4999999999999997 0.8660254037844387 2.4
      vertex -0.766044443118978 0.6427876096865395 2.4
      vertex -0.766044443118978 0.6427876096865395 1.2
    endloop
  endfacet
  facet normal 0.8660254037844386 -0.49999999999999994 0.0
    outer loop
      vertex -0.766044443118978 0.6427876096865395 1.2
      vertex -0.766044443118978 0.6427876096865395 2.4
      vertex -0.9396926207859083 0.34202014332566893 1.2
    endloop
  endfacet
  facet normal 0.8660254037844386 -0.49999999999999994 0.0
    outer loop
      vertex -0.766044443118978 0.6427876096865395 2.4
      vertex -0.9396926207859083 0.34202014332566893 2.4
      vertex -0.9396926207859083 0.34202014332566893 1.2
    endloop
  endfacet
  facet normal 0.9848077530122081 -0.1736481776669305 0.0
    outer loop
      vertex -0.9396926207859083 0.34202014332566893 1.2
      vertex -0.9396926207859083 0.34202014332566893 2.4
      vertex -1.0 1.2246467991473532e-16 1.2
    endloop
  endfacet
  facet normal 0.9848077530122081 -0.1736481776669305 0.0
    outer loop
      vertex -0.9396926207859083 0.34202014332566893 2.4
      vertex -1.0 1.2246467991473532e-16 2.4
      vertex -1.0 1.2246467991473532e-16 1.2
    endloop
  endfacet
  facet normal 0.9848077530122081 0.1736481776669302 -0.0
    outer loop
      vertex -1.0 1.2246467991473532e-16 1.2
      vertex -1.0 1.2246467991473532e-16 2.4
      vertex -0.9396926207859084 -0.3420201433256687 1.2
    endloop
  endfacet
  facet normal 0.9848077530122081 0.1736481776669302 0.0
    outer loop
      vertex -1.0 1.2246467991473532e-16 2.4
      vertex -0.9396926207859084 -0.3420201433256687 2.4
      vertex -0.9396926207859084 -0.3420201433256687 1.2
    endloop
  endfacet
  facet normal 0.8660254037844389 0.4999999999999997 -0.0
    outer loop
      vertex -0.9396926207859084 -0.3420201433256687 1.2
      vertex -0.9396926207859084 -0.3420201433256687 2.4
      vertex -0.7660444431189785 -0.6427876096865389 1.2
    endloop
  endfacet
  facet normal 0.8660254037844389 0.4999999999999997 0.0
    outer loop
      vertex -0.9396926207859084 -0.3420201433256687 2.4
      vertex -0.7660444431189785 -0.6427876096865389 2.4
      vertex -0.7660444431189785 -0.6427876096865389 1.2
    endloop
  endfacet
  facet normal 0.6427876096865393 0.7660444431189781 -0.0
    outer loop
      vertex -0.7660444431189785 -0.6427876096865389 1.2
      vertex -0.7660444431189785 -0.6427876096865389 2.4
      vertex -0.5000000000000003 -0.8660254037844383 1.2
    endloop
  endfacet
  facet normal 0.6427876096865393 0.7660444431189781 0.0
    outer loop
      vertex -0.7660444431189785 -0.6427876096865389 2.4
      vertex -0.5000000000000003 -0.8660254037844383 2.4
      vertex -0.5000000000000003 -0.8660254037844383 1.2
    endloop
  endfacet
  facet normal 0.34202014332566927 0.9396926207859082 -0.0
    outer loop
      vertex -0.5000000000000003 -0.8660254037844383 1.2
      vertex -0.5000000000000003 -0.8660254037844383 2.4
      vertex -0.17364817766693036 -0.984807753012208 1.2
    endloop
  endfacet
  facet normal 0.34202014332566927 0.9396926207859082 0.0
    outer loop
      vertex -0.5000000000000003 -0.8660254037844383 2.4
      vertex -0.17364817766693036 -0.984807753012208 2.4
      vertex -0.17364817766693036 -0.984807753012208 1.2
    endloop
  endfacet
  facet normal 3.1967597919589025e-16 1.0 -0.0
    outer loop
      vertex -0.17364817766693036 -0.984807753012208 1.2
      vertex -0.17364817766693036 -0.984807753012208 2.4
      vertex 0.17364817766692997 -0.9848077530122081 1.2
    endloop
  endfacet
  facet normal 3.1967597919589025e-16 1.0 0.0
    outer loop
      vertex -0.17364817766693036 -0.984807753012208 2.4
      vertex 0.17364817766692997 -0.9848077530122081 2.4
      vertex 0.17364817766692997 -0.9848077530122081 1.2
    endloop
  endfacet
  facet normal -0.3420201433256683 0.9396926207859085 0.0
    outer loop
      vertex 0.17364817766692997 -0.9848077530122081 1.2
      vertex 0.17364817766692997 -0.9848077530122081 2.4
      vertex 0.4999999999999992 -0.866025403784439 1.2
    endloop
  endfacet
  facet normal -0.3420201433256683 0.9396926207859085 0.0
    outer loop
      vertex 0.17364817766692997 -0.9848077530122081 2.4
      vertex 0.4999999999999992 -0.866025403784439 2.4
      vertex 0.4999999999999992 -0.866025403784439 1.2
    endloop
  endfacet
  facet normal -0.6427876096865387 0.7660444431189785 0.0
    outer loop
      vertex 0.4999999999999992 -0.866025403784439 1.2
      vertex 0.4999999999999992 -0.866025403784439 2.4
      vertex 0.7660444431189779 -0.6427876096865395 1.2
    endloop
  endfacet
  facet normal -0.6427876096865387 0.7660444431189785 0.0
    outer loop
      vertex 0.4999999999999992 -0.866025403784439 2.4
      vertex 0.7660444431189779 -0.6427876096865395 2.4
      vertex 0.7660444431189779 -0.6427876096865395 1.2
    endloop
  endfacet
  facet normal -0.8660254037844386 0.5 0.0
    outer loop
      vertex 0.7660444431189779 -0.6427876096865395 1.2
      vertex 0.7660444431189779 -0.6427876096865395 2.4
      vertex 0.9396926207859084 -0.3420201433256686 1.2
    endloop
  endfacet
  facet normal -0.8660254037844386 0.5 0.0
    outer loop
      vertex 0.7660444431189779 -0.6427876096865395 2.4
      vertex 0.9396926207859084 -0.3420201433256686 2.4
      vertex 0.9396926207859084 -0.3420201433256686 1.2
    endloop
  endfacet
  facet normal -0.984807753012208 0.1736481776669303 0.0
    outer loop
      vertex 0.9396926207859084 -0.3420201433256686 1.2
      vertex 0.9396926207859084 -0.3420201433256686 2.4
      vertex 1.0 0.0 1.2
    endloop
  endfacet
  facet normal -0.984807753012208 0.1736481776669303 0.0
    outer loop
      vertex 0.9396926207859084 -0.3420201433256686 2.4
      vertex 1.0 0.0 2.4
      vertex 1.0 0.0 1.2
    endloop
  endfacet
  facet normal -0.9848077530122081 -0.17364817766693053 0.0
    outer loop
      vertex 1.0 0.0 2.4
      vertex 1.0 0.0 3.6
      vertex 0.9396926207859083 0.34202014332566877 2.4
    endloop
  endfacet
  facet normal -0.9848077530122081 -0.17364817766693053 0.0
    outer loop
      vertex 1.0 0.0 3.6
      vertex 0.9396926207859083 0.34202014332566877 3.6
      vertex 0.9396926207859083 0.34202014332566877 2.4
    endloop
  endfacet
  facet normal -0.8660254037844389 -0.49999999999999956 0.0
    outer loop
      vertex 0.9396926207859083 0.34202014332566877 2.4
      vertex 0.9396926207859083 0.34202014332566877 3.6
      vertex 0.7660444431189782 0.6427876096865393 2.4
    endloop
  endfacet
  facet normal -0.8660254037844389 -0.49999999999999956 0.0
    outer loop
      vertex 0.9396926207859083 0.34202014332566877 3.6
      vertex 0.7660444431189782 0.6427876096865393 3.6
      vertex 0.7660444431189782 0.6427876096865393 2.4
    endloop
  endfacet
  facet normal -0.642787609686539 -0.7660444431189783 0.0
    outer loop
      vertex 0.7660444431189782 0.6427876096865393 2.4
      vertex 0.7660444431189782 0.6427876096865393 3.6
      vertex 0.5000000000000001 0.8660254037844385 2.4
    endloop
  endfacet
  facet normal -0.642787609686539 -0.7660444431189783 0.0
    outer loop
      vertex 0.7660444431189782 0.6427876096865393 3.6
      vertex 0.5000000000000001 0.8660254037844385 3.6
      vertex 0.5000000000000001 0.8660254037844385 2.4
    endloop
  endfacet
  facet normal -0.34202014332566905 -0.9396926207859083 0.0
    outer loop
      vertex 0.5000000000000001 0.8660254037844385 2.4
      vertex 0.5000000000000001 0.8660254037844385 3.6
      vertex 0.17364817766693044 0.984807753012208 2.4
    endloop
  endfacet
  facet normal -0.34202014332566905 -0.9396926207859083 0.0
    outer loop
      vertex 0.5000000000000001 0.8660254037844385 3.6
      vertex 0.17364817766693044 0.984807753012208 3.6
      vertex 0.17364817766693044 0.984807753012208 2.4
    endloop
  endfacet
  facet normal -3.1967597919588986e-16 -1.0 0.0
    outer loop
      vertex 0.17364817766693044 0.984807753012208 2.4
      vertex 0.17364817766693044 0.984807753012208 3.6
      vertex -0.17364817766693033 0.9848077530122081 2.4
    endloop
  endfacet
  facet normal -3.1967597919588986e-16 -1.0 0.0
    outer loop
      vertex 0.17364817766693044 0.984807753012208 3.6
      vertex -0.17364817766693033 0.9848077530122081 3.6
      vertex -0.17364817766693033 0.9848077530122081 2.4
    endloop
  endfacet
  facet normal 0.34202014332566905 -0.9396926207859083 0.0
    outer loop
      vertex -0.17364817766693033 0.9848077530122081 2.4
      vertex -0.17364817766693033 0.9848077530122081 3.6
      vertex -0.4999999999999997 0.8660254037844387 2.4
    endloop
  endfacet
  facet normal 0.34202014332566905 -0.9396926207859083 0.0
    outer loop
      vertex -0.17364817766693033 0.9848077530122081 3.6
      vertex -0.4999999999999997 0.8660254037844387 3.6
      vertex -0.4999999999999997 0.8660254037844387 2.4
    endloop
  endfacet
  facet normal 0.6427876096865388 -0.7660444431189785 0.0
    outer loop
      vertex -0.4999999999999997 0.8660254037844387 2.4
      vertex -0.4999999999999997 0.8660254037844387 3.6
      vertex -0.766044443118978 0.6427876096865395 2.4
    endloop
  endfacet
  facet normal 0.6427876096865388 -0.7660444431189785 0.0
    outer loop
      vertex -0.4999999999999997 0.8660254037844387 3.6
      vertex -0.766044443118978 0.6427876096865395 3.6
      vertex -0.766044443118978 0.6427876096865395 2.4
    endloop
  endfacet
  facet normal 0.8660254037844387 -0.5 0.0
    outer loop
      vertex -0.766044443118978 0.6427876096865395 2.4
      vertex -0.766044443118978 0.6427876096865395 3.6
      vertex -0.9396926207859083 0.34202014332566893 2.4
    endloop
  endfacet
  facet normal 0.8660254037844387 -0.5 0.0
    outer loop
      vertex -0.766044443118978 0.6427876096865395 3.6
      vertex -0.9396926207859083 0.34202014332566893 3.6
      vertex -0.9396926207859083 0.34202014332566893 2.4
    endloop
  endfacet
  facet normal 0.9848077530122081 -0.1736481776669305 0.0
    outer loop
      vertex -0.9396926207859083 0.34202014332566893 2.4
      vertex -0.9396926207859083 0.34202014332566893 3.6
      vertex -1.0 1.2246467991473532e-16 2.4
    endloop
  endfacet
  facet normal 0.9848077530122081 -0.1736481776669305 0.0
    outer loop
      vertex -0.9396926207859083 0.34202014332566893 3.6
      vertex -1.0 1.2246467991473532e-16 3.6
      vertex -1.0 1.2246467991473532e-16 2.4
    endloop
  endfacet
  facet normal 0.9848077530122082 0.17364817766693022 -0.0
    outer loop
      vertex -1.0 1.2246467991473532e-16 2.4
      vertex -1.0 1.2246467991473532e-16 3.6
      vertex -0.9396926207859084 -0.3420201433256687 2.4
    endloop
  endfacet
  facet normal 0.9848077530122082 0.17364817766693022 0.0
    outer loop
      vertex -1.0 1.2246467991473532e-16 3.6
      vertex -0.9396926207859084 -0.3420201433256687 3.6
      vertex -0.9396926207859084 -0.3420201433256687 2.4
    endloop
  endfacet
  facet normal 0.8660254037844388 0.49999999999999967 -0.0
    outer loop
      vertex -0.9396926207859084 -0.3420201433256687 2.4
      vertex -0.9396926207859084 -0.3420201433256687 3.6
      vertex -0.7660444431189785 -0.6427876096865389 2.4
    endloop
  endfacet
  facet normal 0.8660254037844388 0.49999999999999967 0.0
    outer loop
      vertex -0.9396926207859084 -0.3420201433256687 3.6
      vertex -0.7660444431189785 -0.6427876096865389 3.6
      vertex -0.7660444431189785 -0.6427876096865389 2.4
    endloop
  endfacet
  facet normal 0.6427876096865393 0.7660444431189781 -0.0
    outer loop
      vertex -0.7660444431189785 -0.6427876096865389 2.4
      vertex -0.7660444431189785 -0.6427876096865389 3.6
      vertex -0.5000000000000003 -0.8660254037844383 2.4
    endloop
  endfacet
  facet normal 0.6427876096865393 0.7660444431189781 0.0
    outer loop
      vertex -0.7660444431189785 -0.6427876096865389 3.6
      vertex -0.5000000000000003 -0.8660254037844383 3.6
      vertex -0.5000000000000003 -0.8660254037844383 2.4
    endloop
  endfacet
  facet normal 0.34202014332566927 0.9396926207859082 -0.0
    outer loop
      vertex -0.5000000000000003 -0.8660254037844383 2.4
      vertex -0.5000000000000003 -0.8660254037844383 3.6
      vertex -0.17364817766693036 -0.984807753012208 2.4
    endloop
  endfacet
  facet normal 0.34202014332566927 0.9396926207859082 0.0
    outer loop
      vertex -0.5000000000000003 -0.8660254037844383 3.6
      vertex -0.17364817766693036 -0.984807753012208 3.6
      vertex -0.17364817766693036 -0.984807753012208 2.4
    endloop
  endfacet
  facet normal 3.196759791958903e-16 1.0 -0.0
    outer loop
      vertex -0.17364817766693036 -0.984807753012208 2.4
      vertex -0.17364817766693036 -0.984807753012208 3.6
      vertex 0.17364817766692997 -0.9848077530122081 2.4
    endloop
  endfacet
  facet normal 3.196759791958903e-16 1.0 0.0
    outer loop
      vertex -0.17364817766693036 -0.984807753012208 3.6
      vertex 0.17364817766692997 -0.9848077530122081 3.6
      vertex 0.17364817766692997 -0.9848077530122081 2.4
    endloop
  endfacet
  facet normal -0.3420201433256683 0.9396926207859085 0.0
    outer loop
      vertex 0.17364817766692997 -0.9848077530122081 2.4
      vertex 0.17364817766692997 -0.9848077530122081 3.6
      vertex 0.4999999999999992 -0.866025403784439 2.4
    endloop
  endfacet
  facet normal -0.3420201433256683 0.9396926207859085 0.0
    outer loop
      vertex 0.17364817766692997 -0.9848077530122081 3.6
      vertex 0.4999999999999992 -0.866025403784439 3.6
      vertex 0.4999999999999992 -0.866025403784439 2.4
    endloop
  endfacet
  facet normal -0.6427876096865388 0.7660444431189785 0.0
    outer loop
      vertex 0.4999999999999992 -0.866025403784439 2.4
      vertex 0.4999999999999992 -0.866025403784439 3.6
      vertex 0.7660444431189779 -0.6427876096865395 2.4
    endloop
  endfacet
  facet normal -0.6427876096865388 0.7660444431189785 0.0
    outer loop
      vertex 0.4999999999999992 -0.866025403784439 3.6
      vertex 0.7660444431189779 -0.6427876096865395 3.6
      vertex 0.7660444431189779 -0.6427876096865395 2.4
    endloop
  endfacet
  facet normal -0.8660254037844386 0.5000000000000001 0.0
    outer loop
      vertex 0.7660444431189779 -0.6427876096865395 2.4
      vertex 0.7660444431189779 -0.6427876096865395 3.6
      vertex 0.9396926207859084 -0.3420201433256686 2.4
    endloop
  endfacet
  facet normal -0.8660254037844386 0.5000000000000001 0.0
    outer loop
      vertex 0.7660444431189779 -0.6427876096865395 3.6
      vertex 0.9396926207859084 -0.3420201433256686 3.6
      vertex 0.9396926207859084 -0.3420201433256686 2.4
    endloop
  endfacet
  facet normal -0.984807753012208 0.1736481776669303 0.0
    outer loop
      vertex 0.9396926207859084 -0.3420201433256686 2.4
      vertex 0.9396926207859084 -0.3420201433256686 3.6
      vertex 1.0 0.0 2.4
    endloop
  endfacet
  facet normal -0.984807753012208 0.1736481776669303 0.0
    outer loop
      vertex 0.9396926207859084 -0.3420201433256686 3.6
      vertex 1.0 0.0 3.6
      vertex 1.0 0.0 2.4
    endloop
  endfacet
  facet normal -0.984807753012208 -0.17364817766693053 0.0
    outer loop
      vertex 1.0 0.0 3.6
      vertex 1.0 0.0 4.8
      vertex 0.9396926207859083 0.34202014332566877 3.6
    endloop
  endfacet
  facet normal -0.984807753012208 -0.17364817766693053 0.0
    outer loop
      vertex 1.0 0.0 4.8
      vertex 0.9396926207859083 0.34202014332566877 4.8
      vertex 0.9396926207859083 0.34202014332566877 3.6
    endloop
  endfacet
  facet normal -0.8660254037844389 -0.4999999999999996 0.0
    outer loop
      vertex 0.9396926207859083 0.34202014332566877 3.6
      vertex 0.9396926207859083 0.34202014332566877 4.8
      vertex 0.7660444431189782 0.6427876096865393 3.6
    endloop
  endfacet
  facet normal -0.8660254037844389 -0.4999999999999996 0.0
    outer loop
      vertex 0.9396926207859083 0.34202014332566877 4.8
      vertex 0.7660444431189782 0.6427876096865393 4.8
      vertex 0.7660444431189782 0.6427876096865393 3.6
    endloop
  endfacet
  facet normal -0.6427876096865389 -0.7660444431189782 0.0
    outer loop
      vertex 0.7660444431189782 0.6427876096865393 3.6
      vertex 0.7660444431189782 0.6427876096865393 4.8
      vertex 0.5000000000000001 0.8660254037844385 3.6
    endloop
  endfacet
  facet normal -0.6427876096865389 -0.7660444431189782 0.0
    outer loop
      vertex 0.7660444431189782 0.6427876096865393 4.8
      vertex 0.5000000000000001 0.8660254037844385 4.8
      vertex 0.5000000000000001 0.8660254037844385 3.6
    endloop
  endfacet
  facet normal -0.34202014332566905 -0.9396926207859083 0.0
    outer loop
      vertex 0.5000000000000001 0.8660254037844385 3.6
      vertex 0.5000000000000001 0.8660254037844385 4.8
      vertex 0.17364817766693044 0.984807753012208 3.6
    endloop
  endfacet
  facet normal -0.34202014332566905 -0.9396926207859083 0.0
    outer loop
      vertex 0.5000000000000001 0.8660254037844385 4.8
      vertex 0.17364817766693044 0.984807753012208 4.8
      vertex 0.17364817766693044 0.984807753012208 3.6
    endloop
  endfacet
  facet normal -3.1967597919588986e-16 -1.0 0.0
    outer loop
      vertex 0.17364817766693044 0.984807753012208 3.6
      vertex 0.17364817766693044 0.984807753012208 4.8
      vertex -0.17364817766693033 0.9848077530122081 3.6
    endloop
  endfacet
  facet normal -3.1967597919588986e-16 -1.0 0.0
    outer loop
      vertex 0.17364817766693044 0.984807753012208 4.8
      vertex -0.17364817766693033 0.9848077530122081 4.8
      vertex -0.17364817766693033 0.9848077530122081 3.6
    endloop
  endfacet
  facet normal 0.34202014332566905 -0.9396926207859083 0.0
    outer loop
      vertex -0.17364817766693033 0.9848077530122081 3.6
      vertex -0.17364817766693033 0.9848077530122081 4.8
      vertex -0.4999999999999997 0.8660254037844387 3.6
    endloop
  endfacet
  facet normal 0.34202014332566905 -0.9396926207859083 0.0
    outer loop
      vertex -0.17364817766693033 0.9848077530122081 4.8
      vertex -0.4999999999999997 0.8660254037844387 4.8
      vertex -0.4999999999999997 0.8660254037844387 3.6
    endloop
  endfacet
  facet normal 0.6427876096865388 -0.7660444431189785 0.0
    outer loop
      vertex -0.4999999999999997 0.8660254037844387 3.6
      vertex -0.4999999999999997 0.8660254037844387 4.8
      vertex -0.766044443118978 0.6427876096865395 3.6
    endloop
  endfacet
  facet normal 0.6427876096865388 -0.7660444431189785 0.0
    outer loop
      vertex -0.4999999999999997 0.8660254037844387 4.8
      vertex -0.766044443118978 0.6427876096865395 4.8
      vertex -0.766044443118978 0.6427876096865395 3.6
    endloop
  endfacet
  facet normal 0.8660254037844387 -0.5 0.0
    outer loop
      vertex -0.766044443118978 0.6427876096865395 3.6
      vertex -0.766044443118978 0.6427876096865395 4.8
      vertex -0.9396926207859083 0.34202014332566893 3.6
    endloop
  endfacet
  facet normal 0.8660254037844387 -0.5 0.0
    outer loop
      vertex -0.766044443118978 0.6427876096865395 4.8
      vertex -0.9396926207859083 0.34202014332566893 4.8
      vertex -0.9396926207859083 0.34202014332566893 3.6
    endloop
  endfacet
  facet normal 0.9848077530122081 -0.1736481776669305 0.0
    outer loop
      vertex -0.9396926207859083 0.34202014332566893 3.6
      vertex -0.9396926207859083 0.34202014332566893 4.8
      vertex -1.0 1.2246467991473532e-16 3.6
    endloop
  endfacet
  facet normal 0.9848077530122081 -0.1736481776669305 0.0
    outer loop
      vertex -0.9396926207859083 0.34202014332566893 4.8
      vertex -1.0 1.2246467991473532e-16 4.8
      vertex -1.0 1.2246467991473532e-16 3.6
    endloop
  endfacet
  facet normal 0.9848077530122082 0.17364817766693022 -0.0
    outer loop
      vertex -1.0 1.2246467991473532e-16 3.6
      vertex -1.0 1.2246467991473532e-16 4.8
      vertex -0.9396926207859084 -0.3420201433256687 3.6
    endloop
  endfacet
  facet normal 0.9848077530122082 0.17364817766693022 0.0
    outer loop
      vertex -1.0 1.2246467991473532e-16 4.8
      vertex -0.9396926207859084 -0.3420201433256687 4.8
      vertex -0.9396926207859084 -0.3420201433256687 3.6
    endloop
  endfacet
  facet normal 0.8660254037844388 0.49999999999999967 -0.0
    outer loop
      vertex -0.9396926207859084 -0.3420201433256687 3.6
      vertex -0.9396926207859084 -0.3420201433256687 4.8
      vertex -0.7660444431189785 -0.6427876096865389 3.6
    endloop
  endfacet
  facet normal 0.8660254037844388 0.49999999999999967 0.0
    outer loop
      vertex -0.9396926207859084 -0.3420201433256687 4.8
      vertex -0.7660444431189785 -0.6427876096865389 4.8
      vertex -0.7660444431189785 -0.6427876096865389 3.6
    endloop
  endfacet
  facet normal 0.6427876096865391 0.766044443118978 -0.0
    outer loop
      vertex -0.7660444431189785 -0.6427876096865389 3.6
      vertex -0.7660444431189785 -0.6427876096865389 4.8
      vertex -0.5000000000000003 -0.8660254037844383 3.6
    endloop
  endfacet
  facet normal 0.6427876096865391 0.766044443118978 0.0
    outer loop
      vertex -0.7660444431189785 -0.6427876096865389 4.8
      vertex -0.5000000000000003 -0.8660254037844383 4.8
      vertex -0.5000000000000003 -0.8660254037844383 3.6
    endloop
  endfacet
  facet normal 0.34202014332566927 0.9396926207859081 -0.0
    outer loop
      vertex -0.5000000000000003 -0.8660254037844383 3.6
      vertex -0.5000000000000003 -0.8660254037844383 4.8
      vertex -0.17364817766693036 -0.984807753012208 3.6
    endloop
  endfacet
  facet normal 0.34202014332566927 0.9396926207859081 0.0
    outer loop
      vertex -0.5000000000000003 -0.8660254037844383 4.8
      vertex -0.17364817766693036 -0.984807753012208 4.8
      vertex -0.17364817766693036 -0.984807753012208 3.6
    endloop
  endfacet
  facet normal 3.196759791958903e-16 1.0 -0.0
    outer loop
      vertex -0.17364817766693036 -0.984807753012208 3.6
      vertex -0.17364817766693036 -0.984807753012208 4.8
      vertex 0.17364817766692997 -0.9848077530122081 3.6
    endloop
  endfacet
  facet normal 3.196759791958903e-16 1.0 0.0
    outer loop
      vertex -0.17364817766693036 -0.984807753012208 4.8
      vertex 0.17364817766692997 -0.9848077530122081 4.8
      vertex 0.17364817766692997 -0.9848077530122081 3.6
    endloop
  endfacet
  facet normal -0.34202014332566827 0.9396926207859085 0.0
    outer loop
      vertex 0.17364817766692997 -0.9848077530122081 3.6
      vertex 0.17364817766692997 -0.9848077530122081 4.8
      vertex 0.4999999999999992 -0.866025403784439 3.6
    endloop
  endfacet
  facet normal -0.34202014332566827 0.9396926207859085 0.0
    outer loop
      vertex 0.17364817766692997 -0.9848077530122081 4.8
      vertex 0.4999999999999992 -0.866025403784439 4.8
      vertex 0.4999999999999992 -0.866025403784439 3.6
    endloop
  endfacet
  facet normal -0.6427876096865388 0.7660444431189785 0.0
    outer loop
      vertex 0.4999999999999992 -0.866025403784439 3.6
      vertex 0.4999999999999992 -0.866025403784439 4.8
      vertex 0.7660444431189779 -0.6427876096865395 3.6
    endloop
  endfacet
  facet normal -0.6427876096865388 0.7660444431189785 0.0
    outer loop
      vertex 0.4999999999999992 -0.866025403784439 4.8
      vertex 0.7660444431189779 -0.6427876096865395 4.8
      vertex 0.7660444431189779 -0.6427876096865395 3.6
    endloop
  endfacet
  facet normal -0.8660254037844387 0.5000000000000001 0.0
    outer loop
      vertex 0.7660444431189779 -0.6427876096865395 3.6
      vertex 0.7660444431189779 -0.6427876096865395 4.8
      vertex 0.9396926207859084 -0.3420201433256686 3.6
    endloop
  endfacet
  facet normal -0.8660254037844387 0.5000000000000001 0.0
    outer loop
      vertex 0.7660444431189779 -0.6427876096865395 4.8
      vertex 0.9396926207859084 -0.3420201433256686 4.8
      vertex 0.9396926207859084 -0.3420201433256686 3.6
    endloop
  endfacet
  facet normal -0.984807753012208 0.1736481776669303 0.0
    outer loop
      vertex 0.9396926207859084 -0.3420201433256686 3.6
      vertex 0.9396926207859084 -0.3420201433256686 4.8
      vertex 1.0 0.0 3.6
    endloop
  endfacet
  facet normal -0.984807753012208 0.1736481776669303 0.0
    outer loop
      vertex 0.9396926207859084 -0.3420201433256686 4.8
      vertex 1.0 0.0 4.8
      vertex 1.0 0.0 3.6
    endloop
  endfacet
  facet normal -0.9848077530122081 -0.17364817766693053 0.0
    outer loop
      vertex 1.0 0.0 4.8
      vertex 1.0 0.0 6.0
      vertex 0.9396926207859083 0.34202014332566877 4.8
    endloop
  endfacet
  facet normal -0.9848077530122081 -0.17364817766693053 0.0
    outer loop
      vertex 1.0 0.0 6.0
      vertex 0.9396926207859083 0.34202014332566877 6.0
      vertex 0.9396926207859083 0.34202014332566877 4.8
    endloop
  endfacet
  facet normal -0.8660254037844389 -0.49999999999999956 0.0
    outer loop
      vertex 0.9396926207859083 0.34202014332566877 4.8
      vertex 0.9396926207859083 0.34202014332566877 6.0
      vertex 0.7660444431189782 0.6427876096865393 4.8
    endloop
  endfacet
  facet normal -0.8660254037844389 -0.49999999999999956 0.0
    outer loop
      vertex 0.9396926207859083 0.34202014332566877 6.0
      vertex 0.7660444431189782 0.6427876096865393 6.0
      vertex 0.7660444431189782 0.6427876096865393 4.8
    endloop
  endfacet
  facet normal -0.642787609686539 -0.7660444431189783 0.0
    outer loop
      vertex 0.7660444431189782 0.6427876096865393 4.8
      vertex 0.7660444431189782 0.6427876096865393 6.0
      vertex 0.5000000000000001 0.8660254037844385 4.8
    endloop
  endfacet
  facet normal -0.642787609686539 -0.7660444431189783 0.0
    outer loop
      vertex 0.7660444431189782 0.6427876096865393 6.0
      vertex 0.5000000000000001 0.8660254037844385 6.0
      vertex 0.5000000000000001 0.8660254037844385 4.8
    endloop
  endfacet
  facet normal -0.34202014332566905 -0.9396926207859083 0.0
    outer loop
      vertex 0.5000000000000001 0.8660254037844385 4.8
      vertex 0.5000000000000001 0.8660254037844385 6.0
      vertex 0.17364817766693044 0.984807753012208 4.8
    endloop
  endfacet
  facet normal -0.34202014332566905 -0.9396926207859083 0.0
    outer loop
      vertex 0.5000000000000001 0.8660254037844385 6.0
      vertex 0.17364817766693044 0.984807753012208 6.0
      vertex 0.17364817766693044 0.984807753012208 4.8
    endloop
  endfacet
  facet normal -3.1967597919588986e-16 -1.0 0.0
    outer loop
      vertex 0.17364817766693044 0.984807753012208 4.8
      vertex 0.17364817766693044 0.984807753012208 6.0
      vertex -0.17364817766693033 0.9848077530122081 4.8
    endloop
  endfacet
  facet normal -3.1967597919588986e-16 -1.0 0.0
    outer loop
      vertex 0.17364817766693044 0.984807753012208 6.0
      vertex -0.17364817766693033 0.9848077530122081 6.0
      vertex -0.17364817766693033 0.9848077530122081 4.8
    endloop
  endfacet
  facet normal 0.34202014332566905 -0.9396926207859083 0.0
    outer loop
      vertex -0.17364817766693033 0.9848077530122081 4.8
      vertex -0.17364817766693033 0.9848077530122081 6.0
      vertex -0.4999999999999997 0.8660254037844387 4.8
    endloop
  endfacet
  facet normal 0.34202014332566905 -0.9396926207859083 0.0
    outer loop
      vertex -0.17364817766693033 0.9848077530122081 6.0
      vertex -0.4999999999999997 0.8660254037844387 6.0
      vertex -0.4999999999999997 0.8660254037844387 4.8
    endloop
  endfacet
  facet normal 0.6427876096865388 -0.7660444431189785 0.0
    outer loop
      vertex -0.4999999999999997 0.8660254037844387 4.8
      vertex -0.4999999999999997 0.8660254037844387 6.0
      vertex -0.766044443118978 0.6427876096865395 4.8
    endloop
  endfacet
  facet normal 0.6427876096865388 -0.7660444431189785 0.0
    outer loop
      vertex -0.4999999999999997 0.8660254037844387 6.0
      vertex -0.766044443118978 0.6427876096865395 6.0
      vertex -0.766044443118978 0.6427876096865395 4.8
    endloop
  endfacet
  facet normal 0.8660254037844387 -0.5 0.0
    outer loop
      vertex -0.766044443118978 0.6427876096865395 4.8
      vertex -0.766044443118978 0.6427876096865395 6.0
      vertex -0.9396926207859083 0.34202014332566893 4.8
    endloop
  endfacet
  facet normal 0.8660254037844387 -0.5 0.0
    outer loop
      vertex -0.766044443118978 0.6427876096865395 6.0
      vertex -0.9396926207859083 0.34202014332566893 6.0
      vertex -0.9396926207859083 0.34202014332566893 4.8
    endloop
  endfacet
  facet normal 0.9848077530122081 -0.1736481776669305 0.0
    outer loop
      vertex -0.9396926207859083 0.34202014332566893 4.8
      vertex -0.9396926207859083 0.34202014332566893 6.0
      vertex -1.0 1.2246467991473532e-16 4.8
    endloop
  endfacet
  facet normal 0.9848077530122081 -0.1736481776669305 0.0
    outer loop
      vertex -0.9396926207859083 0.34202014332566893 6.0
      vertex -1.0 1.2246467991473532e-16 6.0
      vertex -1.0 1.2246467991473532e-16 4.8
    endloop
  endfacet
  facet normal 0.9848077530122082 0.17364817766693022 -0.0
    outer loop
      vertex -1.0 1.2246467991473532e-16 4.8
      vertex -1.0 1.2246467991473532e-16 6.0
      vertex -0.9396926207859084 -0.3420201433256687 4.8
    endloop
  endfacet
  facet normal 0.9848077530122082 0.17364817766693022 0.0
    outer loop
      vertex -1.0 1.2246467991473532e-16 6.0
      vertex -0.9396926207859084 -0.3420201433256687 6.0
      vertex -0.9396926207859084 -0.3420201433256687 4.8
    endloop
  endfacet
  facet normal 0.8660254037844388 0.49999999999999967 -0.0
    outer loop
      vertex -0.9396926207859084 -0.3420201433256687 4.8
      vertex -0.9396926207859084 -0.3420201433256687 6.0
      vertex -0.7660444431189785 -0.6427876096865389 4.8
    endloop
  endfacet
  facet normal 0.8660254037844388 0.49999999999999967 0.0
    outer loop
      vertex -0.9396926207859084 -0.3420201433256687 6.0
      vertex -0.7660444431189785 -0.6427876096865389 6.0
      vertex -0.7660444431189785 -0.6427876096865389 4.8
    endloop
  endfacet
  facet normal 0.6427876096865393 0.7660444431189781 -0.0
    outer loop
      vertex -0.7660444431189785 -0.6427876096865389 4.8
      vertex -0.7660444431189785 -0.6427876096865389 6.0
      vertex -0.5000000000000003 -0.8660254037844383 4.8
    endloop
  endfacet
  facet normal 0.6427876096865393 0.7660444431189781 0.0
    outer loop
      vertex -0.7660444431189785 -0.6427876096865389 6.0
      vertex -0.5000000000000003 -0.8660254037844383 6.0
      vertex -0.5000000000000003 -0.8660254037844383 4.8
    endloop
  endfacet
  facet normal 0.34202014332566927 0.9396926207859082 -0.0
    outer loop
      vertex -0.5000000000000003 -0.8660254037844383 4.8
      vertex -0.5000000000000003 -0.8660254037844383 6.0
      vertex -0.17364817766693036 -0.984807753012208 4.8
    endloop
  endfacet
  facet normal 0.34202014332566927 0.9396926207859082 0.0
    outer loop
      vertex -0.5000000000000003 -0.8660254037844383 6.0
      vertex -0.17364817766693036 -0.984807753012208 6.0
      vertex -0.17364817766693036 -0.984807753012208 4.8
    endloop
  endfacet
  facet normal 3.196759791958903e-16 1.0 -0.0
    outer loop
      vertex -0.17364817766693036 -0.984807753012208 4.8
      vertex -0.17364817766693036 -0.984807753012208 6.0
      vertex 0.17364817766692997 -0.9848077530122081 4.8
    endloop
  endfacet
  facet normal 3.196759791958903e-16 1.0 0.0
    outer loop
      vertex -0.17364817766693036 -0.984807753012208 6.0
      vertex 0.17364817766692997 -0.9848077530122081 6.0
      vertex 0.17364817766692997 -0.9848077530122081 4.8
    endloop
  endfacet
  facet normal -0.3420201433256683 0.9396926207859085 0.0
    outer loop
      vertex 0.17364817766692997 -0.9848077530122081 4.8
      vertex 0.17364817766692997 -0.9848077530122081 6.0
      vertex 0.4999999999999992 -0.866025403784439 4.8
    endloop
  endfacet
  facet normal -0.3420201433256683 0.9396926207859085 0.0
    outer loop
      vertex 0.17364817766692997 -0.9848077530122081 6.0
      vertex 0.4999999999999992 -0.866025403784439 6.0
      vertex 0.4999999999999992 -0.866025403784439 4.8
    endloop
  endfacet
  facet normal -0.6427876096865388 0.7660444431189785 0.0
    outer loop
      vertex 0.4999999999999992 -0.866025403784439 4.8
      vertex 0.4999999999999992 -0.866025403784439 6.0
      vertex 0.7660444431189779 -0.6427876096865395 4.8
    endloop
  endfacet
  facet normal -0.6427876096865388 0.7660444431189785 0.0
    outer loop
      vertex 0.4999999999999992 -0.866025403784439 6.0
      vertex 0.7660444431189779 -0.6427876096865395 6.0
      vertex 0.7660444431189779 -0.6427876096865395 4.8
    endloop
  endfacet
  facet normal -0.8660254037844386 0.5000000000000001 0.0
    outer loop
      vertex 0.7660444431189779 -0.6427876096865395 4.8
      vertex 0.7660444431189779 -0.6427876096865395 6.0
      vertex 0.9396926207859084 -0.3420201433256686 4.8
    endloop
  endfacet
  facet normal -0.8660254037844386 0.5000000000000001 0.0
    outer loop
      vertex 0.7660444431189779 -0.6427876096865395 6.0
      vertex 0.9396926207859084 -0.3420201433256686 6.0
      vertex 0.9396926207859084 -0.3420201433256686 4.8
    endloop
  endfacet
  facet normal -0.984807753012208 0.1736481776669303 0.0
    outer loop
      vertex 0.9396926207859084 -0.3420201433256686 4.8
      vertex 0.9396926207859084 -0.3420201433256686 6.0
      vertex 1.0 0.0 4.8
    endloop
  endfacet
  facet normal -0.984807753012208 0.1736481776669303 0.0
    outer loop
      vertex 0.9396926207859084 -0.3420201433256686 6.0
      vertex 1.0 0.0 6.0
      vertex 1.0 0.0 4.8
    endloop
  endfacet
  facet normal 0.984807753012208 0.17364817766693041 0.0
    outer loop
      vertex 0.7517540966287267 0.27361611466053504 0.0
      vertex 0.8 0.0 1.2
      vertex 0.8 0.0 0.0
    endloop
  endfacet
  facet normal 0.984807753012208 0.17364817766693041 -0.0
    outer loop
      vertex 0.7517540966287267 0.27361611466053504 0.0
      vertex 0.7517540966287267 0.27361611466053504 1.2
      vertex 0.8 0.0 1.2
    endloop
  endfacet
  facet normal 0.8660254037844389 0.4999999999999995 0.0
    outer loop
      vertex 0.6128355544951827 0.5142300877492314 0.0
      vertex 0.7517540966287267 0.27361611466053504 1.2
      vertex 0.7517540966287267 0.27361611466053504 0.0
    endloop
  endfacet
  facet normal 0.8660254037844389 0.4999999999999995 -0.0
    outer loop
      vertex 0.6128355544951827 0.5142300877492314 0.0
      vertex 0.6128355544951827 0.5142300877492314 1.2
      vertex 0.7517540966287267 0.27361611466053504 1.2
    endloop
  endfacet
  facet normal 0.642787609686539 0.7660444431189783 0.0
    outer loop
      vertex 0.40000000000000013 0.6928203230275508 0.0
      vertex 0.6128355544951827 0.5142300877492314 1.2
      vertex 0.6128355544951827 0.5142300877492314 0.0
    endloop
  endfacet
  facet normal 0.642787609686539 0.7660444431189783 -0.0
    outer loop
      vertex 0.40000000000000013 0.6928203230275508 0.0
      vertex 0.40000000000000013 0.6928203230275508 1.2
      vertex 0.6128355544951827 0.5142300877492314 1.2
    endloop
  endfacet
  facet normal 0.342020143325669 0.9396926207859083 0.0
    outer loop
      vertex 0.13891854213354435 0.7878462024097664 0.0
      vertex 0.40000000000000013 0.6928203230275508 1.2
      vertex 0.40000000000000013 0.6928203230275508 0.0
    endloop
  endfacet
  facet normal 0.342020143325669 0.9396926207859083 -0.0
    outer loop
      vertex 0.13891854213354435 0.7878462024097664 0.0
      vertex 0.13891854213354435 0.7878462024097664 1.2
      vertex 0.40000000000000013 0.6928203230275508 1.2
    endloop
  endfacet
  facet normal 3.995949739948623e-16 1.0 0.0
    outer loop
      vertex -0.13891854213354426 0.7878462024097665 0.0
      vertex 0.13891854213354435 0.7878462024097664 1.2
      vertex 0.13891854213354435 0.7878462024097664 0.0
    endloop
  endfacet
  facet normal 3.995949739948623e-16 1.0 -0.0
    outer loop
      vertex -0.13891854213354426 0.7878462024097665 0.0
      vertex -0.13891854213354426 0.7878462024097665 1.2
      vertex 0.13891854213354435 0.7878462024097664 1.2
    endloop
  endfacet
  facet normal -0.3420201433256689 0.9396926207859083 0.0
    outer loop
      vertex -0.3999999999999998 0.692820323027551 0.0
      vertex -0.13891854213354426 0.7878462024097665 1.2
      vertex -0.13891854213354426 0.7878462024097665 0.0
    endloop
  endfacet
  facet normal -0.3420201433256689 0.9396926207859083 0.0
    outer loop
      vertex -0.3999999999999998 0.692820323027551 0.0
      vertex -0.3999999999999998 0.692820323027551 1.2
      vertex -0.13891854213354426 0.7878462024097665 1.2
    endloop
  endfacet
  facet normal -0.6427876096865388 0.7660444431189786 0.0
    outer loop
      vertex -0.6128355544951825 0.5142300877492316 0.0
      vertex -0.3999999999999998 0.692820323027551 1.2
      vertex -0.3999999999999998 0.692820323027551 0.0
    endloop
  endfacet
  facet normal -0.6427876096865388 0.7660444431189786 0.0
    outer loop
      vertex -0.6128355544951825 0.5142300877492316 0.0
      vertex -0.6128355544951825 0.5142300877492316 1.2
      vertex -0.3999999999999998 0.692820323027551 1.2
    endloop
  endfacet
  facet normal -0.8660254037844387 0.5 0.0
    outer loop
      vertex -0.7517540966287267 0.27361611466053515 0.0
      vertex -0.6128355544951825 0.5142300877492316 1.2
      vertex -0.6128355544951825 0.5142300877492316 0.0
    endloop
  endfacet
  facet normal -0.8660254037844387 0.5 0.0
    outer loop
      vertex -0.7517540966287267 0.27361611466053515 0.0
      vertex -0.7517540966287267 0.27361611466053515 1.2
      vertex -0.6128355544951825 0.5142300877492316 1.2
    endloop
  endfacet
  facet normal -0.984807753012208 0.17364817766693041 0.0
    outer loop
      vertex -0.8 9.797174393178826e-17 0.0
      vertex -0.7517540966287267 0.27361611466053515 1.2
      vertex -0.7517540966287267 0.27361611466053515 0.0
    endloop
  endfacet
  facet normal -0.984807753012208 0.17364817766693041 0.0
    outer loop
      vertex -0.8 9.797174393178826e-17 0.0
      vertex -0.8 9.797174393178826e-17 1.2
      vertex -0.7517540966287267 0.27361611466053515 1.2
    endloop
  endfacet
  facet normal -0.984807753012208 -0.17364817766692997 0.0
    outer loop
      vertex -0.7517540966287268 -0.273616114660535 0.0
      vertex -0.8 9.797174393178826e-17 1.2
      vertex -0.8 9.797174393178826e-17 0.0
    endloop
  endfacet
  facet normal -0.984807753012208 -0.17364817766692997 0.0
    outer loop
      vertex -0.7517540966287268 -0.273616114660535 0.0
      vertex -0.7517540966287268 -0.273616114660535 1.2
      vertex -0.8 9.797174393178826e-17 1.2
    endloop
  endfacet
  facet normal -0.8660254037844388 -0.49999999999999983 0.0
    outer loop
      vertex -0.6128355544951828 -0.5142300877492312 0.0
      vertex -0.7517540966287268 -0.273616114660535 1.2
      vertex -0.7517540966287268 -0.273616114660535 0.0
    endloop
  endfacet
  facet normal -0.8660254037844388 -0.49999999999999983 0.0
    outer loop
      vertex -0.6128355544951828 -0.5142300877492312 0.0
      vertex -0.6128355544951828 -0.5142300877492312 1.2
      vertex -0.7517540966287268 -0.273616114660535 1.2
    endloop
  endfacet
  facet normal -0.6427876096865394 -0.766044443118978 0.0
    outer loop
      vertex -0.4000000000000003 -0.6928203230275507 0.0
      vertex -0.6128355544951828 -0.5142300877492312 1.2
      vertex -0.6128355544951828 -0.5142300877492312 0.0
    endloop
  endfacet
  facet normal -0.6427876096865394 -0.766044443118978 0.0
    outer loop
      vertex -0.4000000000000003 -0.6928203230275507 0.0
      vertex -0.4000000000000003 -0.6928203230275507 1.2
      vertex -0.6128355544951828 -0.5142300877492312 1.2
    endloop
  endfacet
  facet normal -0.3420201433256691 -0.9396926207859082 0.0
    outer loop
      vertex -0.1389185421335443 -0.7878462024097664 0.0
      vertex -0.4000000000000003 -0.6928203230275507 1.2
      vertex -0.4000000000000003 -0.6928203230275507 0.0
    endloop
  endfacet
  facet normal -0.3420201433256691 -0.9396926207859082 0.0
    outer loop
      vertex -0.1389185421335443 -0.7878462024097664 0.0
      vertex -0.1389185421335443 -0.7878462024097664 1.2
      vertex -0.4000000000000003 -0.6928203230275507 1.2
    endloop
  endfacet
  facet normal -3.995949739948628e-16 -1.0 0.0
    outer loop
      vertex 0.138918542133544 -0.7878462024097665 0.0
      vertex -0.1389185421335443 -0.7878462024097664 1.2
      vertex -0.1389185421335443 -0.7878462024097664 0.0
    endloop
  endfacet
  facet normal -3.995949739948628e-16 -1.0 0.0
    outer loop
      vertex 0.138918542133544 -0.7878462024097665 0.0
      vertex 0.138918542133544 -0.7878462024097665 1.2
      vertex -0.1389185421335443 -0.7878462024097664 1.2
    endloop
  endfacet
  facet normal 0.3420201433256684 -0.9396926207859085 0.0
    outer loop
      vertex 0.3999999999999994 -0.6928203230275513 0.0
      vertex 0.138918542133544 -0.7878462024097665 1.2
      vertex 0.138918542133544 -0.7878462024097665 0.0
    endloop
  endfacet
  facet normal 0.3420201433256684 -0.9396926207859085 0.0
    outer loop
      vertex 0.3999999999999994 -0.6928203230275513 0.0
      vertex 0.3999999999999994 -0.6928203230275513 1.2
      vertex 0.138918542133544 -0.7878462024097665 1.2
    endloop
  endfacet
  facet normal 0.6427876096865388 -0.7660444431189786 0.0
    outer loop
      vertex 0.6128355544951823 -0.5142300877492316 0.0
      vertex 0.3999999999999994 -0.6928203230275513 1.2
      vertex 0.3999999999999994 -0.6928203230275513 0.0
    endloop
  endfacet
  facet normal 0.6427876096865388 -0.7660444431189786 0.0
    outer loop
      vertex 0.6128355544951823 -0.5142300877492316 0.0
      vertex 0.6128355544951823 -0.5142300877492316 1.2
      vertex 0.3999999999999994 -0.6928203230275513 1.2
    endloop
  endfacet
  facet normal 0.8660254037844385 -0.5000000000000001 0.0
    outer loop
      vertex 0.7517540966287268 -0.27361611466053487 0.0
      vertex 0.6128355544951823 -0.5142300877492316 1.2
      vertex 0.6128355544951823 -0.5142300877492316 0.0
    endloop
  endfacet
  facet normal 0.8660254037844385 -0.5000000000000001 0.0
    outer loop
      vertex 0.7517540966287268 -0.27361611466053487 0.0
      vertex 0.7517540966287268 -0.27361611466053487 1.2
      vertex 0.6128355544951823 -0.5142300877492316 1.2
    endloop
  endfacet
  facet normal 0.984807753012208 -0.17364817766693014 0.0
    outer loop
      vertex 0.8 0.0 0.0
      vertex 0.7517540966287268 -0.27361611466053487 1.2
      vertex 0.7517540966287268 -0.27361611466053487 0.0
    endloop
  endfacet
  facet normal 0.984807753012208 -0.17364817766693014 0.0
    outer loop
      vertex 0.8 0.0 0.0
      vertex 0.8 0.0 1.2
      vertex 0.7517540966287268 -0.27361611466053487 1.2
    endloop
  endfacet
  facet normal 0.984807753012208 0.17364817766693041 0.0
    outer loop
      vertex 0.7517540966287267 0.27361611466053504 1.2
      vertex 0.8 0.0 2.4
      vertex 0.8 0.0 1.2
    endloop
  endfacet
  facet normal 0.984807753012208 0.17364817766693041 -0.0
    outer loop
      vertex 0.7517540966287267 0.27361611466053504 1.2
      vertex 0.7517540966287267 0.27361611466053504 2.4
      vertex 0.8 0.0 2.4
    endloop
  endfacet
  facet normal 0.8660254037844389 0.4999999999999995 0.0
    outer loop
      vertex 0.6128355544951827 0.5142300877492314 1.2
      vertex 0.7517540966287267 0.27361611466053504 2.4
      vertex 0.7517540966287267 0.27361611466053504 1.2
    endloop
  endfacet
  facet normal 0.8660254037844389 0.4999999999999995 -0.0
    outer loop
      vertex 0.6128355544951827 0.5142300877492314 1.2
      vertex 0.6128355544951827 0.5142300877492314 2.4
      vertex 0.7517540966287267 0.27361611466053504 2.4
    endloop
  endfacet
  facet normal 0.642787609686539 0.7660444431189783 0.0
    outer loop
      vertex 0.40000000000000013 0.6928203230275508 1.2
      vertex 0.6128355544951827 0.5142300877492314 2.4
      vertex 0.6128355544951827 0.5142300877492314 1.2
    endloop
  endfacet
  facet normal 0.642787609686539 0.7660444431189783 -0.0
    outer loop
      vertex 0.40000000000000013 0.6928203230275508 1.2
      vertex 0.40000000000000013 0.6928203230275508 2.4
      vertex 0.6128355544951827 0.5142300877492314 2.4
    endloop
  endfacet
  facet normal 0.342020143325669 0.9396926207859083 0.0
    outer loop
      vertex 0.13891854213354435 0.7878462024097664 1.2
      vertex 0.40000000000000013 0.6928203230275508 2.4
      vertex 0.40000000000000013 0.6928203230275508 1.2
    endloop
  endfacet
  facet normal 0.342020143325669 0.9396926207859083 -0.0
    outer loop
      vertex 0.13891854213354435 0.7878462024097664 1.2
      vertex 0.13891854213354435 0.7878462024097664 2.4
      vertex 0.40000000000000013 0.6928203230275508 2.4
    endloop
  endfacet
  facet normal 3.995949739948623e-16 1.0 0.0
    outer loop
      vertex -0.13891854213354426 0.7878462024097665 1.2
      vertex 0.13891854213354435 0.7878462024097664 2.4
      vertex 0.13891854213354435 0.7878462024097664 1.2
    endloop
  endfacet
  facet normal 3.995949739948623e-16 1.0 -0.0
    outer loop
      vertex -0.13891854213354426 0.7878462024097665 1.2
      vertex -0.13891854213354426 0.7878462024097665 2.4
      vertex 0.13891854213354435 0.7878462024097664 2.4
    endloop
  endfacet
  facet normal -0.3420201433256689 0.9396926207859083 0.0
    outer loop
      vertex -0.3999999999999998 0.692820323027551 1.2
      vertex -0.13891854213354426 0.7878462024097665 2.4
      vertex -0.13891854213354426 0.7878462024097665 1.2
    endloop
  endfacet
  facet normal -0.3420201433256689 0.9396926207859083 0.0
    outer loop
      vertex -0.3999999999999998 0.692820323027551 1.2
      vertex -0.3999999999999998 0.692820323027551 2.4
      vertex -0.13891854213354426 0.7878462024097665 2.4
    endloop
  endfacet
  facet normal -0.6427876096865388 0.7660444431189786 0.0
    outer loop
      vertex -0.6128355544951825 0.5142300877492316 1.2
      vertex -0.3999999999999998 0.692820323027551 2.4
      vertex -0.3999999999999998 0.692820323027551 1.2
    endloop
  endfacet
  facet normal -0.6427876096865388 0.7660444431189786 0.0
    outer loop
      vertex -0.6128355544951825 0.5142300877492316 1.2
      vertex -0.6128355544951825 0.5142300877492316 2.4
      vertex -0.3999999999999998 0.692820323027551 2.4
    endloop
  endfacet
  facet normal -0.8660254037844387 0.5 0.0
    outer loop
      vertex -0.7517540966287267 0.27361611466053515 1.2
      vertex -0.6128355544951825 0.5142300877492316 2.4
      vertex -0.6128355544951825 0.5142300877492316 1.2
    endloop
  endfacet
  facet normal -0.8660254037844387 0.5 0.0
    outer loop
      vertex -0.7517540966287267 0.27361611466053515 1.2
      vertex -0.7517540966287267 0.27361611466053515 2.4
      vertex -0.6128355544951825 0.5142300877492316 2.4
    endloop
  endfacet
  facet normal -0.984807753012208 0.17364817766693041 0.0
    outer loop
      vertex -0.8 9.797174393178826e-17 1.2
      vertex -0.7517540966287267 0.27361611466053515 2.4
      vertex -0.7517540966287267 0.27361611466053515 1.2
    endloop
  endfacet
  facet normal -0.984807753012208 0.17364817766693041 0.0
    outer loop
      vertex -0.8 9.797174393178826e-17 1.2
      vertex -0.8 9.797174393178826e-17 2.4
      vertex -0.7517540966287267 0.27361611466053515 2.4
    endloop
  endfacet
  facet normal -0.984807753012208 -0.17364817766692997 0.0
    outer loop
      vertex -0.7517540966287268 -0.273616114660535 1.2
      vertex -0.8 9.797174393178826e-17 2.4
      vertex -0.8 9.797174393178826e-17 1.2
    endloop
  endfacet
  facet normal -0.984807753012208 -0.17364817766692997 0.0
    outer loop
      vertex -0.7517540966287268 -0.273616114660535 1.2
      vertex -0.7517540966287268 -0.273616114660535 2.4
      vertex -0.8 9.797174393178826e-17 2.4
    endloop
  endfacet
  facet normal -0.8660254037844388 -0.49999999999999983 0.0
    outer loop
      vertex -0.6128355544951828 -0.5142300877492312 1.2
      vertex -0.7517540966287268 -0.273616114660535 2.4
      vertex -0.7517540966287268 -0.273616114660535 1.2
    endloop
  endfacet
  facet normal -0.8660254037844388 -0.49999999999999983 0.0
    outer loop
      vertex -0.6128355544951828 -0.5142300877492312 1.2
      vertex -0.6128355544951828 -0.5142300877492312 2.4
      vertex -0.7517540966287268 -0.273616114660535 2.4
    endloop
  endfacet
  facet normal -0.6427876096865394 -0.766044443118978 0.0
    outer loop
      vertex -0.4000000000000003 -0.6928203230275507 1.2
      vertex -0.6128355544951828 -0.5142300877492312 2.4
      vertex -0.6128355544951828 -0.5142300877492312 1.2
    endloop
  endfacet
  facet normal -0.6427876096865394 -0.766044443118978 0.0
    outer loop
      vertex -0.4000000000000003 -0.6928203230275507 1.2
      vertex -0.4000000000000003 -0.6928203230275507 2.4
      vertex -0.6128355544951828 -0.5142300877492312 2.4
    endloop
  endfacet
  facet normal -0.3420201433256691 -0.9396926207859082 0.0
    outer loop
      vertex -0.1389185421335443 -0.7878462024097664 1.2
      vertex -0.4000000000000003 -0.6928203230275507 2.4
      vertex -0.4000000000000003 -0.6928203230275507 1.2
    endloop
  endfacet
  facet normal -0.3420201433256691 -0.9396926207859082 0.0
    outer loop
      vertex -0.1389185421335443 -0.7878462024097664 1.2
      vertex -0.1389185421335443 -0.7878462024097664 2.4
      vertex -0.4000000000000003 -0.6928203230275507 2.4
    endloop
  endfacet
  facet normal -3.995949739948628e-16 -1.0 0.0
    outer loop
      vertex 0.138918542133544 -0.7878462024097665 1.2
      vertex -0.1389185421335443 -0.7878462024097664 2.4
      vertex -0.1389185421335443 -0.7878462024097664 1.2
    endloop
  endfacet
  facet normal -3.995949739948628e-16 -1.0 0.0
    outer loop
      vertex 0.138918542133544 -0.7878462024097665 1.2
      vertex 0.138918542133544 -0.7878462024097665 2.4
      vertex -0.1389185421335443 -0.7878462024097664 2.4
    endloop
  endfacet
  facet normal 0.3420201433256684 -0.9396926207859085 0.0
    outer loop
      vertex 0.3999999999999994 -0.6928203230275513 1.2
      vertex 0.138918542133544 -0.7878462024097665 2.4
      vertex 0.138918542133544 -0.7878462024097665 1.2
    endloop
  endfacet
  facet normal 0.3420201433256684 -0.9396926207859085 0.0
    outer loop
      vertex 0.3999999999999994 -0.6928203230275513 1.2
      vertex 0.3999999999999994 -0.6928203230275513 2.4
      vertex 0.138918542133544 -0.7878462024097665 2.4
    endloop
  endfacet
  facet normal 0.6427876096865388 -0.7660444431189786 0.0
    outer loop
      vertex 0.6128355544951823 -0.5142300877492316 1.2
      vertex 0.3999999999999994 -0.6928203230275513 2.4
      vertex 0.3999999999999994 -0.6928203230275513 1.2
    endloop
  endfacet
  facet normal 0.6427876096865388 -0.7660444431189786 0.0
    outer loop
      vertex 0.6128355544951823 -0.5142300877492316 1.2
      vertex 0.6128355544951823 -0.5142300877492316 2.4
      vertex 0.3999999999999994 -0.6928203230275513 2.4
    endloop
  endfacet
  facet normal 0.8660254037844385 -0.5000000000000001 0.0
    outer loop
      vertex 0.7517540966287268 -0.27361611466053487 1.2
      vertex 0.6128355544951823 -0.5142300877492316 2.4
      vertex 0.6128355544951823 -0.5142300877492316 1.2
    endloop
  endfacet
  facet normal 0.8660254037844385 -0.5000000000000001 0.0
    outer loop
      vertex 0.7517540966287268 -0.27361611466053487 1.2
      vertex 0.7517540966287268 -0.27361611466053487 2.4
      vertex 0.6128355544951823 -0.5142300877492316 2.4
    endloop
  endfacet
  facet normal 0.984807753012208 -0.17364817766693014 0.0
    outer loop
      vertex 0.8 0.0 1.2
      vertex 0.7517540966287268 -0.27361611466053487 2.4
      vertex 0.7517540966287268 -0.27361611466053487 1.2
    endloop
  endfacet
  facet normal 0.984807753012208 -0.17364817766693014 0.0
    outer loop
      vertex 0.8 0.0 1.2
      vertex 0.8 0.0 2.4
      vertex 0.7517540966287268 -0.27361611466053487 2.4
    endloop
  endfacet
  facet normal 0.984807753012208 0.17364817766693041 0.0
    outer loop
      vertex 0.7517540966287267 0.27361611466053504 2.4
      vertex 0.8 0.0 3.6
      vertex 0.8 0.0 2.4
    endloop
  endfacet
  facet normal 0.984807753012208 0.17364817766693041 -0.0
    outer loop
      vertex 0.7517540966287267 0.27361611466053504 2.4
      vertex 0.7517540966287267 0.27361611466053504 3.6
      vertex 0.8 0.0 3.6
    endloop
  endfacet
  facet normal 0.8660254037844389 0.4999999999999995 0.0
    outer loop
      vertex 0.6128355544951827 0.5142300877492314 2.4
      vertex 0.7517540966287267 0.27361611466053504 3.6
      vertex 0.7517540966287267 0.27361611466053504 2.4
    endloop
  endfacet
  facet normal 0.8660254037844389 0.4999999999999995 -0.0
    outer loop
      vertex 0.6128355544951827 0.5142300877492314 2.4
      vertex 0.6128355544951827 0.5142300877492314 3.6
      vertex 0.7517540966287267 0.27361611466053504 3.6
    endloop
  endfacet
  facet normal 0.642787609686539 0.7660444431189782 0.0
    outer loop
      vertex 0.40000000000000013 0.6928203230275508 2.4
      vertex 0.6128355544951827 0.5142300877492314 3.6
      vertex 0.6128355544951827 0.5142300877492314 2.4
    endloop
  endfacet
  facet normal 0.642787609686539 0.7660444431189782 -0.0
    outer loop
      vertex 0.40000000000000013 0.6928203230275508 2.4
      vertex 0.40000000000000013 0.6928203230275508 3.6
      vertex 0.6128355544951827 0.5142300877492314 3.6
    endloop
  endfacet
  facet normal 0.342020143325669 0.9396926207859083 0.0
    outer loop
      vertex 0.13891854213354435 0.7878462024097664 2.4
      vertex 0.40000000000000013 0.6928203230275508 3.6
      vertex 0.40000000000000013 0.6928203230275508 2.4
    endloop
  endfacet
  facet normal 0.342020143325669 0.9396926207859083 -0.0
    outer loop
      vertex 0.13891854213354435 0.7878462024097664 2.4
      vertex 0.13891854213354435 0.7878462024097664 3.6
      vertex 0.40000000000000013 0.6928203230275508 3.6
    endloop
  endfacet
  facet normal 3.995949739948623e-16 1.0 0.0
    outer loop
      vertex -0.13891854213354426 0.7878462024097665 2.4
      vertex 0.13891854213354435 0.7878462024097664 3.6
      vertex 0.13891854213354435 0.7878462024097664 2.4
    endloop
  endfacet
  facet normal 3.995949739948623e-16 1.0 -0.0
    outer loop
      vertex -0.13891854213354426 0.7878462024097665 2.4
      vertex -0.13891854213354426 0.7878462024097665 3.6
      vertex 0.13891854213354435 0.7878462024097664 3.6
    endloop
  endfacet
  facet normal -0.3420201433256689 0.9396926207859083 0.0
    outer loop
      vertex -0.3999999999999998 0.692820323027551 2.4
      vertex -0.13891854213354426 0.7878462024097665 3.6
      vertex -0.13891854213354426 0.7878462024097665 2.4
    endloop
  endfacet
  facet normal -0.3420201433256689 0.9396926207859083 0.0
    outer loop
      vertex -0.3999999999999998 0.692820323027551 2.4
      vertex -0.3999999999999998 0.692820323027551 3.6
      vertex -0.13891854213354426 0.7878462024097665 3.6
    endloop
  endfacet
  facet normal -0.6427876096865388 0.7660444431189785 0.0
    outer loop
      vertex -0.6128355544951825 0.5142300877492316 2.4
      vertex -0.3999999999999998 0.692820323027551 3.6
      vertex -0.3999999999999998 0.692820323027551 2.4
    endloop
  endfacet
  facet normal -0.6427876096865388 0.7660444431189785 0.0
    outer loop
      vertex -0.6128355544951825 0.5142300877492316 2.4
      vertex -0.6128355544951825 0.5142300877492316 3.6
      vertex -0.3999999999999998 0.692820323027551 3.6
    endloop
  endfacet
  facet normal -0.8660254037844386 0.49999999999999994 0.0
    outer loop
      vertex -0.7517540966287267 0.27361611466053515 2.4
      vertex -0.6128355544951825 0.5142300877492316 3.6
      vertex -0.6128355544951825 0.5142300877492316 2.4
    endloop
  endfacet
  facet normal -0.8660254037844386 0.49999999999999994 0.0
    outer loop
      vertex -0.7517540966287267 0.27361611466053515 2.4
      vertex -0.7517540966287267 0.27361611466053515 3.6
      vertex -0.6128355544951825 0.5142300877492316 3.6
    endloop
  endfacet
  facet normal -0.984807753012208 0.17364817766693041 0.0
    outer loop
      vertex -0.8 9.797174393178826e-17 2.4
      vertex -0.7517540966287267 0.27361611466053515 3.6
      vertex -0.7517540966287267 0.27361611466053515 2.4
    endloop
  endfacet
  facet normal -0.984807753012208 0.17364817766693041 0.0
    outer loop
      vertex -0.8 9.797174393178826e-17 2.4
      vertex -0.8 9.797174393178826e-17 3.6
      vertex -0.7517540966287267 0.27361611466053515 3.6
    endloop
  endfacet
  facet normal -0.9848077530122082 -0.17364817766693003 0.0
    outer loop
      vertex -0.7517540966287268 -0.273616114660535 2.4
      vertex -0.8 9.797174393178826e-17 3.6
      vertex -0.8 9.797174393178826e-17 2.4
    endloop
  endfacet
  facet normal -0.9848077530122082 -0.17364817766693003 0.0
    outer loop
      vertex -0.7517540966287268 -0.273616114660535 2.4
      vertex -0.7517540966287268 -0.273616114660535 3.6
      vertex -0.8 9.797174393178826e-17 3.6
    endloop
  endfacet
  facet normal -0.8660254037844387 -0.4999999999999998 0.0
    outer loop
      vertex -0.6128355544951828 -0.5142300877492312 2.4
      vertex -0.7517540966287268 -0.273616114660535 3.6
      vertex -0.7517540966287268 -0.273616114660535 2.4
    endloop
  endfacet
  facet normal -0.8660254037844387 -0.4999999999999998 0.0
    outer loop
      vertex -0.6128355544951828 -0.5142300877492312 2.4
      vertex -0.6128355544951828 -0.5142300877492312 3.6
      vertex -0.7517540966287268 -0.273616114660535 3.6
    endloop
  endfacet
  facet normal -0.6427876096865395 -0.766044443118978 0.0
    outer loop
      vertex -0.4000000000000003 -0.6928203230275507 2.4
      vertex -0.6128355544951828 -0.5142300877492312 3.6
      vertex -0.6128355544951828 -0.5142300877492312 2.4
    endloop
  endfacet
  facet normal -0.6427876096865395 -0.766044443118978 0.0
    outer loop
      vertex -0.4000000000000003 -0.6928203230275507 2.4
      vertex -0.4000000000000003 -0.6928203230275507 3.6
      vertex -0.6128355544951828 -0.5142300877492312 3.6
    endloop
  endfacet
  facet normal -0.3420201433256691 -0.9396926207859082 0.0
    outer loop
      vertex -0.1389185421335443 -0.7878462024097664 2.4
      vertex -0.4000000000000003 -0.6928203230275507 3.6
      vertex -0.4000000000000003 -0.6928203230275507 2.4
    endloop
  endfacet
  facet normal -0.3420201433256691 -0.9396926207859082 0.0
    outer loop
      vertex -0.1389185421335443 -0.7878462024097664 2.4
      vertex -0.1389185421335443 -0.7878462024097664 3.6
      vertex -0.4000000000000003 -0.6928203230275507 3.6
    endloop
  endfacet
  facet normal -3.995949739948628e-16 -1.0 0.0
    outer loop
      vertex 0.138918542133544 -0.7878462024097665 2.4
      vertex -0.1389185421335443 -0.7878462024097664 3.6
      vertex -0.1389185421335443 -0.7878462024097664 2.4
    endloop
  endfacet
  facet normal -3.995949739948628e-16 -1.0 0.0
    outer loop
      vertex 0.138918542133544 -0.7878462024097665 2.4
      vertex 0.138918542133544 -0.7878462024097665 3.6
      vertex -0.1389185421335443 -0.7878462024097664 3.6
    endloop
  endfacet
  facet normal 0.3420201433256684 -0.9396926207859085 0.0
    outer loop
      vertex 0.3999999999999994 -0.6928203230275513 2.4
      vertex 0.138918542133544 -0.7878462024097665 3.6
      vertex 0.138918542133544 -0.7878462024097665 2.4
    endloop
  endfacet
  facet normal 0.3420201433256684 -0.9396926207859085 0.0
    outer loop
      vertex 0.3999999999999994 -0.6928203230275513 2.4
      vertex 0.3999999999999994 -0.6928203230275513 3.6
      vertex 0.138918542133544 -0.7878462024097665 3.6
    endloop
  endfacet
  facet normal 0.6427876096865388 -0.7660444431189786 0.0
    outer loop
      vertex 0.6128355544951823 -0.5142300877492316 2.4
      vertex 0.3999999999999994 -0.6928203230275513 3.6
      vertex 0.3999999999999994 -0.6928203230275513 2.4
    endloop
  endfacet
  facet normal 0.6427876096865388 -0.7660444431189786 0.0
    outer loop
      vertex 0.6128355544951823 -0.5142300877492316 2.4
      vertex 0.6128355544951823 -0.5142300877492316 3.6
      vertex 0.3999999999999994 -0.6928203230275513 3.6
    endloop
  endfacet
  facet normal 0.8660254037844385 -0.5000000000000001 0.0
    outer loop
      vertex 0.7517540966287268 -0.27361611466053487 2.4
      vertex 0.6128355544951823 -0.5142300877492316 3.6
      vertex 0.6128355544951823 -0.5142300877492316 2.4
    endloop
  endfacet
  facet normal 0.8660254037844385 -0.5000000000000001 0.0
    outer loop
      vertex 0.7517540966287268 -0.27361611466053487 2.4
      vertex 0.7517540966287268 -0.27361611466053487 3.6
      vertex 0.6128355544951823 -0.5142300877492316 3.6
    endloop
  endfacet
  facet normal 0.984807753012208 -0.17364817766693014 0.0
    outer loop
      vertex 0.8 0.0 2.4
      vertex 0.7517540966287268 -0.27361611466053487 3.6
      vertex 0.7517540966287268 -0.27361611466053487 2.4
    endloop
  endfacet
  facet normal 0.984807753012208 -0.17364817766693014 0.0
    outer loop
      vertex 0.8 0.0 2.4
      vertex 0.8 0.0 3.6
      vertex 0.7517540966287268 -0.27361611466053487 3.6
    endloop
  endfacet
  facet normal 0.984807753012208 0.17364817766693044 0.0
    outer loop
      vertex 0.7517540966287267 0.27361611466053504 3.6
      vertex 0.8 0.0 4.8
      vertex 0.8 0.0 3.6
    endloop
  endfacet
  facet normal 0.984807753012208 0.17364817766693044 -0.0
    outer loop
      vertex 0.7517540966287267 0.27361611466053504 3.6
      vertex 0.7517540966287267 0.27361611466053504 4.8
      vertex 0.8 0.0 4.8
    endloop
  endfacet
  facet normal 0.8660254037844389 0.4999999999999995 0.0
    outer loop
      vertex 0.6128355544951827 0.5142300877492314 3.6
      vertex 0.7517540966287267 0.27361611466053504 4.8
      vertex 0.7517540966287267 0.27361611466053504 3.6
    endloop
  endfacet
  facet normal 0.8660254037844389 0.4999999999999995 -0.0
    outer loop
      vertex 0.6128355544951827 0.5142300877492314 3.6
      vertex 0.6128355544951827 0.5142300877492314 4.8
      vertex 0.7517540966287267 0.27361611466053504 4.8
    endloop
  endfacet
  facet normal 0.642787609686539 0.7660444431189783 0.0
    outer loop
      vertex 0.40000000000000013 0.6928203230275508 3.6
      vertex 0.6128355544951827 0.5142300877492314 4.8
      vertex 0.6128355544951827 0.5142300877492314 3.6
    endloop
  endfacet
  facet normal 0.642787609686539 0.7660444431189783 -0.0
    outer loop
      vertex 0.40000000000000013 0.6928203230275508 3.6
      vertex 0.40000000000000013 0.6928203230275508 4.8
      vertex 0.6128355544951827 0.5142300877492314 4.8
    endloop
  endfacet
  facet normal 0.342020143325669 0.9396926207859083 0.0
    outer loop
      vertex 0.13891854213354435 0.7878462024097664 3.6
      vertex 0.40000000000000013 0.6928203230275508 4.8
      vertex 0.40000000000000013 0.6928203230275508 3.6
    endloop
  endfacet
  facet normal 0.342020143325669 0.9396926207859083 -0.0
    outer loop
      vertex 0.13891854213354435 0.7878462024097664 3.6
      vertex 0.13891854213354435 0.7878462024097664 4.8
      vertex 0.40000000000000013 0.6928203230275508 4.8
    endloop
  endfacet
  facet normal 3.995949739948623e-16 1.0 0.0
    outer loop
      vertex -0.13891854213354426 0.7878462024097665 3.6
      vertex 0.13891854213354435 0.7878462024097664 4.8
      vertex 0.13891854213354435 0.7878462024097664 3.6
    endloop
  endfacet
  facet normal 3.995949739948623e-16 1.0 -0.0
    outer loop
      vertex -0.13891854213354426 0.7878462024097665 3.6
      vertex -0.13891854213354426 0.7878462024097665 4.8
      vertex 0.13891854213354435 0.7878462024097664 4.8
    endloop
  endfacet
  facet normal -0.3420201433256689 0.9396926207859083 0.0
    outer loop
      vertex -0.3999999999999998 0.692820323027551 3.6
      vertex -0.13891854213354426 0.7878462024097665 4.8
      vertex -0.13891854213354426 0.7878462024097665 3.6
    endloop
  endfacet
  facet normal -0.3420201433256689 0.9396926207859083 0.0
    outer loop
      vertex -0.3999999999999998 0.692820323027551 3.6
      vertex -0.3999999999999998 0.692820323027551 4.8
      vertex -0.13891854213354426 0.7878462024097665 4.8
    endloop
  endfacet
  facet normal -0.6427876096865389 0.7660444431189785 0.0
    outer loop
      vertex -0.6128355544951825 0.5142300877492316 3.6
      vertex -0.3999999999999998 0.692820323027551 4.8
      vertex -0.3999999999999998 0.692820323027551 3.6
    endloop
  endfacet
  facet normal -0.6427876096865389 0.7660444431189785 0.0
    outer loop
      vertex -0.6128355544951825 0.5142300877492316 3.6
      vertex -0.6128355544951825 0.5142300877492316 4.8
      vertex -0.3999999999999998 0.692820323027551 4.8
    endloop
  endfacet
  facet normal -0.8660254037844386 0.5 0.0
    outer loop
      vertex -0.7517540966287267 0.27361611466053515 3.6
      vertex -0.6128355544951825 0.5142300877492316 4.8
      vertex -0.6128355544951825 0.5142300877492316 3.6
    endloop
  endfacet
  facet normal -0.8660254037844386 0.5 0.0
    outer loop
      vertex -0.7517540966287267 0.27361611466053515 3.6
      vertex -0.7517540966287267 0.27361611466053515 4.8
      vertex -0.6128355544951825 0.5142300877492316 4.8
    endloop
  endfacet
  facet normal -0.984807753012208 0.17364817766693044 0.0
    outer loop
      vertex -0.8 9.797174393178826e-17 3.6
      vertex -0.7517540966287267 0.27361611466053515 4.8
      vertex -0.7517540966287267 0.27361611466053515 3.6
    endloop
  endfacet
  facet normal -0.984807753012208 0.17364817766693044 0.0
    outer loop
      vertex -0.8 9.797174393178826e-17 3.6
      vertex -0.8 9.797174393178826e-17 4.8
      vertex -0.7517540966287267 0.27361611466053515 4.8
    endloop
  endfacet
  facet normal -0.984807753012208 -0.17364817766693 0.0
    outer loop
      vertex -0.7517540966287268 -0.273616114660535 3.6
      vertex -0.8 9.797174393178826e-17 4.8
      vertex -0.8 9.797174393178826e-17 3.6
    endloop
  endfacet
  facet normal -0.984807753012208 -0.17364817766693 0.0
    outer loop
      vertex -0.7517540966287268 -0.273616114660535 3.6
      vertex -0.7517540966287268 -0.273616114660535 4.8
      vertex -0.8 9.797174393178826e-17 4.8
    endloop
  endfacet
  facet normal -0.8660254037844388 -0.49999999999999983 0.0
    outer loop
      vertex -0.6128355544951828 -0.5142300877492312 3.6
      vertex -0.7517540966287268 -0.273616114660535 4.8
      vertex -0.7517540966287268 -0.273616114660535 3.6
    endloop
  endfacet
  facet normal -0.8660254037844388 -0.49999999999999983 0.0
    outer loop
      vertex -0.6128355544951828 -0.5142300877492312 3.6
      vertex -0.6128355544951828 -0.5142300877492312 4.8
      vertex -0.7517540966287268 -0.273616114660535 4.8
    endloop
  endfacet
  facet normal -0.6427876096865394 -0.766044443118978 0.0
    outer loop
      vertex -0.4000000000000003 -0.6928203230275507 3.6
      vertex -0.6128355544951828 -0.5142300877492312 4.8
      vertex -0.6128355544951828 -0.5142300877492312 3.6
    endloop
  endfacet
  facet normal -0.6427876096865394 -0.766044443118978 0.0
    outer loop
      vertex -0.4000000000000003 -0.6928203230275507 3.6
      vertex -0.4000000000000003 -0.6928203230275507 4.8
      vertex -0.6128355544951828 -0.5142300877492312 4.8
    endloop
  endfacet
  facet normal -0.3420201433256691 -0.9396926207859082 0.0
    outer loop
      vertex -0.1389185421335443 -0.7878462024097664 3.6
      vertex -0.4000000000000003 -0.6928203230275507 4.8
      vertex -0.4000000000000003 -0.6928203230275507 3.6
    endloop
  endfacet
  facet normal -0.3420201433256691 -0.9396926207859082 0.0
    outer loop
      vertex -0.1389185421335443 -0.7878462024097664 3.6
      vertex -0.1389185421335443 -0.7878462024097664 4.8
      vertex -0.4000000000000003 -0.6928203230275507 4.8
    endloop
  endfacet
  facet normal -3.9959497399486276e-16 -1.0 0.0
    outer loop
      vertex 0.138918542133544 -0.7878462024097665 3.6
      vertex -0.1389185421335443 -0.7878462024097664 4.8
      vertex -0.1389185421335443 -0.7878462024097664 3.6
    endloop
  endfacet
  facet normal -3.9959497399486276e-16 -1.0 0.0
    outer loop
      vertex 0.138918542133544 -0.7878462024097665 3.6
      vertex 0.138918542133544 -0.7878462024097665 4.8
      vertex -0.1389185421335443 -0.7878462024097664 4.8
    endloop
  endfacet
  facet normal 0.3420201433256683 -0.9396926207859085 0.0
    outer loop
      vertex 0.3999999999999994 -0.6928203230275513 3.6
      vertex 0.138918542133544 -0.7878462024097665 4.8
      vertex 0.138918542133544 -0.7878462024097665 3.6
    endloop
  endfacet
  facet normal 0.3420201433256683 -0.9396926207859085 0.0
    outer loop
      vertex 0.3999999999999994 -0.6928203230275513 3.6
      vertex 0.3999999999999994 -0.6928203230275513 4.8
      vertex 0.138918542133544 -0.7878462024097665 4.8
    endloop
  endfacet
  facet normal 0.6427876096865388 -0.7660444431189785 0.0
    outer loop
      vertex 0.6128355544951823 -0.5142300877492316 3.6
      vertex 0.3999999999999994 -0.6928203230275513 4.8
      vertex 0.3999999999999994 -0.6928203230275513 3.6
    endloop
  endfacet
  facet normal 0.6427876096865388 -0.7660444431189785 0.0
    outer loop
      vertex 0.6128355544951823 -0.5142300877492316 3.6
      vertex 0.6128355544951823 -0.5142300877492316 4.8
      vertex 0.3999999999999994 -0.6928203230275513 4.8
    endloop
  endfacet
  facet normal 0.8660254037844386 -0.5000000000000001 0.0
    outer loop
      vertex 0.7517540966287268 -0.27361611466053487 3.6
      vertex 0.6128355544951823 -0.5142300877492316 4.8
      vertex 0.6128355544951823 -0.5142300877492316 3.6
    endloop
  endfacet
  facet normal 0.8660254037844386 -0.5000000000000001 0.0
    outer loop
      vertex 0.7517540966287268 -0.27361611466053487 3.6
      vertex 0.7517540966287268 -0.27361611466053487 4.8
      vertex 0.6128355544951823 -0.5142300877492316 4.8
    endloop
  endfacet
  facet normal 0.984807753012208 -0.17364817766693014 0.0
    outer loop
      vertex 0.8 0.0 3.6
      vertex 0.7517540966287268 -0.27361611466053487 4.8
      vertex 0.7517540966287268 -0.27361611466053487 3.6
    endloop
  endfacet
  facet normal 0.984807753012208 -0.17364817766693014 0.0
    outer loop
      vertex 0.8 0.0 3.6
      vertex 0.8 0.0 4.8
      vertex 0.7517540966287268 -0.27361611466053487 4.8
    endloop
  endfacet
  facet normal 0.984807753012208 0.17364817766693041 0.0
    outer loop
      vertex 0.7517540966287267 0.27361611466053504 4.8
      vertex 0.8 0.0 6.0
      vertex 0.8 0.0 4.8
    endloop
  endfacet
  facet normal 0.984807753012208 0.17364817766693041 -0.0
    outer loop
      vertex 0.7517540966287267 0.27361611466053504 4.8
      vertex 0.7517540966287267 0.27361611466053504 6.0
      vertex 0.8 0.0 6.0
    endloop
  endfacet
  facet normal 0.8660254037844389 0.4999999999999995 0.0
    outer loop
      vertex 0.6128355544951827 0.5142300877492314 4.8
      vertex 0.7517540966287267 0.27361611466053504 6.0
      vertex 0.7517540966287267 0.27361611466053504 4.8
    endloop
  endfacet
  facet normal 0.8660254037844389 0.4999999999999995 -0.0
    outer loop
      vertex 0.6128355544951827 0.5142300877492314 4.8
      vertex 0.6128355544951827 0.5142300877492314 6.0
      vertex 0.7517540966287267 0.27361611466053504 6.0
    endloop
  endfacet
  facet normal 0.642787609686539 0.7660444431189782 0.0
    outer loop
      vertex 0.40000000000000013 0.6928203230275508 4.8
      vertex 0.6128355544951827 0.5142300877492314 6.0
      vertex 0.6128355544951827 0.5142300877492314 4.8
    endloop
  endfacet
  facet normal 0.642787609686539 0.7660444431189782 -0.0
    outer loop
      vertex 0.40000000000000013 0.6928203230275508 4.8
      vertex 0.40000000000000013 0.6928203230275508 6.0
      vertex 0.6128355544951827 0.5142300877492314 6.0
    endloop
  endfacet
  facet normal 0.342020143325669 0.9396926207859083 0.0
    outer loop
      vertex 0.13891854213354435 0.7878462024097664 4.8
      vertex 0.40000000000000013 0.6928203230275508 6.0
      vertex 0.40000000000000013 0.6928203230275508 4.8
    endloop
  endfacet
  facet normal 0.342020143325669 0.9396926207859083 -0.0
    outer loop
      vertex 0.13891854213354435 0.7878462024097664 4.8
      vertex 0.13891854213354435 0.7878462024097664 6.0
      vertex 0.40000000000000013 0.6928203230275508 6.0
    endloop
  endfacet
  facet normal 3.995949739948623e-16 1.0 0.0
    outer loop
      vertex -0.13891854213354426 0.7878462024097665 4.8
      vertex 0.13891854213354435 0.7878462024097664 6.0
      vertex 0.13891854213354435 0.7878462024097664 4.8
    endloop
  endfacet
  facet normal 3.995949739948623e-16 1.0 -0.0
    outer loop
      vertex -0.13891854213354426 0.7878462024097665 4.8
      vertex -0.13891854213354426 0.7878462024097665 6.0
      vertex 0.13891854213354435 0.7878462024097664 6.0
    endloop
  endfacet
  facet normal -0.3420201433256689 0.9396926207859083 0.0
    outer loop
      vertex -0.3999999999999998 0.692820323027551 4.8
      vertex -0.13891854213354426 0.7878462024097665 6.0
      vertex -0.13891854213354426 0.7878462024097665 4.8
    endloop
  endfacet
  facet normal -0.3420201433256689 0.9396926207859083 0.0
    outer loop
      vertex -0.3999999999999998 0.692820323027551 4.8
      vertex -0.3999999999999998 0.692820323027551 6.0
      vertex -0.13891854213354426 0.7878462024097665 6.0
    endloop
  endfacet
  facet normal -0.6427876096865388 0.7660444431189785 0.0
    outer loop
      vertex -0.6128355544951825 0.5142300877492316 4.8
      vertex -0.3999999999999998 0.692820323027551 6.0
      vertex -0.3999999999999998 0.692820323027551 4.8
    endloop
  endfacet
  facet normal -0.6427876096865388 0.7660444431189785 0.0
    outer loop
      vertex -0.6128355544951825 0.5142300877492316 4.8
      vertex -0.6128355544951825 0.5142300877492316 6.0
      vertex -0.3999999999999998 0.692820323027551 6.0
    endloop
  endfacet
  facet normal -0.8660254037844386 0.49999999999999994 0.0
    outer loop
      vertex -0.7517540966287267 0.27361611466053515 4.8
      vertex -0.6128355544951825 0.5142300877492316 6.0
      vertex -0.6128355544951825 0.5142300877492316 4.8
    endloop
  endfacet
  facet normal -0.8660254037844386 0.49999999999999994 0.0
    outer loop
      vertex -0.7517540966287267 0.27361611466053515 4.8
      vertex -0.7517540966287267 0.27361611466053515 6.0
      vertex -0.6128355544951825 0.5142300877492316 6.0
    endloop
  endfacet
  facet normal -0.984807753012208 0.17364817766693041 0.0
    outer loop
      vertex -0.8 9.797174393178826e-17 4.8
      vertex -0.7517540966287267 0.27361611466053515 6.0
      vertex -0.7517540966287267 0.27361611466053515 4.8
    endloop
  endfacet
  facet normal -0.984807753012208 0.17364817766693041 0.0
    outer loop
      vertex -0.8 9.797174393178826e-17 4.8
      vertex -0.8 9.797174393178826e-17 6.0
      vertex -0.7517540966287267 0.27361611466053515 6.0
    endloop
  endfacet
  facet normal -0.9848077530122082 -0.17364817766693003 0.0
    outer loop
      vertex -0.7517540966287268 -0.273616114660535 4.8
      vertex -0.8 9.797174393178826e-17 6.0
      vertex -0.8 9.797174393178826e-17 4.8
    endloop
  endfacet
  facet normal -0.9848077530122082 -0.17364817766693003 0.0
    outer loop
      vertex -0.7517540966287268 -0.273616114660535 4.8
      vertex -0.7517540966287268 -0.273616114660535 6.0
      vertex -0.8 9.797174393178826e-17 6.0
    endloop
  endfacet
  facet normal -0.8660254037844387 -0.4999999999999998 0.0
    outer loop
      vertex -0.6128355544951828 -0.5142300877492312 4.8
      vertex -0.7517540966287268 -0.273616114660535 6.0
      vertex -0.7517540966287268 -0.273616114660535 4.8
    endloop
  endfacet
  facet normal -0.8660254037844387 -0.4999999999999998 0.0
    outer loop
      vertex -0.6128355544951828 -0.5142300877492312 4.8
      vertex -0.6128355544951828 -0.5142300877492312 6.0
      vertex -0.7517540966287268 -0.273616114660535 6.0
    endloop
  endfacet
  facet normal -0.6427876096865395 -0.766044443118978 0.0
    outer loop
      vertex -0.4000000000000003 -0.6928203230275507 4.8
      vertex -0.6128355544951828 -0.5142300877492312 6.0
      vertex -0.6128355544951828 -0.5142300877492312 4.8
    endloop
  endfacet
  facet normal -0.6427876096865395 -0.766044443118978 0.0
    outer loop
      vertex -0.4000000000000003 -0.6928203230275507 4.8
      vertex -0.4000000000000003 -0.6928203230275507 6.0
      vertex -0.6128355544951828 -0.5142300877492312 6.0
    endloop
  endfacet
  facet normal -0.3420201433256691 -0.9396926207859082 0.0
    outer loop
      vertex -0.1389185421335443 -0.7878462024097664 4.8
      vertex -0.4000000000000003 -0.6928203230275507 6.0
      vertex -0.4000000000000003 -0.6928203230275507 4.8
    endloop
  endfacet
  facet normal -0.3420201433256691 -0.9396926207859082 0.0
    outer loop
      vertex -0.1389185421335443 -0.7878462024097664 4.8
      vertex -0.1389185421335443 -0.7878462024097664 6.0
      vertex -0.4000000000000003 -0.6928203230275507 6.0
    endloop
  endfacet
  facet normal -3.995949739948628e-16 -1.0 0.0
    outer loop
      vertex 0.138918542133544 -0.7878462024097665 4.8
      vertex -0.1389185421335443 -0.7878462024097664 6.0
      vertex -0.1389185421335443 -0.7878462024097664 4.8
    endloop
  endfacet
  facet normal -3.995949739948628e-16 -1.0 0.0
    outer loop
      vertex 0.138918542133544 -0.7878462024097665 4.8
      vertex 0.138918542133544 -0.7878462024097665 6.0
      vertex -0.1389185421335443 -0.7878462024097664 6.0
    endloop
  endfacet
  facet normal 0.3420201433256684 -0.9396926207859085 0.0
    outer loop
      vertex 0.3999999999999994 -0.6928203230275513 4.8
      vertex 0.138918542133544 -0.7878462024097665 6.0
      vertex 0.138918542133544 -0.7878462024097665 4.8
    endloop
  endfacet
  facet normal 0.3420201433256684 -0.9396926207859085 0.0
    outer loop
      vertex 0.3999999999999994 -0.6928203230275513 4.8
      vertex 0.3999999999999994 -0.6928203230275513 6.0
      vertex 0.138918542133544 -0.7878462024097665 6.0
    endloop
  endfacet
  facet normal 0.6427876096865388 -0.7660444431189786 0.0
    outer loop
      vertex 0.6128355544951823 -0.5142300877492316 4.8
      vertex 0.3999999999999994 -0.6928203230275513 6.0
      vertex 0.3999999999999994 -0.6928203230275513 4.8
    endloop
  endfacet
  facet normal 0.6427876096865388 -0.7660444431189786 0.0
    outer loop
      vertex 0.6128355544951823 -0.5142300877492316 4.8
      vertex 0.6128355544951823 -0.5142300877492316 6.0
      vertex 0.3999999999999994 -0.6928203230275513 6.0
    endloop
  endfacet
  facet normal 0.8660254037844385 -0.5000000000000001 0.0
    outer loop
      vertex 0.7517540966287268 -0.27361611466053487 4.8
      vertex 0.6128355544951823 -0.5142300877492316 6.0
      vertex 0.6128355544951823 -0.5142300877492316 4.8
    endloop
  endfacet
  facet normal 0.8660254037844385 -0.5000000000000001 0.0
    outer loop
      vertex 0.7517540966287268 -0.27361611466053487 4.8
      vertex 0.7517540966287268 -0.27361611466053487 6.0
      vertex 0.6128355544951823 -0.5142300877492316 6.0
    endloop
  endfacet
  facet normal 0.984807753012208 -0.17364817766693014 0.0
    outer loop
      vertex 0.8 0.0 4.8
      vertex 0.7517540966287268 -0.27361611466053487 6.0
      vertex 0.7517540966287268 -0.27361611466053487 4.8
    endloop
  endfacet
  facet normal 0.984807753012208 -0.17364817766693014 0.0
    outer loop
      vertex 0.8 0.0 4.8
      vertex 0.8 0.0 6.0
      vertex 0.7517540966287268 -0.27361611466053487 6.0
    endloop
  endfacet
endsolid hollow_pipe
