solid STL generated by MeshLab
  facet normal  4.333124e-01  9.010023e-01  2.086098e-02
    outer loop
      vertex  -1.295026e+01 -2.643738e+01  6.900000e+01
      vertex  -1.290659e+01 -2.641427e+01  6.709480e+01
      vertex  -1.987257e+01 -2.306239e+01  6.701775e+01
    endloop
  endfacet
  facet normal  1.071328e-01  2.105758e-01  9.716895e-01
    outer loop
      vertex  -1.318408e+01 -6.450141e+00  6.103162e+01
      vertex  -5.744637e+00 -9.037460e+00  6.077209e+01
      vertex  -1.291102e+01 -5.446349e+00  6.078398e+01
    endloop
  endfacet
  facet normal -1.071328e-01 -2.105758e-01 -9.716895e-01
    outer loop
      vertex  -1.318408e+01 -6.450141e+00  6.103162e+01
      vertex  -1.291102e+01 -5.446349e+00  6.078398e+01
      vertex  -5.744637e+00 -9.037460e+00  6.077209e+01
    endloop
  endfacet
  facet normal  9.375492e-01  3.462846e-01 -3.299271e-02
    outer loop
      vertex  -1.987257e+01 -2.306239e+01  6.701775e+01
      vertex  -2.005537e+01 -2.316253e+01  6.077208e+01
      vertex  -2.254986e+01 -1.638409e+01  6.103162e+01
    endloop
  endfacet
  facet normal -9.375492e-01 -3.462846e-01  3.299271e-02
    outer loop
      vertex  -1.987257e+01 -2.306239e+01  6.701775e+01
      vertex  -2.254986e+01 -1.638409e+01  6.103162e+01
      vertex  -2.005537e+01 -2.316253e+01  6.077208e+01
    endloop
  endfacet
  facet normal -4.330963e-01  9.013477e-01 -1.461463e-05
    outer loop
      vertex  -1.970528e+01 -9.051888e+00  6.900000e+01
      vertex  -1.290747e+01 -5.785581e+00  6.709478e+01
      vertex  -1.986239e+01 -9.127412e+00  6.701775e+01
    endloop
  endfacet
  facet normal  4.330963e-01 -9.013477e-01  1.461463e-05
    outer loop
      vertex  -1.970528e+01 -9.051888e+00  6.900000e+01
      vertex  -1.986239e+01 -9.127412e+00  6.701775e+01
      vertex  -1.290747e+01 -5.785581e+00  6.709478e+01
    endloop
  endfacet
  facet normal -8.992924e-01 -4.303546e-01  7.789849e-02
    outer loop
      vertex  -3.250046e+00 -1.581592e+01  6.103162e+01
      vertex  -2.585739e+00 -1.610660e+01  6.709478e+01
      vertex  -5.927407e+00 -9.137610e+00  6.701775e+01
    endloop
  endfacet
  facet normal  8.992924e-01  4.303546e-01 -7.789849e-02
    outer loop
      vertex  -3.250046e+00 -1.581592e+01  6.103162e+01
      vertex  -5.927407e+00 -9.137610e+00  6.701775e+01
      vertex  -2.585739e+00 -1.610660e+01  6.709478e+01
    endloop
  endfacet
  facet normal  2.105751e-01 -1.071325e-01 -9.716896e-01
    outer loop
      vertex  -2.254986e+01 -1.638409e+01  6.103162e+01
      vertex  -2.355365e+01 -1.611102e+01  6.078398e+01
      vertex  -1.996254e+01 -8.944640e+00  6.077209e+01
    endloop
  endfacet
  facet normal -2.105751e-01  1.071325e-01  9.716896e-01
    outer loop
      vertex  -2.254986e+01 -1.638409e+01  6.103162e+01
      vertex  -1.996254e+01 -8.944640e+00  6.077209e+01
      vertex  -2.355365e+01 -1.611102e+01  6.078398e+01
    endloop
  endfacet
  facet normal -3.948348e-01  9.186168e-01 -1.576729e-02
    outer loop
      vertex  -1.891668e+01 -7.817550e+00  3.257175e+01
      vertex  -1.332134e+01 -5.315345e+00  3.823748e+01
      vertex  -1.322596e+01 -5.369095e+00  3.271751e+01
    endloop
  endfacet
  facet normal -8.932991e-01 -4.430411e-01 -7.570624e-02
    outer loop
      vertex  -2.005537e+01 -2.316253e+01  6.077208e+01
      vertex  -2.355365e+01 -1.611102e+01  6.078398e+01
      vertex  -1.901757e+01 -2.361301e+01  5.116277e+01
    endloop
  endfacet
  facet normal  4.499507e-01  8.914490e-01 -5.350808e-02
    outer loop
      vertex  -1.295026e+01 -2.643738e+01  6.900000e+01
      vertex  -1.987257e+01 -2.306239e+01  6.701775e+01
      vertex  -1.994811e+01 -2.290528e+01  6.900000e+01
    endloop
  endfacet
  facet normal -9.313654e-01 -3.626391e-01 -3.242598e-02
    outer loop
      vertex  -2.361446e+01 -1.622499e+01  5.019520e+01
      vertex  -2.360880e+01 -1.567974e+01  4.393479e+01
      vertex  -2.239424e+01 -1.893307e+01  4.543309e+01
    endloop
  endfacet
  facet normal -9.443781e-01  3.287452e-01  8.764846e-03
    outer loop
      vertex  -2.254986e+01 -1.638409e+01  6.103162e+01
      vertex  -1.996254e+01 -8.944640e+00  6.077209e+01
      vertex  -2.041299e+01 -9.982440e+00  5.116277e+01
    endloop
  endfacet
  facet normal  9.443781e-01 -3.287452e-01 -8.764846e-03
    outer loop
      vertex  -2.254986e+01 -1.638409e+01  6.103162e+01
      vertex  -2.041299e+01 -9.982440e+00  5.116277e+01
      vertex  -1.996254e+01 -8.944640e+00  6.077209e+01
    endloop
  endfacet
  facet normal -9.641126e-01  2.652268e-01 -1.190113e-02
    outer loop
      vertex  -1.261592e+01 -2.574994e+01  6.103162e+01
      vertex  -1.277500e+01 -2.681445e+01  5.019521e+01
      vertex  -1.288898e+01 -2.675364e+01  6.078398e+01
    endloop
  endfacet
  facet normal -9.638957e-01  2.658665e-01  1.483374e-02
    outer loop
      vertex  -1.318408e+01 -6.450141e+00  6.103162e+01
      vertex  -1.290747e+01 -5.785581e+00  6.709478e+01
      vertex  -1.291102e+01 -5.446349e+00  6.078398e+01
    endloop
  endfacet
  facet normal  9.638957e-01 -2.658665e-01 -1.483374e-02
    outer loop
      vertex  -1.318408e+01 -6.450141e+00  6.103162e+01
      vertex  -1.291102e+01 -5.446349e+00  6.078398e+01
      vertex  -1.290747e+01 -5.785581e+00  6.709478e+01
    endloop
  endfacet
  facet normal  9.017009e-01  4.323590e-01 -1.028800e-03
    outer loop
      vertex  -2.585739e+00 -1.610660e+01  6.709478e+01
      vertex  -5.927407e+00 -9.137610e+00  6.701775e+01
      vertex  -2.562630e+00 -1.615026e+01  6.900000e+01
    endloop
  endfacet
  facet normal -9.017009e-01 -4.323590e-01  1.028800e-03
    outer loop
      vertex  -2.585739e+00 -1.610660e+01  6.709478e+01
      vertex  -2.562630e+00 -1.615026e+01  6.900000e+01
      vertex  -5.927407e+00 -9.137610e+00  6.701775e+01
    endloop
  endfacet
  facet normal -8.956792e-01  4.288320e-01 -1.177364e-01
    outer loop
      vertex  -2.254986e+01 -1.638409e+01  6.103162e+01
      vertex  -2.321441e+01 -1.610747e+01  6.709473e+01
      vertex  -1.986239e+01 -9.127412e+00  6.701775e+01
    endloop
  endfacet
  facet normal -4.334351e-01 -8.995185e-01  5.477706e-02
    outer loop
      vertex  -1.987257e+01 -2.306239e+01  6.701775e+01
      vertex  -1.290659e+01 -2.641427e+01  6.709480e+01
      vertex  -1.994811e+01 -2.290528e+01  6.900000e+01
    endloop
  endfacet
  facet normal -8.998505e-01  4.327382e-01  5.483367e-02
    outer loop
      vertex  -1.970528e+01 -9.051888e+00  6.900000e+01
      vertex  -1.986239e+01 -9.127412e+00  6.701775e+01
      vertex  -2.321441e+01 -1.610747e+01  6.709473e+01
    endloop
  endfacet
  facet normal -8.936768e-01  4.478717e-01  2.743652e-02
    outer loop
      vertex  -1.996254e+01 -8.944640e+00  6.077209e+01
      vertex  -2.355365e+01 -1.611102e+01  6.078398e+01
      vertex  -1.986239e+01 -9.127412e+00  6.701775e+01
    endloop
  endfacet
  facet normal -9.180486e-01 -3.961536e-01 -1.578519e-02
    outer loop
      vertex  -2.115830e+01 -2.214992e+01  3.256515e+01
      vertex  -2.368466e+01 -1.652134e+01  3.823747e+01
      vertex  -2.363091e+01 -1.642595e+01  3.271751e+01
    endloop
  endfacet
  facet normal -4.294635e-01 -8.952520e-01 -1.186794e-01
    outer loop
      vertex  -1.987257e+01 -2.306239e+01  6.701775e+01
      vertex  -1.261592e+01 -2.574994e+01  6.103162e+01
      vertex  -1.290659e+01 -2.641427e+01  6.709480e+01
    endloop
  endfacet
  facet normal  3.355395e-01  5.223914e-01  7.839136e-01
    outer loop
      vertex  -3.250046e+00 -1.581592e+01  6.103162e+01
      vertex  -5.937612e+00 -2.307260e+01  6.701775e+01
      vertex  -2.246348e+00 -1.608898e+01  6.078397e+01
    endloop
  endfacet
  facet normal -3.626483e-01  9.313617e-01 -3.242686e-02
    outer loop
      vertex  -1.573297e+01 -6.605758e+00  4.543309e+01
      vertex  -1.302500e+01 -5.385544e+00  5.019519e+01
      vertex  -1.247974e+01 -5.391200e+00  4.393478e+01
    endloop
  endfacet
  facet normal -9.006602e-01  4.336762e-01 -2.713229e-02
    outer loop
      vertex  -5.837463e+00 -2.325536e+01  6.077209e+01
      vertex  -5.937612e+00 -2.307260e+01  6.701775e+01
      vertex  -2.585739e+00 -1.610660e+01  6.709478e+01
    endloop
  endfacet
  facet normal -9.641188e-01 -2.652041e-01  1.190094e-02
    outer loop
      vertex  -1.288898e+01 -5.446349e+00  6.216018e+00
      vertex  -1.261592e+01 -6.450141e+00  5.968345e+00
      vertex  -1.277500e+01 -5.385544e+00  1.680479e+01
    endloop
  endfacet
  facet normal -4.328196e-01  9.012457e-01 -2.057775e-02
    outer loop
      vertex  -1.290747e+01 -5.785581e+00  6.709478e+01
      vertex  -1.986239e+01 -9.127412e+00  6.701775e+01
      vertex  -1.295026e+01 -5.762630e+00  6.900000e+01
    endloop
  endfacet
  facet normal  4.328196e-01 -9.012457e-01  2.057775e-02
    outer loop
      vertex  -1.290747e+01 -5.785581e+00  6.709478e+01
      vertex  -1.295026e+01 -5.762630e+00  6.900000e+01
      vertex  -1.986239e+01 -9.127412e+00  6.701775e+01
    endloop
  endfacet
  facet normal  4.454871e-01  8.952880e-01 -7.795914e-04
    outer loop
      vertex  -1.290747e+01 -5.785581e+00  6.709478e+01
      vertex  -1.295026e+01 -5.762630e+00  6.900000e+01
      vertex  -5.851887e+00 -9.294715e+00  6.900000e+01
    endloop
  endfacet
  facet normal -1.366217e-01  2.721514e-01  9.525062e-01
    outer loop
      vertex  -1.996254e+01 -8.944640e+00  6.077209e+01
      vertex  -1.318408e+01 -6.450141e+00  6.103162e+01
      vertex  -1.291102e+01 -5.446349e+00  6.078398e+01
    endloop
  endfacet
  facet normal  9.014471e-01 -4.328877e-01  1.140123e-03
    outer loop
      vertex  -2.323737e+01 -1.615026e+01  6.900000e+01
      vertex  -2.321441e+01 -1.610747e+01  6.709473e+01
      vertex  -1.986239e+01 -9.127412e+00  6.701775e+01
    endloop
  endfacet
  facet normal -4.430419e-01  8.932985e-01 -7.570737e-02
    outer loop
      vertex  -2.041299e+01 -9.982440e+00  5.116277e+01
      vertex  -1.996254e+01 -8.944640e+00  6.077209e+01
      vertex  -1.291102e+01 -5.446349e+00  6.078398e+01
    endloop
  endfacet
  facet normal -8.988806e-01 -4.310396e-01 -7.885683e-02
    outer loop
      vertex  -1.987257e+01 -2.306239e+01  6.701775e+01
      vertex  -2.321441e+01 -1.610747e+01  6.709473e+01
      vertex  -2.254986e+01 -1.638409e+01  6.103162e+01
    endloop
  endfacet
  facet normal  8.988806e-01  4.310396e-01  7.885683e-02
    outer loop
      vertex  -1.987257e+01 -2.306239e+01  6.701775e+01
      vertex  -2.254986e+01 -1.638409e+01  6.103162e+01
      vertex  -2.321441e+01 -1.610747e+01  6.709473e+01
    endloop
  endfacet
  facet normal  9.641190e-01 -2.652037e-01 -1.190083e-02
    outer loop
      vertex  -1.318408e+01 -6.450141e+00  6.103162e+01
      vertex  -1.302500e+01 -5.385544e+00  5.019519e+01
      vertex  -1.291102e+01 -5.446349e+00  6.078398e+01
    endloop
  endfacet
  facet normal  4.288320e-01  8.956792e-01 -1.177359e-01
    outer loop
      vertex  -5.927407e+00 -9.137610e+00  6.701775e+01
      vertex  -1.318408e+01 -6.450141e+00  6.103162e+01
      vertex  -1.290747e+01 -5.785581e+00  6.709478e+01
    endloop
  endfacet
  facet normal  9.009945e-01 -4.329820e-01 -2.711813e-02
    outer loop
      vertex  -1.996254e+01 -8.944640e+00  6.077209e+01
      vertex  -1.986239e+01 -9.127412e+00  6.701775e+01
      vertex  -2.321441e+01 -1.610747e+01  6.709473e+01
    endloop
  endfacet
  facet normal -9.016973e-01 -4.323678e-01  8.523150e-05
    outer loop
      vertex  -2.585739e+00 -1.610660e+01  6.709478e+01
      vertex  -5.851887e+00 -9.294715e+00  6.900000e+01
      vertex  -5.927407e+00 -9.137610e+00  6.701775e+01
    endloop
  endfacet
  facet normal  9.016973e-01  4.323678e-01 -8.523150e-05
    outer loop
      vertex  -2.585739e+00 -1.610660e+01  6.709478e+01
      vertex  -5.927407e+00 -9.137610e+00  6.701775e+01
      vertex  -5.851887e+00 -9.294715e+00  6.900000e+01
    endloop
  endfacet
  facet normal  1.366344e-01 -2.721778e-01  9.524968e-01
    outer loop
      vertex  -5.837463e+00 -2.325536e+01  6.077209e+01
      vertex  -1.261592e+01 -2.574994e+01  6.103162e+01
      vertex  -1.288898e+01 -2.675364e+01  6.078398e+01
    endloop
  endfacet
  facet normal  3.224999e-01  9.391404e-01  1.183603e-01
    outer loop
      vertex  -2.005537e+01 -2.316253e+01  6.077208e+01
      vertex  -1.290659e+01 -2.641427e+01  6.709480e+01
      vertex  -1.261592e+01 -2.574994e+01  6.103162e+01
    endloop
  endfacet
  facet normal -4.310380e-01  8.988813e-01 -7.885836e-02
    outer loop
      vertex  -1.318408e+01 -6.450141e+00  6.103162e+01
      vertex  -1.986239e+01 -9.127412e+00  6.701775e+01
      vertex  -1.290747e+01 -5.785581e+00  6.709478e+01
    endloop
  endfacet
  facet normal  4.310380e-01 -8.988813e-01  7.885836e-02
    outer loop
      vertex  -1.318408e+01 -6.450141e+00  6.103162e+01
      vertex  -1.290747e+01 -5.785581e+00  6.709478e+01
      vertex  -1.986239e+01 -9.127412e+00  6.701775e+01
    endloop
  endfacet
  facet normal  2.658774e-01  9.638928e-01 -1.483461e-02
    outer loop
      vertex  -2.254986e+01 -1.638409e+01  6.103162e+01
      vertex  -2.355365e+01 -1.611102e+01  6.078398e+01
      vertex  -2.321441e+01 -1.610747e+01  6.709473e+01
    endloop
  endfacet
  facet normal -2.658774e-01 -9.638928e-01  1.483461e-02
    outer loop
      vertex  -2.254986e+01 -1.638409e+01  6.103162e+01
      vertex  -2.321441e+01 -1.610747e+01  6.709473e+01
      vertex  -2.355365e+01 -1.611102e+01  6.078398e+01
    endloop
  endfacet
  facet normal -4.323600e-01  9.017005e-01  1.027064e-03
    outer loop
      vertex  -1.295026e+01 -2.643738e+01  6.900000e+01
      vertex  -5.937612e+00 -2.307260e+01  6.701775e+01
      vertex  -1.290659e+01 -2.641427e+01  6.709480e+01
    endloop
  endfacet
  facet normal  4.323600e-01 -9.017005e-01 -1.027064e-03
    outer loop
      vertex  -1.295026e+01 -2.643738e+01  6.900000e+01
      vertex  -1.290659e+01 -2.641427e+01  6.709480e+01
      vertex  -5.937612e+00 -2.307260e+01  6.701775e+01
    endloop
  endfacet
  facet normal -9.015946e-01 -4.325807e-01  1.022432e-03
    outer loop
      vertex  -2.585739e+00 -1.610660e+01  6.709478e+01
      vertex  -2.562630e+00 -1.615026e+01  6.900000e+01
      vertex  -5.851887e+00 -9.294715e+00  6.900000e+01
    endloop
  endfacet
  facet normal  9.015946e-01  4.325807e-01 -1.022432e-03
    outer loop
      vertex  -2.585739e+00 -1.610660e+01  6.709478e+01
      vertex  -5.851887e+00 -9.294715e+00  6.900000e+01
      vertex  -2.562630e+00 -1.615026e+01  6.900000e+01
    endloop
  endfacet
  facet normal -1.071422e-01 -2.105918e-01  9.716850e-01
    outer loop
      vertex  -2.005537e+01 -2.316253e+01  6.077208e+01
      vertex  -1.288898e+01 -2.675364e+01  6.078398e+01
      vertex  -1.261592e+01 -2.574994e+01  6.103162e+01
    endloop
  endfacet
  facet normal  1.071422e-01  2.105918e-01 -9.716850e-01
    outer loop
      vertex  -2.005537e+01 -2.316253e+01  6.077208e+01
      vertex  -1.261592e+01 -2.574994e+01  6.103162e+01
      vertex  -1.288898e+01 -2.675364e+01  6.078398e+01
    endloop
  endfacet
  facet normal  8.995194e-01 -4.334330e-01  5.477856e-02
    outer loop
      vertex  -6.094716e+00 -2.314812e+01  6.900000e+01
      vertex  -5.937612e+00 -2.307260e+01  6.701775e+01
      vertex  -2.585739e+00 -1.610660e+01  6.709478e+01
    endloop
  endfacet
  facet normal  5.223968e-01 -3.355321e-01  7.839131e-01
    outer loop
      vertex  -1.987257e+01 -2.306239e+01  6.701775e+01
      vertex  -1.288898e+01 -2.675364e+01  6.078398e+01
      vertex  -1.261592e+01 -2.574994e+01  6.103162e+01
    endloop
  endfacet
  facet normal -3.949305e-01  9.186295e-01 -1.224186e-02
    outer loop
      vertex  -1.891668e+01 -7.817550e+00  3.257175e+01
      vertex  -1.322596e+01 -5.369095e+00  3.271751e+01
      vertex  -1.603541e+01 -6.647605e+00  2.741281e+01
    endloop
  endfacet
  facet normal -4.478709e-01 -8.936771e-01  2.743741e-02
    outer loop
      vertex  -1.987257e+01 -2.306239e+01  6.701775e+01
      vertex  -2.005537e+01 -2.316253e+01  6.077208e+01
      vertex  -1.288898e+01 -2.675364e+01  6.078398e+01
    endloop
  endfacet
  facet normal -8.914499e-01  4.499487e-01 -5.350979e-02
    outer loop
      vertex  -6.094716e+00 -2.314812e+01  6.900000e+01
      vertex  -2.562630e+00 -1.615026e+01  6.900000e+01
      vertex  -5.937612e+00 -2.307260e+01  6.701775e+01
    endloop
  endfacet
  facet normal -4.325810e-01  9.015945e-01  1.020714e-03
    outer loop
      vertex  -1.295026e+01 -2.643738e+01  6.900000e+01
      vertex  -6.094716e+00 -2.314812e+01  6.900000e+01
      vertex  -1.290659e+01 -2.641427e+01  6.709480e+01
    endloop
  endfacet
  facet normal  4.325810e-01 -9.015945e-01 -1.020714e-03
    outer loop
      vertex  -1.295026e+01 -2.643738e+01  6.900000e+01
      vertex  -1.290659e+01 -2.641427e+01  6.709480e+01
      vertex  -6.094716e+00 -2.314812e+01  6.900000e+01
    endloop
  endfacet
  facet normal -9.180470e-01 -3.961449e-01 -1.608587e-02
    outer loop
      vertex  -2.115830e+01 -2.214992e+01  3.256515e+01
      vertex  -2.363091e+01 -1.642595e+01  3.271751e+01
      vertex  -2.235835e+01 -1.915944e+01  2.740777e+01
    endloop
  endfacet
  facet normal  4.478716e-01  8.936769e-01  2.743652e-02
    outer loop
      vertex  -5.927407e+00 -9.137610e+00  6.701775e+01
      vertex  -5.744637e+00 -9.037460e+00  6.077209e+01
      vertex  -1.291102e+01 -5.446349e+00  6.078398e+01
    endloop
  endfacet
  facet normal -8.510308e-01 -5.193950e-01  7.730123e-02
    outer loop
      vertex  -2.361446e+01 -1.622499e+01  5.019520e+01
      vertex  -2.239424e+01 -1.893307e+01  4.543309e+01
      vertex  -1.901757e+01 -2.361301e+01  5.116277e+01
    endloop
  endfacet
  facet normal -8.496339e-01 -5.272673e-01  1.055456e-02
    outer loop
      vertex  -2.361446e+01 -1.622499e+01  5.019520e+01
      vertex  -1.901757e+01 -2.361301e+01  5.116277e+01
      vertex  -2.355365e+01 -1.611102e+01  6.078398e+01
    endloop
  endfacet
  facet normal  4.303551e-01 -8.992918e-01 -7.790210e-02
    outer loop
      vertex  -1.261592e+01 -2.574994e+01  6.103162e+01
      vertex  -5.937612e+00 -2.307260e+01  6.701775e+01
      vertex  -1.290659e+01 -2.641427e+01  6.709480e+01
    endloop
  endfacet
  facet normal -4.303551e-01  8.992918e-01  7.790210e-02
    outer loop
      vertex  -1.261592e+01 -2.574994e+01  6.103162e+01
      vertex  -1.290659e+01 -2.641427e+01  6.709480e+01
      vertex  -5.937612e+00 -2.307260e+01  6.701775e+01
    endloop
  endfacet
  facet normal  4.336782e-01  9.006593e-01 -2.713396e-02
    outer loop
      vertex  -1.987257e+01 -2.306239e+01  6.701775e+01
      vertex  -1.290659e+01 -2.641427e+01  6.709480e+01
      vertex  -2.005537e+01 -2.316253e+01  6.077208e+01
    endloop
  endfacet
  facet normal -5.193980e-01  8.510297e-01  7.729279e-02
    outer loop
      vertex  -2.041299e+01 -9.982440e+00  5.116277e+01
      vertex  -1.302500e+01 -5.385544e+00  5.019519e+01
      vertex  -1.573297e+01 -6.605758e+00  4.543309e+01
    endloop
  endfacet
  facet normal  3.462949e-01 -9.375456e-01  3.298724e-02
    outer loop
      vertex  -5.837463e+00 -2.325536e+01  6.077209e+01
      vertex  -5.937612e+00 -2.307260e+01  6.701775e+01
      vertex  -1.261592e+01 -2.574994e+01  6.103162e+01
    endloop
  endfacet
  facet normal -3.462949e-01  9.375456e-01 -3.298724e-02
    outer loop
      vertex  -5.837463e+00 -2.325536e+01  6.077209e+01
      vertex  -1.261592e+01 -2.574994e+01  6.103162e+01
      vertex  -5.937612e+00 -2.307260e+01  6.701775e+01
    endloop
  endfacet
  facet normal -4.329828e-01 -9.009942e-01 -2.711815e-02
    outer loop
      vertex  -5.927407e+00 -9.137610e+00  6.701775e+01
      vertex  -1.290747e+01 -5.785581e+00  6.709478e+01
      vertex  -5.744637e+00 -9.037460e+00  6.077209e+01
    endloop
  endfacet
  facet normal  9.012451e-01  4.328207e-01  2.058101e-02
    outer loop
      vertex  -2.323737e+01 -1.615026e+01  6.900000e+01
      vertex  -1.987257e+01 -2.306239e+01  6.701775e+01
      vertex  -2.321441e+01 -1.610747e+01  6.709473e+01
    endloop
  endfacet
  facet normal -9.012451e-01 -4.328207e-01 -2.058101e-02
    outer loop
      vertex  -2.323737e+01 -1.615026e+01  6.900000e+01
      vertex  -2.321441e+01 -1.610747e+01  6.709473e+01
      vertex  -1.987257e+01 -2.306239e+01  6.701775e+01
    endloop
  endfacet
  facet normal -8.952878e-01  4.454875e-01 -7.829579e-04
    outer loop
      vertex  -1.970528e+01 -9.051888e+00  6.900000e+01
      vertex  -2.321441e+01 -1.610747e+01  6.709473e+01
      vertex  -2.323737e+01 -1.615026e+01  6.900000e+01
    endloop
  endfacet
  facet normal  8.936766e-01 -4.478720e-01  2.743571e-02
    outer loop
      vertex  -5.837463e+00 -2.325536e+01  6.077209e+01
      vertex  -2.246348e+00 -1.608898e+01  6.078397e+01
      vertex  -5.937612e+00 -2.307260e+01  6.701775e+01
    endloop
  endfacet
  facet normal  2.652143e-01  9.641160e-01 -1.190030e-02
    outer loop
      vertex  -2.254986e+01 -1.638409e+01  6.103162e+01
      vertex  -2.361446e+01 -1.622499e+01  5.019520e+01
      vertex  -2.355365e+01 -1.611102e+01  6.078398e+01
    endloop
  endfacet
  facet normal  8.925292e-01 -4.504934e-01 -2.114960e-02
    outer loop
      vertex  -6.094716e+00 -2.314812e+01  6.900000e+01
      vertex  -2.585739e+00 -1.610660e+01  6.709478e+01
      vertex  -2.562630e+00 -1.615026e+01  6.900000e+01
    endloop
  endfacet
  facet normal  8.939862e-01 -4.448399e-01 -5.390781e-02
    outer loop
      vertex  -1.970528e+01 -9.051888e+00  6.900000e+01
      vertex  -2.323737e+01 -1.615026e+01  6.900000e+01
      vertex  -1.986239e+01 -9.127412e+00  6.701775e+01
    endloop
  endfacet
  facet normal -9.375451e-01 -3.462960e-01 -3.298874e-02
    outer loop
      vertex  -3.250046e+00 -1.581592e+01  6.103162e+01
      vertex  -5.927407e+00 -9.137610e+00  6.701775e+01
      vertex  -5.744637e+00 -9.037460e+00  6.077209e+01
    endloop
  endfacet
  facet normal  9.375451e-01  3.462960e-01  3.298874e-02
    outer loop
      vertex  -3.250046e+00 -1.581592e+01  6.103162e+01
      vertex  -5.744637e+00 -9.037460e+00  6.077209e+01
      vertex  -5.927407e+00 -9.137610e+00  6.701775e+01
    endloop
  endfacet
  facet normal  9.392151e-01 -3.225392e-01  1.176587e-01
    outer loop
      vertex  -2.254986e+01 -1.638409e+01  6.103162e+01
      vertex  -1.996254e+01 -8.944640e+00  6.077209e+01
      vertex  -2.321441e+01 -1.610747e+01  6.709473e+01
    endloop
  endfacet
  facet normal -4.504954e-01 -8.925282e-01 -2.115205e-02
    outer loop
      vertex  -1.295026e+01 -2.643738e+01  6.900000e+01
      vertex  -1.994811e+01 -2.290528e+01  6.900000e+01
      vertex  -1.290659e+01 -2.641427e+01  6.709480e+01
    endloop
  endfacet
  facet normal  2.663816e-01  9.637174e-01  1.701656e-02
    outer loop
      vertex  -3.250046e+00 -1.581592e+01  6.103162e+01
      vertex  -2.585739e+00 -1.610660e+01  6.709478e+01
      vertex  -2.246348e+00 -1.608898e+01  6.078397e+01
    endloop
  endfacet
  facet normal -2.663816e-01 -9.637174e-01 -1.701656e-02
    outer loop
      vertex  -3.250046e+00 -1.581592e+01  6.103162e+01
      vertex  -2.246348e+00 -1.608898e+01  6.078397e+01
      vertex  -2.585739e+00 -1.610660e+01  6.709478e+01
    endloop
  endfacet
  facet normal -3.225394e-01 -9.392150e-01  1.176585e-01
    outer loop
      vertex  -1.318408e+01 -6.450141e+00  6.103162e+01
      vertex  -5.744637e+00 -9.037460e+00  6.077209e+01
      vertex  -1.290747e+01 -5.785581e+00  6.709478e+01
    endloop
  endfacet
  facet normal -2.652269e-01 -9.641126e-01 -1.190087e-02
    outer loop
      vertex  -3.250046e+00 -1.581592e+01  6.103162e+01
      vertex  -2.185545e+00 -1.597500e+01  5.019521e+01
      vertex  -2.246348e+00 -1.608898e+01  6.078397e+01
    endloop
  endfacet
  facet normal -2.721538e-01 -1.366241e-01  9.525052e-01
    outer loop
      vertex  -2.254986e+01 -1.638409e+01  6.103162e+01
      vertex  -2.355365e+01 -1.611102e+01  6.078398e+01
      vertex  -2.005537e+01 -2.316253e+01  6.077208e+01
    endloop
  endfacet
  facet normal -8.917067e-01  4.427229e-01  9.410378e-02
    outer loop
      vertex  -2.254986e+01 -1.638409e+01  6.103162e+01
      vertex  -2.041299e+01 -9.982440e+00  5.116277e+01
      vertex  -2.361446e+01 -1.622499e+01  5.019520e+01
    endloop
  endfacet
  facet normal -4.323686e-01  9.016969e-01  8.607661e-05
    outer loop
      vertex  -6.094716e+00 -2.314812e+01  6.900000e+01
      vertex  -5.937612e+00 -2.307260e+01  6.701775e+01
      vertex  -1.290659e+01 -2.641427e+01  6.709480e+01
    endloop
  endfacet
  facet normal  4.323686e-01 -9.016969e-01 -8.607661e-05
    outer loop
      vertex  -6.094716e+00 -2.314812e+01  6.900000e+01
      vertex  -1.290659e+01 -2.641427e+01  6.709480e+01
      vertex  -5.937612e+00 -2.307260e+01  6.701775e+01
    endloop
  endfacet
  facet normal  8.952531e-01 -4.294622e-01 -1.186772e-01
    outer loop
      vertex  -3.250046e+00 -1.581592e+01  6.103162e+01
      vertex  -2.585739e+00 -1.610660e+01  6.709478e+01
      vertex  -5.937612e+00 -2.307260e+01  6.701775e+01
    endloop
  endfacet
  facet normal -4.328884e-01 -9.014468e-01  1.136743e-03
    outer loop
      vertex  -5.927407e+00 -9.137610e+00  6.701775e+01
      vertex  -1.295026e+01 -5.762630e+00  6.900000e+01
      vertex  -1.290747e+01 -5.785581e+00  6.709478e+01
    endloop
  endfacet
  facet normal  4.327393e-01  8.998501e-01  5.483183e-02
    outer loop
      vertex  -5.927407e+00 -9.137610e+00  6.701775e+01
      vertex  -1.290747e+01 -5.785581e+00  6.709478e+01
      vertex  -5.851887e+00 -9.294715e+00  6.900000e+01
    endloop
  endfacet
  facet normal  4.376987e-01 -8.988844e-01  2.065888e-02
    outer loop
      vertex  -1.970528e+01 -9.051888e+00  6.900000e+01
      vertex  -1.290747e+01 -5.785581e+00  6.709478e+01
      vertex  -1.295026e+01 -5.762630e+00  6.900000e+01
    endloop
  endfacet
  facet normal -4.376987e-01  8.988844e-01 -2.065888e-02
    outer loop
      vertex  -1.970528e+01 -9.051888e+00  6.900000e+01
      vertex  -1.295026e+01 -5.762630e+00  6.900000e+01
      vertex  -1.290747e+01 -5.785581e+00  6.709478e+01
    endloop
  endfacet
  facet normal  2.721890e-01  1.366387e-01  9.524931e-01
    outer loop
      vertex  -3.250046e+00 -1.581592e+01  6.103162e+01
      vertex  -2.246348e+00 -1.608898e+01  6.078397e+01
      vertex  -5.744637e+00 -9.037460e+00  6.077209e+01
    endloop
  endfacet
  facet normal  2.106017e-01 -1.071444e-01  9.716825e-01
    outer loop
      vertex  -5.837463e+00 -2.325536e+01  6.077209e+01
      vertex  -2.246348e+00 -1.608898e+01  6.078397e+01
      vertex  -3.250046e+00 -1.581592e+01  6.103162e+01
    endloop
  endfacet
  facet normal -2.106017e-01  1.071444e-01 -9.716825e-01
    outer loop
      vertex  -5.837463e+00 -2.325536e+01  6.077209e+01
      vertex  -3.250046e+00 -1.581592e+01  6.103162e+01
      vertex  -2.246348e+00 -1.608898e+01  6.078397e+01
    endloop
  endfacet
  facet normal -5.272693e-01  8.496327e-01  1.055454e-02
    outer loop
      vertex  -2.041299e+01 -9.982440e+00  5.116277e+01
      vertex  -1.291102e+01 -5.446349e+00  6.078398e+01
      vertex  -1.302500e+01 -5.385544e+00  5.019519e+01
    endloop
  endfacet
  facet normal  3.462848e-01 -9.375492e-01 -3.298891e-02
    outer loop
      vertex  -1.996254e+01 -8.944640e+00  6.077209e+01
      vertex  -1.318408e+01 -6.450141e+00  6.103162e+01
      vertex  -1.986239e+01 -9.127412e+00  6.701775e+01
    endloop
  endfacet
  facet normal -3.462848e-01  9.375492e-01  3.298891e-02
    outer loop
      vertex  -1.996254e+01 -8.944640e+00  6.077209e+01
      vertex  -1.986239e+01 -9.127412e+00  6.701775e+01
      vertex  -1.318408e+01 -6.450141e+00  6.103162e+01
    endloop
  endfacet
  facet normal  9.637177e-01 -2.663808e-01  1.701410e-02
    outer loop
      vertex  -1.261592e+01 -2.574994e+01  6.103162e+01
      vertex  -1.290659e+01 -2.641427e+01  6.709480e+01
      vertex  -1.288898e+01 -2.675364e+01  6.078398e+01
    endloop
  endfacet
  facet normal -9.637177e-01  2.663808e-01 -1.701410e-02
    outer loop
      vertex  -1.261592e+01 -2.574994e+01  6.103162e+01
      vertex  -1.288898e+01 -2.675364e+01  6.078398e+01
      vertex  -1.290659e+01 -2.641427e+01  6.709480e+01
    endloop
  endfacet
  facet normal -5.224107e-01  3.355050e-01  7.839155e-01
    outer loop
      vertex  -5.927407e+00 -9.137610e+00  6.701775e+01
      vertex  -1.291102e+01 -5.446349e+00  6.078398e+01
      vertex  -1.318408e+01 -6.450141e+00  6.103162e+01
    endloop
  endfacet
  facet normal -4.448395e-01 -8.939866e-01 -5.390612e-02
    outer loop
      vertex  -5.927407e+00 -9.137610e+00  6.701775e+01
      vertex  -5.851887e+00 -9.294715e+00  6.900000e+01
      vertex  -1.295026e+01 -5.762630e+00  6.900000e+01
    endloop
  endfacet
  facet normal -9.391401e-01  3.225014e-01  1.183578e-01
    outer loop
      vertex  -5.837463e+00 -2.325536e+01  6.077209e+01
      vertex  -2.585739e+00 -1.610660e+01  6.709478e+01
      vertex  -3.250046e+00 -1.581592e+01  6.103162e+01
    endloop
  endfacet
  facet normal  9.313614e-01  3.626491e-01 -3.242671e-02
    outer loop
      vertex  -3.405758e+00 -1.326704e+01  4.543309e+01
      vertex  -2.185545e+00 -1.597500e+01  5.019521e+01
      vertex  -2.191200e+00 -1.652026e+01  4.393479e+01
    endloop
  endfacet
  facet normal -9.013472e-01 -4.330973e-01 -2.232170e-05
    outer loop
      vertex  -1.987257e+01 -2.306239e+01  6.701775e+01
      vertex  -1.994811e+01 -2.290528e+01  6.900000e+01
      vertex  -2.321441e+01 -1.610747e+01  6.709473e+01
    endloop
  endfacet
  facet normal  9.013472e-01  4.330973e-01  2.232170e-05
    outer loop
      vertex  -1.987257e+01 -2.306239e+01  6.701775e+01
      vertex  -2.321441e+01 -1.610747e+01  6.709473e+01
      vertex  -1.994811e+01 -2.290528e+01  6.900000e+01
    endloop
  endfacet
  facet normal -9.010032e-01  4.333107e-01  2.085852e-02
    outer loop
      vertex  -2.585739e+00 -1.610660e+01  6.709478e+01
      vertex  -5.937612e+00 -2.307260e+01  6.701775e+01
      vertex  -2.562630e+00 -1.615026e+01  6.900000e+01
    endloop
  endfacet
  facet normal -3.355107e-01 -5.224078e-01  7.839150e-01
    outer loop
      vertex  -2.254986e+01 -1.638409e+01  6.103162e+01
      vertex  -1.986239e+01 -9.127412e+00  6.701775e+01
      vertex  -2.355365e+01 -1.611102e+01  6.078398e+01
    endloop
  endfacet
  facet normal  8.988843e-01  4.376988e-01  2.066212e-02
    outer loop
      vertex  -2.323737e+01 -1.615026e+01  6.900000e+01
      vertex  -1.994811e+01 -2.290528e+01  6.900000e+01
      vertex  -2.321441e+01 -1.610747e+01  6.709473e+01
    endloop
  endfacet
  facet normal -8.988843e-01 -4.376988e-01 -2.066212e-02
    outer loop
      vertex  -2.323737e+01 -1.615026e+01  6.900000e+01
      vertex  -2.321441e+01 -1.610747e+01  6.709473e+01
      vertex  -1.994811e+01 -2.290528e+01  6.900000e+01
    endloop
  endfacet
endsolid vcg
