solid STL generated by MeshLab
  facet normal  9.801729e-02  9.951847e-01 -0.000000e+00
    outer loop
      vertex   0.000000e+00  1.000000e+00 -1.000000e+00
      vertex   0.000000e+00  1.000000e+00  1.000000e+00
      vertex   1.950903e-01  9.807853e-01  1.000000e+00
    endloop
  endfacet
  facet normal  9.801729e-02  9.951847e-01  0.000000e+00
    outer loop
      vertex   0.000000e+00  1.000000e+00 -1.000000e+00
      vertex   1.950903e-01  9.807853e-01  1.000000e+00
      vertex   1.950903e-01  9.807853e-01 -1.000000e+00
    endloop
  endfacet
  facet normal  2.902846e-01  9.569404e-01 -0.000000e+00
    outer loop
      vertex   1.950903e-01  9.807853e-01 -1.000000e+00
      vertex   1.950903e-01  9.807853e-01  1.000000e+00
      vertex   3.826835e-01  9.238795e-01  1.000000e+00
    endloop
  endfacet
  facet normal  2.902846e-01  9.569404e-01  0.000000e+00
    outer loop
      vertex   1.950903e-01  9.807853e-01 -1.000000e+00
      vertex   3.826835e-01  9.238795e-01  1.000000e+00
      vertex   3.826835e-01  9.238795e-01 -1.000000e+00
    endloop
  endfacet
  facet normal  4.713967e-01  8.819213e-01 -0.000000e+00
    outer loop
      vertex   3.826835e-01  9.238795e-01 -1.000000e+00
      vertex   3.826835e-01  9.238795e-01  1.000000e+00
      vertex   5.555702e-01  8.314696e-01  1.000000e+00
    endloop
  endfacet
  facet normal  4.713967e-01  8.819213e-01  0.000000e+00
    outer loop
      vertex   3.826835e-01  9.238795e-01 -1.000000e+00
      vertex   5.555702e-01  8.314696e-01  1.000000e+00
      vertex   5.555702e-01  8.314696e-01 -1.000000e+00
    endloop
  endfacet
  facet normal  6.343933e-01  7.730104e-01 -0.000000e+00
    outer loop
      vertex   5.555702e-01  8.314696e-01 -1.000000e+00
      vertex   5.555702e-01  8.314696e-01  1.000000e+00
      vertex   7.071068e-01  7.071068e-01  1.000000e+00
    endloop
  endfacet
  facet normal  6.343933e-01  7.730104e-01  0.000000e+00
    outer loop
      vertex   5.555702e-01  8.314696e-01 -1.000000e+00
      vertex   7.071068e-01  7.071068e-01  1.000000e+00
      vertex   7.071068e-01  7.071068e-01 -1.000000e+00
    endloop
  endfacet
  facet normal  7.730104e-01  6.343933e-01 -0.000000e+00
    outer loop
      vertex   7.071068e-01  7.071068e-01 -1.000000e+00
      vertex   7.071068e-01  7.071068e-01  1.000000e+00
      vertex   8.314696e-01  5.555702e-01  1.000000e+00
    endloop
  endfacet
  facet normal  7.730104e-01  6.343933e-01  0.000000e+00
    outer loop
      vertex   7.071068e-01  7.071068e-01 -1.000000e+00
      vertex   8.314696e-01  5.555702e-01  1.000000e+00
      vertex   8.314696e-01  5.555702e-01 -1.000000e+00
    endloop
  endfacet
  facet normal  8.819213e-01  4.713967e-01 -0.000000e+00
    outer loop
      vertex   8.314696e-01  5.555702e-01 -1.000000e+00
      vertex   8.314696e-01  5.555702e-01  1.000000e+00
      vertex   9.238795e-01  3.826835e-01  1.000000e+00
    endloop
  endfacet
  facet normal  8.819213e-01  4.713967e-01  0.000000e+00
    outer loop
      vertex   8.314696e-01  5.555702e-01 -1.000000e+00
      vertex   9.238795e-01  3.826835e-01  1.000000e+00
      vertex   9.238795e-01  3.826835e-01 -1.000000e+00
    endloop
  endfacet
  facet normal  9.569404e-01  2.902846e-01 -0.000000e+00
    outer loop
      vertex   9.238795e-01  3.826835e-01 -1.000000e+00
      vertex   9.238795e-01  3.826835e-01  1.000000e+00
      vertex   9.807853e-01  1.950903e-01  1.000000e+00
    endloop
  endfacet
  facet normal  9.569404e-01  2.902846e-01  0.000000e+00
    outer loop
      vertex   9.238795e-01  3.826835e-01 -1.000000e+00
      vertex   9.807853e-01  1.950903e-01  1.000000e+00
      vertex   9.807853e-01  1.950903e-01 -1.000000e+00
    endloop
  endfacet
  facet normal  9.951847e-01  9.801729e-02 -0.000000e+00
    outer loop
      vertex   9.807853e-01  1.950903e-01 -1.000000e+00
      vertex   9.807853e-01  1.950903e-01  1.000000e+00
      vertex   1.000000e+00  0.000000e+00  1.000000e+00
    endloop
  endfacet
  facet normal  9.951847e-01  9.801729e-02  0.000000e+00
    outer loop
      vertex   9.807853e-01  1.950903e-01 -1.000000e+00
      vertex   1.000000e+00  0.000000e+00  1.000000e+00
      vertex   1.000000e+00  0.000000e+00 -1.000000e+00
    endloop
  endfacet
  facet normal  9.951847e-01 -9.801729e-02  0.000000e+00
    outer loop
      vertex   1.000000e+00  0.000000e+00 -1.000000e+00
      vertex   1.000000e+00  0.000000e+00  1.000000e+00
      vertex   9.807853e-01 -1.950903e-01  1.000000e+00
    endloop
  endfacet
  facet normal  9.951847e-01 -9.801729e-02  0.000000e+00
    outer loop
      vertex   1.000000e+00  0.000000e+00 -1.000000e+00
      vertex   9.807853e-01 -1.950903e-01  1.000000e+00
      vertex   9.807853e-01 -1.950903e-01 -1.000000e+00
    endloop
  endfacet
  facet normal  9.569404e-01 -2.902846e-01  0.000000e+00
    outer loop
      vertex   9.807853e-01 -1.950903e-01 -1.000000e+00
      vertex   9.807853e-01 -1.950903e-01  1.000000e+00
      vertex   9.238795e-01 -3.826835e-01  1.000000e+00
    endloop
  endfacet
  facet normal  9.569404e-01 -2.902846e-01  0.000000e+00
    outer loop
      vertex   9.807853e-01 -1.950903e-01 -1.000000e+00
      vertex   9.238795e-01 -3.826835e-01  1.000000e+00
      vertex   9.238795e-01 -3.826835e-01 -1.000000e+00
    endloop
  endfacet
  facet normal  8.819213e-01 -4.713967e-01  0.000000e+00
    outer loop
      vertex   9.238795e-01 -3.826835e-01 -1.000000e+00
      vertex   9.238795e-01 -3.826835e-01  1.000000e+00
      vertex   8.314696e-01 -5.555702e-01  1.000000e+00
    endloop
  endfacet
  facet normal  8.819213e-01 -4.713967e-01  0.000000e+00
    outer loop
      vertex   9.238795e-01 -3.826835e-01 -1.000000e+00
      vertex   8.314696e-01 -5.555702e-01  1.000000e+00
      vertex   8.314696e-01 -5.555702e-01 -1.000000e+00
    endloop
  endfacet
  facet normal  7.730104e-01 -6.343933e-01  0.000000e+00
    outer loop
      vertex   8.314696e-01 -5.555702e-01 -1.000000e+00
      vertex   8.314696e-01 -5.555702e-01  1.000000e+00
      vertex   7.071068e-01 -7.071068e-01  1.000000e+00
    endloop
  endfacet
  facet normal  7.730104e-01 -6.343933e-01  0.000000e+00
    outer loop
      vertex   8.314696e-01 -5.555702e-01 -1.000000e+00
      vertex   7.071068e-01 -7.071068e-01  1.000000e+00
      vertex   7.071068e-01 -7.071068e-01 -1.000000e+00
    endloop
  endfacet
  facet normal  6.343933e-01 -7.730104e-01  0.000000e+00
    outer loop
      vertex   7.071068e-01 -7.071068e-01 -1.000000e+00
      vertex   7.071068e-01 -7.071068e-01  1.000000e+00
      vertex   5.555702e-01 -8.314696e-01  1.000000e+00
    endloop
  endfacet
  facet normal  6.343933e-01 -7.730104e-01  0.000000e+00
    outer loop
      vertex   7.071068e-01 -7.071068e-01 -1.000000e+00
      vertex   5.555702e-01 -8.314696e-01  1.000000e+00
      vertex   5.555702e-01 -8.314696e-01 -1.000000e+00
    endloop
  endfacet
  facet normal  4.713967e-01 -8.819213e-01  0.000000e+00
    outer loop
      vertex   5.555702e-01 -8.314696e-01 -1.000000e+00
      vertex   5.555702e-01 -8.314696e-01  1.000000e+00
      vertex   3.826835e-01 -9.238795e-01  1.000000e+00
    endloop
  endfacet
  facet normal  4.713967e-01 -8.819213e-01  0.000000e+00
    outer loop
      vertex   5.555702e-01 -8.314696e-01 -1.000000e+00
      vertex   3.826835e-01 -9.238795e-01  1.000000e+00
      vertex   3.826835e-01 -9.238795e-01 -1.000000e+00
    endloop
  endfacet
  facet normal  2.902846e-01 -9.569404e-01  0.000000e+00
    outer loop
      vertex   3.826835e-01 -9.238795e-01 -1.000000e+00
      vertex   3.826835e-01 -9.238795e-01  1.000000e+00
      vertex   1.950903e-01 -9.807853e-01  1.000000e+00
    endloop
  endfacet
  facet normal  2.902846e-01 -9.569404e-01  0.000000e+00
    outer loop
      vertex   3.826835e-01 -9.238795e-01 -1.000000e+00
      vertex   1.950903e-01 -9.807853e-01  1.000000e+00
      vertex   1.950903e-01 -9.807853e-01 -1.000000e+00
    endloop
  endfacet
  facet normal  9.801729e-02 -9.951847e-01  0.000000e+00
    outer loop
      vertex   1.950903e-01 -9.807853e-01 -1.000000e+00
      vertex   1.950903e-01 -9.807853e-01  1.000000e+00
      vertex   0.000000e+00 -1.000000e+00  1.000000e+00
    endloop
  endfacet
  facet normal  9.801729e-02 -9.951847e-01  0.000000e+00
    outer loop
      vertex   1.950903e-01 -9.807853e-01 -1.000000e+00
      vertex   0.000000e+00 -1.000000e+00  1.000000e+00
      vertex   0.000000e+00 -1.000000e+00 -1.000000e+00
    endloop
  endfacet
  facet normal -9.801729e-02 -9.951847e-01  0.000000e+00
    outer loop
      vertex   0.000000e+00 -1.000000e+00 -1.000000e+00
      vertex   0.000000e+00 -1.000000e+00  1.000000e+00
      vertex  -1.950903e-01 -9.807853e-01  1.000000e+00
    endloop
  endfacet
  facet normal -9.801729e-02 -9.951847e-01  0.000000e+00
    outer loop
      vertex   0.000000e+00 -1.000000e+00 -1.000000e+00
      vertex  -1.950903e-01 -9.807853e-01  1.000000e+00
      vertex  -1.950903e-01 -9.807853e-01 -1.000000e+00
    endloop
  endfacet
  facet normal -2.902846e-01 -9.569404e-01  0.000000e+00
    outer loop
      vertex  -1.950903e-01 -9.807853e-01 -1.000000e+00
      vertex  -1.950903e-01 -9.807853e-01  1.000000e+00
      vertex  -3.826835e-01 -9.238795e-01  1.000000e+00
    endloop
  endfacet
  facet normal -2.902846e-01 -9.569404e-01  0.000000e+00
    outer loop
      vertex  -1.950903e-01 -9.807853e-01 -1.000000e+00
      vertex  -3.826835e-01 -9.238795e-01  1.000000e+00
      vertex  -3.826835e-01 -9.238795e-01 -1.000000e+00
    endloop
  endfacet
  facet normal -4.713967e-01 -8.819213e-01  0.000000e+00
    outer loop
      vertex  -3.826835e-01 -9.238795e-01 -1.000000e+00
      vertex  -3.826835e-01 -9.238795e-01  1.000000e+00
      vertex  -5.555702e-01 -8.314696e-01  1.000000e+00
    endloop
  endfacet
  facet normal -4.713967e-01 -8.819213e-01  0.000000e+00
    outer loop
      vertex  -3.826835e-01 -9.238795e-01 -1.000000e+00
      vertex  -5.555702e-01 -8.314696e-01  1.000000e+00
      vertex  -5.555702e-01 -8.314696e-01 -1.000000e+00
    endloop
  endfacet
  facet normal -6.343933e-01 -7.730104e-01  0.000000e+00
    outer loop
      vertex  -5.555702e-01 -8.314696e-01 -1.000000e+00
      vertex  -5.555702e-01 -8.314696e-01  1.000000e+00
      vertex  -7.071068e-01 -7.071068e-01  1.000000e+00
    endloop
  endfacet
  facet normal -6.343933e-01 -7.730104e-01  0.000000e+00
    outer loop
      vertex  -5.555702e-01 -8.314696e-01 -1.000000e+00
      vertex  -7.071068e-01 -7.071068e-01  1.000000e+00
      vertex  -7.071068e-01 -7.071068e-01 -1.000000e+00
    endloop
  endfacet
  facet normal -7.730104e-01 -6.343933e-01  0.000000e+00
    outer loop
      vertex  -7.071068e-01 -7.071068e-01 -1.000000e+00
      vertex  -7.071068e-01 -7.071068e-01  1.000000e+00
      vertex  -8.314696e-01 -5.555702e-01  1.000000e+00
    endloop
  endfacet
  facet normal -7.730104e-01 -6.343933e-01  0.000000e+00
    outer loop
      vertex  -7.071068e-01 -7.071068e-01 -1.000000e+00
      vertex  -8.314696e-01 -5.555702e-01  1.000000e+00
      vertex  -8.314696e-01 -5.555702e-01 -1.000000e+00
    endloop
  endfacet
  facet normal -8.819213e-01 -4.713967e-01  0.000000e+00
    outer loop
      vertex  -8.314696e-01 -5.555702e-01 -1.000000e+00
      vertex  -8.314696e-01 -5.555702e-01  1.000000e+00
      vertex  -9.238795e-01 -3.826835e-01  1.000000e+00
    endloop
  endfacet
  facet normal -8.819213e-01 -4.713967e-01  0.000000e+00
    outer loop
      vertex  -8.314696e-01 -5.555702e-01 -1.000000e+00
      vertex  -9.238795e-01 -3.826835e-01  1.000000e+00
      vertex  -9.238795e-01 -3.826835e-01 -1.000000e+00
    endloop
  endfacet
  facet normal -9.569404e-01 -2.902846e-01  0.000000e+00
    outer loop
      vertex  -9.238795e-01 -3.826835e-01 -1.000000e+00
      vertex  -9.238795e-01 -3.826835e-01  1.000000e+00
      vertex  -9.807853e-01 -1.950903e-01  1.000000e+00
    endloop
  endfacet
  facet normal -9.569404e-01 -2.902846e-01  0.000000e+00
    outer loop
      vertex  -9.238795e-01 -3.826835e-01 -1.000000e+00
      vertex  -9.807853e-01 -1.950903e-01  1.000000e+00
      vertex  -9.807853e-01 -1.950903e-01 -1.000000e+00
    endloop
  endfacet
  facet normal -9.951847e-01 -9.801729e-02  0.000000e+00
    outer loop
      vertex  -9.807853e-01 -1.950903e-01 -1.000000e+00
      vertex  -9.807853e-01 -1.950903e-01  1.000000e+00
      vertex  -1.000000e+00  0.000000e+00  1.000000e+00
    endloop
  endfacet
  facet normal -9.951847e-01 -9.801729e-02  0.000000e+00
    outer loop
      vertex  -9.807853e-01 -1.950903e-01 -1.000000e+00
      vertex  -1.000000e+00  0.000000e+00  1.000000e+00
      vertex  -1.000000e+00  0.000000e+00 -1.000000e+00
    endloop
  endfacet
  facet normal -9.951847e-01  9.801729e-02  0.000000e+00
    outer loop
      vertex  -1.000000e+00  0.000000e+00 -1.000000e+00
      vertex  -1.000000e+00  0.000000e+00  1.000000e+00
      vertex  -9.807853e-01  1.950903e-01  1.000000e+00
    endloop
  endfacet
  facet normal -9.951847e-01  9.801729e-02  0.000000e+00
    outer loop
      vertex  -1.000000e+00  0.000000e+00 -1.000000e+00
      vertex  -9.807853e-01  1.950903e-01  1.000000e+00
      vertex  -9.807853e-01  1.950903e-01 -1.000000e+00
    endloop
  endfacet
  facet normal -9.569404e-01  2.902846e-01  0.000000e+00
    outer loop
      vertex  -9.807853e-01  1.950903e-01 -1.000000e+00
      vertex  -9.807853e-01  1.950903e-01  1.000000e+00
      vertex  -9.238795e-01  3.826835e-01  1.000000e+00
    endloop
  endfacet
  facet normal -9.569404e-01  2.902846e-01  0.000000e+00
    outer loop
      vertex  -9.807853e-01  1.950903e-01 -1.000000e+00
      vertex  -9.238795e-01  3.826835e-01  1.000000e+00
      vertex  -9.238795e-01  3.826835e-01 -1.000000e+00
    endloop
  endfacet
  facet normal -8.819213e-01  4.713967e-01  0.000000e+00
    outer loop
      vertex  -9.238795e-01  3.826835e-01 -1.000000e+00
      vertex  -9.238795e-01  3.826835e-01  1.000000e+00
      vertex  -8.314696e-01  5.555702e-01  1.000000e+00
    endloop
  endfacet
  facet normal -8.819213e-01  4.713967e-01  0.000000e+00
    outer loop
      vertex  -9.238795e-01  3.826835e-01 -1.000000e+00
      vertex  -8.314696e-01  5.555702e-01  1.000000e+00
      vertex  -8.314696e-01  5.555702e-01 -1.000000e+00
    endloop
  endfacet
  facet normal -7.730104e-01  6.343933e-01  0.000000e+00
    outer loop
      vertex  -8.314696e-01  5.555702e-01 -1.000000e+00
      vertex  -8.314696e-01  5.555702e-01  1.000000e+00
      vertex  -7.071068e-01  7.071068e-01  1.000000e+00
    endloop
  endfacet
  facet normal -7.730104e-01  6.343933e-01  0.000000e+00
    outer loop
      vertex  -8.314696e-01  5.555702e-01 -1.000000e+00
      vertex  -7.071068e-01  7.071068e-01  1.000000e+00
      vertex  -7.071068e-01  7.071068e-01 -1.000000e+00
    endloop
  endfacet
  facet normal -6.343933e-01  7.730104e-01  0.000000e+00
    outer loop
      vertex  -7.071068e-01  7.071068e-01 -1.000000e+00
      vertex  -7.071068e-01  7.071068e-01  1.000000e+00
      vertex  -5.555702e-01  8.314696e-01  1.000000e+00
    endloop
  endfacet
  facet normal -6.343933e-01  7.730104e-01  0.000000e+00
    outer loop
      vertex  -7.071068e-01  7.071068e-01 -1.000000e+00
      vertex  -5.555702e-01  8.314696e-01  1.000000e+00
      vertex  -5.555702e-01  8.314696e-01 -1.000000e+00
    endloop
  endfacet
  facet normal -4.713967e-01  8.819213e-01  0.000000e+00
    outer loop
      vertex  -5.555702e-01  8.314696e-01 -1.000000e+00
      vertex  -5.555702e-01  8.314696e-01  1.000000e+00
      vertex  -3.826835e-01  9.238795e-01  1.000000e+00
    endloop
  endfacet
  facet normal -4.713967e-01  8.819213e-01  0.000000e+00
    outer loop
      vertex  -5.555702e-01  8.314696e-01 -1.000000e+00
      vertex  -3.826835e-01  9.238795e-01  1.000000e+00
      vertex  -3.826835e-01  9.238795e-01 -1.000000e+00
    endloop
  endfacet
  facet normal  9.951847e-01  9.801729e-02 -2.966885e-08
    outer loop
      vertex   1.000000e+00  0.000000e+00  1.000000e+00
      vertex   9.807853e-01  1.950903e-01  1.000000e+00
      vertex   9.807853e-01  1.950903e-01  3.001601e+00
    endloop
  endfacet
  facet normal  9.951847e-01  9.801698e-02 -0.000000e+00
    outer loop
      vertex   1.000000e+00  0.000000e+00  1.000000e+00
      vertex   9.807853e-01  1.950903e-01  3.001601e+00
      vertex   1.000000e+00  0.000000e+00  3.001601e+00
    endloop
  endfacet
  facet normal -2.902846e-01  9.569404e-01  0.000000e+00
    outer loop
      vertex  -3.826835e-01  9.238795e-01 -1.000000e+00
      vertex  -3.826835e-01  9.238795e-01  1.000000e+00
      vertex  -1.950903e-01  9.807853e-01  1.000000e+00
    endloop
  endfacet
  facet normal -2.902846e-01  9.569404e-01  0.000000e+00
    outer loop
      vertex  -3.826835e-01  9.238795e-01 -1.000000e+00
      vertex  -1.950903e-01  9.807853e-01  1.000000e+00
      vertex  -1.950903e-01  9.807853e-01 -1.000000e+00
    endloop
  endfacet
  facet normal -9.801729e-02  9.951847e-01  0.000000e+00
    outer loop
      vertex  -1.950903e-01  9.807853e-01 -1.000000e+00
      vertex  -1.950903e-01  9.807853e-01  1.000000e+00
      vertex   0.000000e+00  1.000000e+00  1.000000e+00
    endloop
  endfacet
  facet normal -9.801729e-02  9.951847e-01  0.000000e+00
    outer loop
      vertex  -1.950903e-01  9.807853e-01 -1.000000e+00
      vertex   0.000000e+00  1.000000e+00  1.000000e+00
      vertex   0.000000e+00  1.000000e+00 -1.000000e+00
    endloop
  endfacet
  facet normal  0.000000e+00  0.000000e+00 -1.000000e+00
    outer loop
      vertex  -1.950903e-01  9.807853e-01 -1.000000e+00
      vertex   0.000000e+00  1.000000e+00 -1.000000e+00
      vertex   1.950903e-01  9.807853e-01 -1.000000e+00
    endloop
  endfacet
  facet normal  0.000000e+00  0.000000e+00 -1.000000e+00
    outer loop
      vertex   1.950903e-01  9.807853e-01 -1.000000e+00
      vertex   3.826835e-01  9.238795e-01 -1.000000e+00
      vertex   5.555702e-01  8.314696e-01 -1.000000e+00
    endloop
  endfacet
  facet normal  0.000000e+00  0.000000e+00 -1.000000e+00
    outer loop
      vertex   5.555702e-01  8.314696e-01 -1.000000e+00
      vertex   7.071068e-01  7.071068e-01 -1.000000e+00
      vertex   8.314696e-01  5.555702e-01 -1.000000e+00
    endloop
  endfacet
  facet normal  0.000000e+00  0.000000e+00 -1.000000e+00
    outer loop
      vertex   8.314696e-01  5.555702e-01 -1.000000e+00
      vertex   9.238795e-01  3.826835e-01 -1.000000e+00
      vertex   9.807853e-01  1.950903e-01 -1.000000e+00
    endloop
  endfacet
  facet normal  0.000000e+00  0.000000e+00 -1.000000e+00
    outer loop
      vertex   9.807853e-01  1.950903e-01 -1.000000e+00
      vertex   1.000000e+00  0.000000e+00 -1.000000e+00
      vertex   9.807853e-01 -1.950903e-01 -1.000000e+00
    endloop
  endfacet
  facet normal  0.000000e+00  0.000000e+00 -1.000000e+00
    outer loop
      vertex   9.807853e-01 -1.950903e-01 -1.000000e+00
      vertex   9.238795e-01 -3.826835e-01 -1.000000e+00
      vertex   8.314696e-01 -5.555702e-01 -1.000000e+00
    endloop
  endfacet
  facet normal  0.000000e+00  0.000000e+00 -1.000000e+00
    outer loop
      vertex   8.314696e-01 -5.555702e-01 -1.000000e+00
      vertex   7.071068e-01 -7.071068e-01 -1.000000e+00
      vertex   5.555702e-01 -8.314696e-01 -1.000000e+00
    endloop
  endfacet
  facet normal  0.000000e+00  0.000000e+00 -1.000000e+00
    outer loop
      vertex   5.555702e-01 -8.314696e-01 -1.000000e+00
      vertex   3.826835e-01 -9.238795e-01 -1.000000e+00
      vertex   1.950903e-01 -9.807853e-01 -1.000000e+00
    endloop
  endfacet
  facet normal -0.000000e+00  0.000000e+00 -1.000000e+00
    outer loop
      vertex   1.950903e-01 -9.807853e-01 -1.000000e+00
      vertex   0.000000e+00 -1.000000e+00 -1.000000e+00
      vertex  -1.950903e-01 -9.807853e-01 -1.000000e+00
    endloop
  endfacet
  facet normal  0.000000e+00  0.000000e+00 -1.000000e+00
    outer loop
      vertex  -1.950903e-01 -9.807853e-01 -1.000000e+00
      vertex  -3.826835e-01 -9.238795e-01 -1.000000e+00
      vertex  -5.555702e-01 -8.314696e-01 -1.000000e+00
    endloop
  endfacet
  facet normal  0.000000e+00  0.000000e+00 -1.000000e+00
    outer loop
      vertex  -5.555702e-01 -8.314696e-01 -1.000000e+00
      vertex  -7.071068e-01 -7.071068e-01 -1.000000e+00
      vertex  -8.314696e-01 -5.555702e-01 -1.000000e+00
    endloop
  endfacet
  facet normal  0.000000e+00  0.000000e+00 -1.000000e+00
    outer loop
      vertex  -8.314696e-01 -5.555702e-01 -1.000000e+00
      vertex  -9.238795e-01 -3.826835e-01 -1.000000e+00
      vertex  -9.807853e-01 -1.950903e-01 -1.000000e+00
    endloop
  endfacet
  facet normal  0.000000e+00  0.000000e+00 -1.000000e+00
    outer loop
      vertex  -9.807853e-01 -1.950903e-01 -1.000000e+00
      vertex  -1.000000e+00  0.000000e+00 -1.000000e+00
      vertex  -9.807853e-01  1.950903e-01 -1.000000e+00
    endloop
  endfacet
  facet normal  0.000000e+00  0.000000e+00 -1.000000e+00
    outer loop
      vertex  -9.807853e-01  1.950903e-01 -1.000000e+00
      vertex  -9.238795e-01  3.826835e-01 -1.000000e+00
      vertex  -8.314696e-01  5.555702e-01 -1.000000e+00
    endloop
  endfacet
  facet normal  0.000000e+00  0.000000e+00 -1.000000e+00
    outer loop
      vertex  -8.314696e-01  5.555702e-01 -1.000000e+00
      vertex  -7.071068e-01  7.071068e-01 -1.000000e+00
      vertex  -5.555702e-01  8.314696e-01 -1.000000e+00
    endloop
  endfacet
  facet normal  0.000000e+00  0.000000e+00 -1.000000e+00
    outer loop
      vertex  -5.555702e-01  8.314696e-01 -1.000000e+00
      vertex  -3.826835e-01  9.238795e-01 -1.000000e+00
      vertex  -1.950903e-01  9.807853e-01 -1.000000e+00
    endloop
  endfacet
  facet normal  0.000000e+00  0.000000e+00 -1.000000e+00
    outer loop
      vertex  -1.950903e-01  9.807853e-01 -1.000000e+00
      vertex   1.950903e-01  9.807853e-01 -1.000000e+00
      vertex   5.555702e-01  8.314696e-01 -1.000000e+00
    endloop
  endfacet
  facet normal  0.000000e+00  0.000000e+00 -1.000000e+00
    outer loop
      vertex   5.555702e-01  8.314696e-01 -1.000000e+00
      vertex   8.314696e-01  5.555702e-01 -1.000000e+00
      vertex   9.807853e-01  1.950903e-01 -1.000000e+00
    endloop
  endfacet
  facet normal  0.000000e+00 -0.000000e+00 -1.000000e+00
    outer loop
      vertex   9.807853e-01  1.950903e-01 -1.000000e+00
      vertex   9.807853e-01 -1.950903e-01 -1.000000e+00
      vertex   8.314696e-01 -5.555702e-01 -1.000000e+00
    endloop
  endfacet
  facet normal  0.000000e+00  0.000000e+00 -1.000000e+00
    outer loop
      vertex   8.314696e-01 -5.555702e-01 -1.000000e+00
      vertex   5.555702e-01 -8.314696e-01 -1.000000e+00
      vertex   1.950903e-01 -9.807853e-01 -1.000000e+00
    endloop
  endfacet
  facet normal  0.000000e+00  0.000000e+00 -1.000000e+00
    outer loop
      vertex   1.950903e-01 -9.807853e-01 -1.000000e+00
      vertex  -1.950903e-01 -9.807853e-01 -1.000000e+00
      vertex  -5.555702e-01 -8.314696e-01 -1.000000e+00
    endloop
  endfacet
  facet normal  0.000000e+00  0.000000e+00 -1.000000e+00
    outer loop
      vertex  -5.555702e-01 -8.314696e-01 -1.000000e+00
      vertex  -8.314696e-01 -5.555702e-01 -1.000000e+00
      vertex  -9.807853e-01 -1.950903e-01 -1.000000e+00
    endloop
  endfacet
  facet normal  0.000000e+00  0.000000e+00 -1.000000e+00
    outer loop
      vertex  -9.807853e-01 -1.950903e-01 -1.000000e+00
      vertex  -9.807853e-01  1.950903e-01 -1.000000e+00
      vertex  -8.314696e-01  5.555702e-01 -1.000000e+00
    endloop
  endfacet
  facet normal  0.000000e+00  0.000000e+00 -1.000000e+00
    outer loop
      vertex  -8.314696e-01  5.555702e-01 -1.000000e+00
      vertex  -5.555702e-01  8.314696e-01 -1.000000e+00
      vertex  -1.950903e-01  9.807853e-01 -1.000000e+00
    endloop
  endfacet
  facet normal  0.000000e+00  0.000000e+00 -1.000000e+00
    outer loop
      vertex  -1.950903e-01  9.807853e-01 -1.000000e+00
      vertex   5.555702e-01  8.314696e-01 -1.000000e+00
      vertex   9.807853e-01  1.950903e-01 -1.000000e+00
    endloop
  endfacet
  facet normal  0.000000e+00  0.000000e+00 -1.000000e+00
    outer loop
      vertex   9.807853e-01  1.950903e-01 -1.000000e+00
      vertex   8.314696e-01 -5.555702e-01 -1.000000e+00
      vertex   1.950903e-01 -9.807853e-01 -1.000000e+00
    endloop
  endfacet
  facet normal  0.000000e+00  0.000000e+00 -1.000000e+00
    outer loop
      vertex   1.950903e-01 -9.807853e-01 -1.000000e+00
      vertex  -5.555702e-01 -8.314696e-01 -1.000000e+00
      vertex  -9.807853e-01 -1.950903e-01 -1.000000e+00
    endloop
  endfacet
  facet normal  0.000000e+00  0.000000e+00 -1.000000e+00
    outer loop
      vertex  -9.807853e-01 -1.950903e-01 -1.000000e+00
      vertex  -8.314696e-01  5.555702e-01 -1.000000e+00
      vertex  -1.950903e-01  9.807853e-01 -1.000000e+00
    endloop
  endfacet
  facet normal  0.000000e+00  0.000000e+00 -1.000000e+00
    outer loop
      vertex  -1.950903e-01  9.807853e-01 -1.000000e+00
      vertex   9.807853e-01  1.950903e-01 -1.000000e+00
      vertex   1.950903e-01 -9.807853e-01 -1.000000e+00
    endloop
  endfacet
  facet normal  0.000000e+00  0.000000e+00 -1.000000e+00
    outer loop
      vertex   1.950903e-01 -9.807853e-01 -1.000000e+00
      vertex  -9.807853e-01 -1.950903e-01 -1.000000e+00
      vertex  -1.950903e-01  9.807853e-01 -1.000000e+00
    endloop
  endfacet
  facet normal  0.000000e+00  0.000000e+00  1.000000e+00
    outer loop
      vertex   3.826835e-01  9.238795e-01  3.001601e+00
      vertex   1.950904e-01  9.807853e-01  3.001601e+00
      vertex   3.822099e-08  1.000000e+00  3.001601e+00
    endloop
  endfacet
  facet normal  0.000000e+00  0.000000e+00  1.000000e+00
    outer loop
      vertex   3.822099e-08  1.000000e+00  3.001601e+00
      vertex  -1.950903e-01  9.807853e-01  3.001601e+00
      vertex  -3.826834e-01  9.238795e-01  3.001601e+00
    endloop
  endfacet
  facet normal  0.000000e+00  0.000000e+00  1.000000e+00
    outer loop
      vertex  -3.826834e-01  9.238795e-01  3.001601e+00
      vertex  -5.555702e-01  8.314696e-01  3.001601e+00
      vertex  -7.071067e-01  7.071068e-01  3.001601e+00
    endloop
  endfacet
  facet normal  0.000000e+00  0.000000e+00  1.000000e+00
    outer loop
      vertex  -7.071067e-01  7.071068e-01  3.001601e+00
      vertex  -8.314695e-01  5.555702e-01  3.001601e+00
      vertex  -9.238794e-01  3.826835e-01  3.001601e+00
    endloop
  endfacet
  facet normal  0.000000e+00  0.000000e+00  1.000000e+00
    outer loop
      vertex  -9.238794e-01  3.826835e-01  3.001601e+00
      vertex  -9.807852e-01  1.950903e-01  3.001601e+00
      vertex  -9.999999e-01  0.000000e+00  3.001601e+00
    endloop
  endfacet
  facet normal  0.000000e+00  0.000000e+00  1.000000e+00
    outer loop
      vertex  -9.999999e-01  0.000000e+00  3.001601e+00
      vertex  -9.807852e-01 -1.950903e-01  3.001601e+00
      vertex  -9.238794e-01 -3.826835e-01  3.001601e+00
    endloop
  endfacet
  facet normal  0.000000e+00  0.000000e+00  1.000000e+00
    outer loop
      vertex  -9.238794e-01 -3.826835e-01  3.001601e+00
      vertex  -8.314695e-01 -5.555702e-01  3.001601e+00
      vertex  -7.071067e-01 -7.071068e-01  3.001601e+00
    endloop
  endfacet
  facet normal  0.000000e+00  0.000000e+00  1.000000e+00
    outer loop
      vertex  -7.071067e-01 -7.071068e-01  3.001601e+00
      vertex  -5.555702e-01 -8.314696e-01  3.001601e+00
      vertex  -3.826834e-01 -9.238795e-01  3.001601e+00
    endloop
  endfacet
  facet normal  0.000000e+00  0.000000e+00  1.000000e+00
    outer loop
      vertex  -3.826834e-01 -9.238795e-01  3.001601e+00
      vertex  -1.950903e-01 -9.807853e-01  3.001601e+00
      vertex   3.822099e-08 -1.000000e+00  3.001601e+00
    endloop
  endfacet
  facet normal  0.000000e+00  0.000000e+00  1.000000e+00
    outer loop
      vertex   3.822099e-08 -1.000000e+00  3.001601e+00
      vertex   1.950904e-01 -9.807853e-01  3.001601e+00
      vertex   3.826835e-01 -9.238795e-01  3.001601e+00
    endloop
  endfacet
  facet normal  0.000000e+00  0.000000e+00  1.000000e+00
    outer loop
      vertex   3.826835e-01 -9.238795e-01  3.001601e+00
      vertex   5.555703e-01 -8.314696e-01  3.001601e+00
      vertex   7.071068e-01 -7.071068e-01  3.001601e+00
    endloop
  endfacet
  facet normal  0.000000e+00  0.000000e+00  1.000000e+00
    outer loop
      vertex   7.071068e-01 -7.071068e-01  3.001601e+00
      vertex   8.314697e-01 -5.555702e-01  3.001601e+00
      vertex   9.238796e-01 -3.826835e-01  3.001601e+00
    endloop
  endfacet
  facet normal  0.000000e+00  0.000000e+00  1.000000e+00
    outer loop
      vertex   9.238796e-01 -3.826835e-01  3.001601e+00
      vertex   9.807853e-01 -1.950903e-01  3.001601e+00
      vertex   1.000000e+00  0.000000e+00  3.001601e+00
    endloop
  endfacet
  facet normal  0.000000e+00  0.000000e+00  1.000000e+00
    outer loop
      vertex   1.000000e+00  0.000000e+00  3.001601e+00
      vertex   9.807853e-01  1.950903e-01  3.001601e+00
      vertex   9.238796e-01  3.826835e-01  3.001601e+00
    endloop
  endfacet
  facet normal  0.000000e+00  0.000000e+00  1.000000e+00
    outer loop
      vertex   9.238796e-01  3.826835e-01  3.001601e+00
      vertex   8.314697e-01  5.555702e-01  3.001601e+00
      vertex   7.071068e-01  7.071068e-01  3.001601e+00
    endloop
  endfacet
  facet normal  0.000000e+00  0.000000e+00  1.000000e+00
    outer loop
      vertex   7.071068e-01  7.071068e-01  3.001601e+00
      vertex   5.555703e-01  8.314696e-01  3.001601e+00
      vertex   3.826835e-01  9.238795e-01  3.001601e+00
    endloop
  endfacet
  facet normal  0.000000e+00  0.000000e+00  1.000000e+00
    outer loop
      vertex   3.826835e-01  9.238795e-01  3.001601e+00
      vertex   3.822099e-08  1.000000e+00  3.001601e+00
      vertex  -3.826834e-01  9.238795e-01  3.001601e+00
    endloop
  endfacet
  facet normal  0.000000e+00  0.000000e+00  1.000000e+00
    outer loop
      vertex  -3.826834e-01  9.238795e-01  3.001601e+00
      vertex  -7.071067e-01  7.071068e-01  3.001601e+00
      vertex  -9.238794e-01  3.826835e-01  3.001601e+00
    endloop
  endfacet
  facet normal  0.000000e+00  0.000000e+00  1.000000e+00
    outer loop
      vertex  -9.238794e-01  3.826835e-01  3.001601e+00
      vertex  -9.999999e-01  0.000000e+00  3.001601e+00
      vertex  -9.238794e-01 -3.826835e-01  3.001601e+00
    endloop
  endfacet
  facet normal  0.000000e+00  0.000000e+00  1.000000e+00
    outer loop
      vertex  -9.238794e-01 -3.826835e-01  3.001601e+00
      vertex  -7.071067e-01 -7.071068e-01  3.001601e+00
      vertex  -3.826834e-01 -9.238795e-01  3.001601e+00
    endloop
  endfacet
  facet normal -0.000000e+00  0.000000e+00  1.000000e+00
    outer loop
      vertex  -3.826834e-01 -9.238795e-01  3.001601e+00
      vertex   3.822099e-08 -1.000000e+00  3.001601e+00
      vertex   3.826835e-01 -9.238795e-01  3.001601e+00
    endloop
  endfacet
  facet normal  0.000000e+00  0.000000e+00  1.000000e+00
    outer loop
      vertex   3.826835e-01 -9.238795e-01  3.001601e+00
      vertex   7.071068e-01 -7.071068e-01  3.001601e+00
      vertex   9.238796e-01 -3.826835e-01  3.001601e+00
    endloop
  endfacet
  facet normal  0.000000e+00  0.000000e+00  1.000000e+00
    outer loop
      vertex   9.238796e-01 -3.826835e-01  3.001601e+00
      vertex   1.000000e+00  0.000000e+00  3.001601e+00
      vertex   9.238796e-01  3.826835e-01  3.001601e+00
    endloop
  endfacet
  facet normal  0.000000e+00  0.000000e+00  1.000000e+00
    outer loop
      vertex   9.238796e-01  3.826835e-01  3.001601e+00
      vertex   7.071068e-01  7.071068e-01  3.001601e+00
      vertex   3.826835e-01  9.238795e-01  3.001601e+00
    endloop
  endfacet
  facet normal  0.000000e+00  0.000000e+00  1.000000e+00
    outer loop
      vertex   3.826835e-01  9.238795e-01  3.001601e+00
      vertex  -3.826834e-01  9.238795e-01  3.001601e+00
      vertex  -9.238794e-01  3.826835e-01  3.001601e+00
    endloop
  endfacet
  facet normal  0.000000e+00  0.000000e+00  1.000000e+00
    outer loop
      vertex  -9.238794e-01  3.826835e-01  3.001601e+00
      vertex  -9.238794e-01 -3.826835e-01  3.001601e+00
      vertex  -3.826834e-01 -9.238795e-01  3.001601e+00
    endloop
  endfacet
  facet normal  0.000000e+00  0.000000e+00  1.000000e+00
    outer loop
      vertex  -3.826834e-01 -9.238795e-01  3.001601e+00
      vertex   3.826835e-01 -9.238795e-01  3.001601e+00
      vertex   9.238796e-01 -3.826835e-01  3.001601e+00
    endloop
  endfacet
  facet normal  0.000000e+00 -0.000000e+00  1.000000e+00
    outer loop
      vertex   9.238796e-01 -3.826835e-01  3.001601e+00
      vertex   9.238796e-01  3.826835e-01  3.001601e+00
      vertex   3.826835e-01  9.238795e-01  3.001601e+00
    endloop
  endfacet
  facet normal  0.000000e+00  0.000000e+00  1.000000e+00
    outer loop
      vertex   3.826835e-01  9.238795e-01  3.001601e+00
      vertex  -9.238794e-01  3.826835e-01  3.001601e+00
      vertex  -3.826834e-01 -9.238795e-01  3.001601e+00
    endloop
  endfacet
  facet normal  0.000000e+00  0.000000e+00  1.000000e+00
    outer loop
      vertex  -3.826834e-01 -9.238795e-01  3.001601e+00
      vertex   9.238796e-01 -3.826835e-01  3.001601e+00
      vertex   3.826835e-01  9.238795e-01  3.001601e+00
    endloop
  endfacet
  facet normal -9.801729e-02 -9.951847e-01  1.780131e-09
    outer loop
      vertex  -1.950903e-01 -9.807853e-01  1.000000e+00
      vertex   0.000000e+00 -1.000000e+00  1.000000e+00
      vertex   3.822099e-08 -1.000000e+00  3.001601e+00
    endloop
  endfacet
  facet normal -9.801729e-02 -9.951847e-01  2.189105e-09
    outer loop
      vertex  -1.950903e-01 -9.807853e-01  1.000000e+00
      vertex   3.822099e-08 -1.000000e+00  3.001601e+00
      vertex  -1.950903e-01 -9.807853e-01  3.001601e+00
    endloop
  endfacet
  facet normal -9.569403e-01  2.902846e-01  2.848209e-08
    outer loop
      vertex  -9.238795e-01  3.826835e-01  1.000000e+00
      vertex  -9.807853e-01  1.950903e-01  1.000000e+00
      vertex  -9.807852e-01  1.950903e-01  3.001601e+00
    endloop
  endfacet
  facet normal -9.569403e-01  2.902846e-01  2.849624e-08
    outer loop
      vertex  -9.238795e-01  3.826835e-01  1.000000e+00
      vertex  -9.807852e-01  1.950903e-01  3.001601e+00
      vertex  -9.238794e-01  3.826835e-01  3.001601e+00
    endloop
  endfacet
  facet normal  6.343933e-01  7.730104e-01 -1.898806e-08
    outer loop
      vertex   7.071068e-01  7.071068e-01  1.000000e+00
      vertex   5.555702e-01  8.314696e-01  1.000000e+00
      vertex   5.555703e-01  8.314696e-01  3.001601e+00
    endloop
  endfacet
  facet normal  6.343933e-01  7.730104e-01 -1.889127e-08
    outer loop
      vertex   7.071068e-01  7.071068e-01  1.000000e+00
      vertex   5.555703e-01  8.314696e-01  3.001601e+00
      vertex   7.071068e-01  7.071068e-01  3.001601e+00
    endloop
  endfacet
  facet normal  6.343933e-01 -7.730104e-01 -1.898806e-08
    outer loop
      vertex   5.555702e-01 -8.314696e-01  1.000000e+00
      vertex   7.071068e-01 -7.071068e-01  1.000000e+00
      vertex   7.071068e-01 -7.071068e-01  3.001601e+00
    endloop
  endfacet
  facet normal  6.343933e-01 -7.730104e-01 -1.889127e-08
    outer loop
      vertex   5.555702e-01 -8.314696e-01  1.000000e+00
      vertex   7.071068e-01 -7.071068e-01  3.001601e+00
      vertex   5.555703e-01 -8.314696e-01  3.001601e+00
    endloop
  endfacet
  facet normal -8.819213e-01 -4.713967e-01  2.373508e-08
    outer loop
      vertex  -9.238795e-01 -3.826835e-01  1.000000e+00
      vertex  -8.314696e-01 -5.555702e-01  1.000000e+00
      vertex  -8.314695e-01 -5.555702e-01  3.001601e+00
    endloop
  endfacet
  facet normal -8.819213e-01 -4.713967e-01  2.626228e-08
    outer loop
      vertex  -9.238795e-01 -3.826835e-01  1.000000e+00
      vertex  -8.314695e-01 -5.555702e-01  3.001601e+00
      vertex  -9.238794e-01 -3.826835e-01  3.001601e+00
    endloop
  endfacet
  facet normal -2.902846e-01  9.569403e-01  4.747015e-09
    outer loop
      vertex  -1.950903e-01  9.807853e-01  1.000000e+00
      vertex  -3.826835e-01  9.238795e-01  1.000000e+00
      vertex  -3.826834e-01  9.238795e-01  3.001601e+00
    endloop
  endfacet
  facet normal -2.902846e-01  9.569404e-01  6.483178e-09
    outer loop
      vertex  -1.950903e-01  9.807853e-01  1.000000e+00
      vertex  -3.826834e-01  9.238795e-01  3.001601e+00
      vertex  -1.950903e-01  9.807853e-01  3.001601e+00
    endloop
  endfacet
  facet normal  9.951847e-01 -9.801729e-02  0.000000e+00
    outer loop
      vertex   9.807853e-01 -1.950903e-01  1.000000e+00
      vertex   1.000000e+00  0.000000e+00  1.000000e+00
      vertex   1.000000e+00  0.000000e+00  3.001601e+00
    endloop
  endfacet
  facet normal  9.951847e-01 -9.801698e-02 -2.963510e-08
    outer loop
      vertex   9.807853e-01 -1.950903e-01  1.000000e+00
      vertex   1.000000e+00  0.000000e+00  3.001601e+00
      vertex   9.807853e-01 -1.950903e-01  3.001601e+00
    endloop
  endfacet
  facet normal -2.902846e-01 -9.569403e-01  4.747015e-09
    outer loop
      vertex  -3.826835e-01 -9.238795e-01  1.000000e+00
      vertex  -1.950903e-01 -9.807853e-01  1.000000e+00
      vertex  -1.950903e-01 -9.807853e-01  3.001601e+00
    endloop
  endfacet
  facet normal -2.902846e-01 -9.569404e-01  4.322119e-09
    outer loop
      vertex  -3.826835e-01 -9.238795e-01  1.000000e+00
      vertex  -1.950903e-01 -9.807853e-01  3.001601e+00
      vertex  -3.826834e-01 -9.238795e-01  3.001601e+00
    endloop
  endfacet
  facet normal -8.819213e-01  4.713967e-01  2.848209e-08
    outer loop
      vertex  -8.314696e-01  5.555702e-01  1.000000e+00
      vertex  -9.238795e-01  3.826835e-01  1.000000e+00
      vertex  -9.238794e-01  3.826835e-01  3.001601e+00
    endloop
  endfacet
  facet normal -8.819213e-01  4.713967e-01  2.626228e-08
    outer loop
      vertex  -8.314696e-01  5.555702e-01  1.000000e+00
      vertex  -9.238794e-01  3.826835e-01  3.001601e+00
      vertex  -8.314695e-01  5.555702e-01  3.001601e+00
    endloop
  endfacet
  facet normal  7.730104e-01  6.343933e-01 -1.898806e-08
    outer loop
      vertex   8.314696e-01  5.555702e-01  1.000000e+00
      vertex   7.071068e-01  7.071068e-01  1.000000e+00
      vertex   7.071068e-01  7.071068e-01  3.001601e+00
    endloop
  endfacet
  facet normal  7.730104e-01  6.343933e-01 -2.301908e-08
    outer loop
      vertex   8.314696e-01  5.555702e-01  1.000000e+00
      vertex   7.071068e-01  7.071068e-01  3.001601e+00
      vertex   8.314697e-01  5.555702e-01  3.001601e+00
    endloop
  endfacet
  facet normal  4.713967e-01 -8.819213e-01 -1.424105e-08
    outer loop
      vertex   3.826835e-01 -9.238795e-01  1.000000e+00
      vertex   5.555702e-01 -8.314696e-01  1.000000e+00
      vertex   5.555703e-01 -8.314696e-01  3.001601e+00
    endloop
  endfacet
  facet normal  4.713967e-01 -8.819213e-01 -7.018740e-09
    outer loop
      vertex   3.826835e-01 -9.238795e-01  1.000000e+00
      vertex   5.555703e-01 -8.314696e-01  3.001601e+00
      vertex   3.826835e-01 -9.238795e-01  3.001601e+00
    endloop
  endfacet
  facet normal -9.569403e-01 -2.902846e-01  2.848209e-08
    outer loop
      vertex  -9.807853e-01 -1.950903e-01  1.000000e+00
      vertex  -9.238795e-01 -3.826835e-01  1.000000e+00
      vertex  -9.238794e-01 -3.826835e-01  3.001601e+00
    endloop
  endfacet
  facet normal -9.569403e-01 -2.902846e-01  2.849624e-08
    outer loop
      vertex  -9.807853e-01 -1.950903e-01  1.000000e+00
      vertex  -9.238794e-01 -3.826835e-01  3.001601e+00
      vertex  -9.807852e-01 -1.950903e-01  3.001601e+00
    endloop
  endfacet
  facet normal  9.801729e-02  9.951847e-01 -2.373508e-09
    outer loop
      vertex   1.950903e-01  9.807853e-01  1.000000e+00
      vertex   0.000000e+00  1.000000e+00  1.000000e+00
      vertex   3.822099e-08  1.000000e+00  3.001601e+00
    endloop
  endfacet
  facet normal  9.801729e-02  9.951847e-01 -2.189105e-09
    outer loop
      vertex   1.950903e-01  9.807853e-01  1.000000e+00
      vertex   3.822099e-08  1.000000e+00  3.001601e+00
      vertex   1.950904e-01  9.807853e-01  3.001601e+00
    endloop
  endfacet
  facet normal -9.801729e-02  9.951847e-01  2.373508e-09
    outer loop
      vertex   0.000000e+00  1.000000e+00  1.000000e+00
      vertex  -1.950903e-01  9.807853e-01  1.000000e+00
      vertex  -1.950903e-01  9.807853e-01  3.001601e+00
    endloop
  endfacet
  facet normal -9.801729e-02  9.951847e-01  1.871661e-09
    outer loop
      vertex   0.000000e+00  1.000000e+00  1.000000e+00
      vertex  -1.950903e-01  9.807853e-01  3.001601e+00
      vertex   3.822099e-08  1.000000e+00  3.001601e+00
    endloop
  endfacet
  facet normal  9.569403e-01 -2.902846e-01 -2.848209e-08
    outer loop
      vertex   9.238795e-01 -3.826835e-01  1.000000e+00
      vertex   9.807853e-01 -1.950903e-01  1.000000e+00
      vertex   9.807853e-01 -1.950903e-01  3.001601e+00
    endloop
  endfacet
  facet normal  9.569403e-01 -2.902846e-01 -2.849624e-08
    outer loop
      vertex   9.238795e-01 -3.826835e-01  1.000000e+00
      vertex   9.807853e-01 -1.950903e-01  3.001601e+00
      vertex   9.238796e-01 -3.826835e-01  3.001601e+00
    endloop
  endfacet
  facet normal -4.713967e-01 -8.819213e-01  4.747016e-09
    outer loop
      vertex  -5.555702e-01 -8.314696e-01  1.000000e+00
      vertex  -3.826835e-01 -9.238795e-01  1.000000e+00
      vertex  -3.826834e-01 -9.238795e-01  3.001601e+00
    endloop
  endfacet
  facet normal -4.713968e-01 -8.819213e-01  1.403748e-08
    outer loop
      vertex  -5.555702e-01 -8.314696e-01  1.000000e+00
      vertex  -3.826834e-01 -9.238795e-01  3.001601e+00
      vertex  -5.555702e-01 -8.314696e-01  3.001601e+00
    endloop
  endfacet
  facet normal -7.730104e-01  6.343933e-01  1.898806e-08
    outer loop
      vertex  -7.071068e-01  7.071068e-01  1.000000e+00
      vertex  -8.314696e-01  5.555702e-01  1.000000e+00
      vertex  -8.314695e-01  5.555702e-01  3.001601e+00
    endloop
  endfacet
  facet normal -7.730104e-01  6.343933e-01  2.301908e-08
    outer loop
      vertex  -7.071068e-01  7.071068e-01  1.000000e+00
      vertex  -8.314695e-01  5.555702e-01  3.001601e+00
      vertex  -7.071067e-01  7.071068e-01  3.001601e+00
    endloop
  endfacet
  facet normal  8.819213e-01  4.713967e-01 -2.848209e-08
    outer loop
      vertex   9.238795e-01  3.826835e-01  1.000000e+00
      vertex   8.314696e-01  5.555702e-01  1.000000e+00
      vertex   8.314697e-01  5.555702e-01  3.001601e+00
    endloop
  endfacet
  facet normal  8.819213e-01  4.713967e-01 -2.626228e-08
    outer loop
      vertex   9.238795e-01  3.826835e-01  1.000000e+00
      vertex   8.314697e-01  5.555702e-01  3.001601e+00
      vertex   9.238796e-01  3.826835e-01  3.001601e+00
    endloop
  endfacet
  facet normal  2.902846e-01 -9.569403e-01 -2.373507e-09
    outer loop
      vertex   1.950903e-01 -9.807853e-01  1.000000e+00
      vertex   3.826835e-01 -9.238795e-01  1.000000e+00
      vertex   3.826835e-01 -9.238795e-01  3.001601e+00
    endloop
  endfacet
  facet normal  2.902847e-01 -9.569403e-01 -6.483179e-09
    outer loop
      vertex   1.950903e-01 -9.807853e-01  1.000000e+00
      vertex   3.826835e-01 -9.238795e-01  3.001601e+00
      vertex   1.950904e-01 -9.807853e-01  3.001601e+00
    endloop
  endfacet
  facet normal -9.951847e-01 -9.801729e-02  2.907547e-08
    outer loop
      vertex  -1.000000e+00  0.000000e+00  1.000000e+00
      vertex  -9.807853e-01 -1.950903e-01  1.000000e+00
      vertex  -9.807852e-01 -1.950903e-01  3.001601e+00
    endloop
  endfacet
  facet normal -9.951847e-01 -9.801729e-02  2.963510e-08
    outer loop
      vertex  -1.000000e+00  0.000000e+00  1.000000e+00
      vertex  -9.807852e-01 -1.950903e-01  3.001601e+00
      vertex  -9.999999e-01  0.000000e+00  3.001601e+00
    endloop
  endfacet
  facet normal  2.902846e-01  9.569403e-01 -7.120522e-09
    outer loop
      vertex   3.826835e-01  9.238795e-01  1.000000e+00
      vertex   1.950903e-01  9.807853e-01  1.000000e+00
      vertex   1.950904e-01  9.807853e-01  3.001601e+00
    endloop
  endfacet
  facet normal  2.902847e-01  9.569403e-01 -4.322119e-09
    outer loop
      vertex   3.826835e-01  9.238795e-01  1.000000e+00
      vertex   1.950904e-01  9.807853e-01  3.001601e+00
      vertex   3.826835e-01  9.238795e-01  3.001601e+00
    endloop
  endfacet
  facet normal  8.819213e-01 -4.713967e-01 -2.373508e-08
    outer loop
      vertex   8.314696e-01 -5.555702e-01  1.000000e+00
      vertex   9.238795e-01 -3.826835e-01  1.000000e+00
      vertex   9.238796e-01 -3.826835e-01  3.001601e+00
    endloop
  endfacet
  facet normal  8.819213e-01 -4.713967e-01 -2.626228e-08
    outer loop
      vertex   8.314696e-01 -5.555702e-01  1.000000e+00
      vertex   9.238796e-01 -3.826835e-01  3.001601e+00
      vertex   8.314697e-01 -5.555702e-01  3.001601e+00
    endloop
  endfacet
  facet normal -6.343933e-01 -7.730104e-01  1.898806e-08
    outer loop
      vertex  -7.071068e-01 -7.071068e-01  1.000000e+00
      vertex  -5.555702e-01 -8.314696e-01  1.000000e+00
      vertex  -5.555702e-01 -8.314696e-01  3.001601e+00
    endloop
  endfacet
  facet normal -6.343933e-01 -7.730104e-01  1.889127e-08
    outer loop
      vertex  -7.071068e-01 -7.071068e-01  1.000000e+00
      vertex  -5.555702e-01 -8.314696e-01  3.001601e+00
      vertex  -7.071067e-01 -7.071068e-01  3.001601e+00
    endloop
  endfacet
  facet normal -6.343933e-01  7.730104e-01  1.898806e-08
    outer loop
      vertex  -5.555702e-01  8.314696e-01  1.000000e+00
      vertex  -7.071068e-01  7.071068e-01  1.000000e+00
      vertex  -7.071067e-01  7.071068e-01  3.001601e+00
    endloop
  endfacet
  facet normal -6.343933e-01  7.730104e-01  1.889127e-08
    outer loop
      vertex  -5.555702e-01  8.314696e-01  1.000000e+00
      vertex  -7.071067e-01  7.071068e-01  3.001601e+00
      vertex  -5.555702e-01  8.314696e-01  3.001601e+00
    endloop
  endfacet
  facet normal  9.569403e-01  2.902846e-01 -2.848209e-08
    outer loop
      vertex   9.807853e-01  1.950903e-01  1.000000e+00
      vertex   9.238795e-01  3.826835e-01  1.000000e+00
      vertex   9.238796e-01  3.826835e-01  3.001601e+00
    endloop
  endfacet
  facet normal  9.569403e-01  2.902846e-01 -2.849624e-08
    outer loop
      vertex   9.807853e-01  1.950903e-01  1.000000e+00
      vertex   9.238796e-01  3.826835e-01  3.001601e+00
      vertex   9.807853e-01  1.950903e-01  3.001601e+00
    endloop
  endfacet
  facet normal  9.801729e-02 -9.951847e-01 -1.780131e-09
    outer loop
      vertex   0.000000e+00 -1.000000e+00  1.000000e+00
      vertex   1.950903e-01 -9.807853e-01  1.000000e+00
      vertex   1.950904e-01 -9.807853e-01  3.001601e+00
    endloop
  endfacet
  facet normal  9.801729e-02 -9.951847e-01 -1.871661e-09
    outer loop
      vertex   0.000000e+00 -1.000000e+00  1.000000e+00
      vertex   1.950904e-01 -9.807853e-01  3.001601e+00
      vertex   3.822099e-08 -1.000000e+00  3.001601e+00
    endloop
  endfacet
  facet normal -9.951847e-01  9.801729e-02  2.966885e-08
    outer loop
      vertex  -9.807853e-01  1.950903e-01  1.000000e+00
      vertex  -1.000000e+00  0.000000e+00  1.000000e+00
      vertex  -9.999999e-01  0.000000e+00  3.001601e+00
    endloop
  endfacet
  facet normal -9.951847e-01  9.801728e-02  2.963510e-08
    outer loop
      vertex  -9.807853e-01  1.950903e-01  1.000000e+00
      vertex  -9.999999e-01  0.000000e+00  3.001601e+00
      vertex  -9.807852e-01  1.950903e-01  3.001601e+00
    endloop
  endfacet
  facet normal  4.713967e-01  8.819213e-01 -9.494032e-09
    outer loop
      vertex   5.555702e-01  8.314696e-01  1.000000e+00
      vertex   3.826835e-01  9.238795e-01  1.000000e+00
      vertex   3.826835e-01  9.238795e-01  3.001601e+00
    endloop
  endfacet
  facet normal  4.713967e-01  8.819213e-01 -1.403748e-08
    outer loop
      vertex   5.555702e-01  8.314696e-01  1.000000e+00
      vertex   3.826835e-01  9.238795e-01  3.001601e+00
      vertex   5.555703e-01  8.314696e-01  3.001601e+00
    endloop
  endfacet
  facet normal  7.730104e-01 -6.343933e-01 -2.373508e-08
    outer loop
      vertex   7.071068e-01 -7.071068e-01  1.000000e+00
      vertex   8.314696e-01 -5.555702e-01  1.000000e+00
      vertex   8.314697e-01 -5.555702e-01  3.001601e+00
    endloop
  endfacet
  facet normal  7.730104e-01 -6.343933e-01 -2.301908e-08
    outer loop
      vertex   7.071068e-01 -7.071068e-01  1.000000e+00
      vertex   8.314697e-01 -5.555702e-01  3.001601e+00
      vertex   7.071068e-01 -7.071068e-01  3.001601e+00
    endloop
  endfacet
  facet normal -7.730104e-01 -6.343933e-01  2.373508e-08
    outer loop
      vertex  -8.314696e-01 -5.555702e-01  1.000000e+00
      vertex  -7.071068e-01 -7.071068e-01  1.000000e+00
      vertex  -7.071067e-01 -7.071068e-01  3.001601e+00
    endloop
  endfacet
  facet normal -7.730104e-01 -6.343933e-01  2.301908e-08
    outer loop
      vertex  -8.314696e-01 -5.555702e-01  1.000000e+00
      vertex  -7.071067e-01 -7.071068e-01  3.001601e+00
      vertex  -8.314695e-01 -5.555702e-01  3.001601e+00
    endloop
  endfacet
  facet normal -4.713967e-01  8.819213e-01  1.424105e-08
    outer loop
      vertex  -3.826835e-01  9.238795e-01  1.000000e+00
      vertex  -5.555702e-01  8.314696e-01  1.000000e+00
      vertex  -5.555702e-01  8.314696e-01  3.001601e+00
    endloop
  endfacet
  facet normal -4.713968e-01  8.819213e-01  7.018742e-09
    outer loop
      vertex  -3.826835e-01  9.238795e-01  1.000000e+00
      vertex  -5.555702e-01  8.314696e-01  3.001601e+00
      vertex  -3.826834e-01  9.238795e-01  3.001601e+00
    endloop
  endfacet
endsolid vcg
